<?xml version="1.0" standalone="no"?>
<!DOCTYPE svg PUBLIC "-//W3C//DTD SVG 1.1//EN" "http://www.w3.org/Graphics/SVG/1.1/DTD/svg11.dtd" >
<svg xmlns="http://www.w3.org/2000/svg" xmlns:xlink="http://www.w3.org/1999/xlink" version="1.1">
<metadata>
Created by FontForge 20200427 at Mon Nov 28 17:47:46 2011
 By www
Copyright (c) 2011 by IBRAHIM HAMDI's. All rights reserved.
</metadata>
<defs>
<font id="CoconNextArabic-Bold" horiz-adv-x="0" >
  <font-face 
    font-family="Cocon Next Arabic"
    font-weight="700"
    font-stretch="normal"
    units-per-em="1000"
    panose-1="2 10 5 3 2 1 2 2 2 4"
    ascent="800"
    descent="-200"
    x-height="456"
    cap-height="604"
    bbox="-233 -325 1492 891"
    underline-thickness="50"
    underline-position="-100"
    unicode-range="U+0020-FEFC"
  />
<missing-glyph horiz-adv-x="550" 
 />
    <glyph glyph-name="lam_alef_madda.isol" unicode="&#xfedf;&#xfe82;" horiz-adv-x="627" arabic-form="isolated" 
d="M318 743v-35q0 -20 -13 -38.5t-36 -18.5h-140v47q0 16 11.5 30.5t29.5 14.5h148zM469 600q88 0 88 -87v-339q0 -75 -45 -123t-129 -51h-248q-95 0 -95 82v41h108v477h63q27 0 51 -19.5t24 -48.5v-409h87q47 3 47 57v420h49z" />
    <glyph glyph-name="lam_alef_madda.fina" unicode="&#xfee0;&#xfe82;" horiz-adv-x="657" arabic-form="final" 
d="M315 743v-35q0 -20 -13 -38.5t-36 -18.5h-141v47q0 16 12 30.5t30 14.5h148zM652 123h25v-123h-40q-89 0 -136 39q-43 -36 -119 -39h-247q-95 0 -95 81v42h108v477h63q27 0 50.5 -20t23.5 -49v-408h89q46 3 46 55v422h49q88 0 88 -89v-315q5 -38 27 -55.5t68 -17.5z" />
    <glyph glyph-name="lam_alef_hamza_above.isol" unicode="&#xfedf;&#xfe84;" horiz-adv-x="627" arabic-form="isolated" 
d="M468 600q89 0 89 -88v-338q0 -75 -45 -123t-129 -51h-248q-95 0 -95 81v42h108v477h63q27 0 51 -20t24 -48v-409h87q47 3 47 56v421h48zM209 703h90v-25q0 -10 -8.5 -18.5t-21.5 -8.5h-119q-12 0 -20 8.5t-8 18.5v25h29q-1 4 -1 17v7q0 35 19.5 57t53.5 22q55 0 65 -46
q0 -18 -22 -48q-7 23 -17.5 34.5t-15.5 12.5t-13 1q-17 0 -17 -30q0 -21 6 -27z" />
    <glyph glyph-name="lam_alef_hamza_above.fina" unicode="&#xfee0;&#xfe84;" horiz-adv-x="657" arabic-form="final" 
d="M652 123h25v-123h-40q-89 0 -136 39q-43 -36 -119 -39h-247q-95 0 -95 81v42h108v477h63q27 0 50.5 -20t23.5 -49v-408h89q46 3 46 55v422h49q88 0 88 -89v-315q5 -38 27 -55.5t68 -17.5zM209 703h90v-25q0 -10 -8.5 -18.5t-21.5 -8.5h-119q-12 0 -20 8.5t-8 18.5v25h29
q-1 4 -1 17v7q0 35 19.5 57t53.5 22q55 0 65 -46q0 -18 -22 -48q-7 23 -17.5 34.5t-15.5 12.5t-13 1q-17 0 -17 -30q0 -21 6 -27z" />
    <glyph glyph-name="lam_alef_hamza_below.isol" unicode="&#xfedf;&#xfe88;" horiz-adv-x="627" arabic-form="isolated" 
d="M468 600q89 0 89 -88v-338q0 -75 -45 -123t-129 -51h-248q-95 0 -95 81v42h108v477h63q27 0 51 -20t24 -48v-409h86q48 3 48 56v421h48zM131 -152h90v-25q0 -11 -8.5 -19t-21.5 -8h-119q-12 0 -20 8.5t-8 18.5v25h29q-1 4 -1 17v7q0 35 19.5 57t53.5 22q55 0 65 -46
q0 -18 -22 -48q-7 23 -17.5 34.5t-15.5 12.5t-13 1q-17 0 -17 -30q0 -21 6 -27z" />
    <glyph glyph-name="lam_alef_hamza_below.fina" unicode="&#xfee0;&#xfe88;" horiz-adv-x="657" arabic-form="final" 
d="M652 123h25v-123h-40q-88 0 -136 40q-43 -37 -119 -40h-247q-95 0 -95 82v41h108v477h63q27 0 50.5 -20t23.5 -49v-408h89q46 3 46 55v422h49q88 0 88 -89v-315q5 -38 27 -55.5t68 -17.5zM131 -152h90v-25q0 -11 -8.5 -19t-21.5 -8h-119q-12 0 -20 8.5t-8 18.5v25h29
q-1 4 -1 17v7q0 35 19.5 57t53.5 22q55 0 65 -46q0 -18 -22 -48q-7 23 -17.5 34.5t-15.5 12.5t-13 1q-17 0 -17 -30q0 -21 6 -27z" />
    <glyph glyph-name="lam_alef.isol" unicode="&#xfedf;&#xfe8e;" horiz-adv-x="627" arabic-form="isolated" 
d="M468 600q89 0 89 -87v-339q0 -75 -45 -123t-129 -51h-248q-95 0 -95 81v42h108v477h63q27 0 51 -20t24 -48v-409h87q47 3 47 57v420h48z" />
    <glyph glyph-name="lam_alef.fina" unicode="&#xfee0;&#xfe8e;" horiz-adv-x="657" arabic-form="final" 
d="M652 123h25v-123h-40q-89 0 -136 39q-43 -36 -119 -39h-247q-95 0 -95 81v42h108v477h63q27 0 50.5 -20t23.5 -49v-408h89q46 3 46 55v422h49q88 0 88 -89v-315q5 -38 27 -55.5t68 -17.5z" />
    <glyph glyph-name="hamza.isol" unicode="&#x621;" horiz-adv-x="531" arabic-form="isolated" 
d="M35 123h59q-16 36 -16 85q0 96 54 159t150 63q60 0 110.5 -31.5t60.5 -92.5q0 -29 -11 -51l-29 -67q-24 76 -64.5 105t-74.5 29q-35 0 -54 -28t-19 -73q0 -73 33 -98h252v-57q0 -24 -20 -45t-49 -21h-313q-30 0 -49.5 21t-19.5 45v57z" />
    <glyph glyph-name="alef_madda.isol" unicode="&#x622;" horiz-adv-x="284" arabic-form="isolated" 
d="M206 0h-58q-33 0 -56 22.5t-23 64.5v512h62q27 0 51 -20t24 -48v-531zM244 748v-36q0 -22 -14 -41.5t-38 -19.5h-152v50q0 17 12.5 32t30.5 15h161z" />
    <glyph glyph-name="alef_hamza_above.isol" unicode="&#x623;" horiz-adv-x="256" arabic-form="isolated" 
d="M127 703h89v-24q0 -11 -8 -19.5t-21 -8.5h-120q-11 0 -19 9t-8 19v24h28q-1 4 -1 24q0 35 20 57t54 22q55 0 64 -46q0 -21 -21 -48q-7 23 -17.5 34.5t-15.5 12.5t-13 1q-17 0 -17 -30q0 -21 6 -27zM202 0h-56q-33 0 -56.5 22t-23.5 64v514h63q27 0 50 -19.5t23 -48.5
v-532z" />
    <glyph glyph-name="waw_hamza.isol" unicode="&#x624;" horiz-adv-x="479" arabic-form="isolated" 
d="M430 268q9 -43 9 -78l-2 -148q0 -31 -13 -63.5t-41 -66.5t-82 -55.5t-126 -21.5q-36 0 -58 17t-22 42v49q139 3 196 58q-256 13 -256 207q0 96 54 159t150 63q37 0 74 -13q47 -19 77.5 -59.5t39.5 -89.5zM233 533h89v-25q0 -11 -8 -19.5t-21 -8.5h-119q-12 0 -20 9t-8 19
v25h30q-2 8 -2 17v7q0 34 19.5 56.5t53.5 22.5q56 0 64 -47q0 -18 -21 -47q-5 17 -11.5 27.5t-14 14.5t-11 4.5t-9.5 0.5q-17 0 -17 -29q0 -21 6 -27zM157 221q0 -60 31.5 -79t84.5 -19h42v22q-1 42 -2.5 64t-9 53t-25.5 45.5t-47 14.5q-36 0 -55 -28t-19 -73z" />
    <glyph glyph-name="alef_hamza_below.isol" unicode="&#x625;" horiz-adv-x="256" arabic-form="isolated" 
d="M202 0h-57q-34 0 -57.5 22.5t-23.5 64.5v512h64q27 0 50.5 -20.5t23.5 -48.5v-530zM127 -148h89v-25q0 -10 -8 -18.5t-21 -8.5h-120q-11 0 -19 8.5t-8 18.5v25h28q-1 4 -1 17v7q0 35 20 57t54 22q54 0 64 -46q0 -7 -2 -13.5t-4 -10.5t-7 -11.5t-8 -12.5q-7 23 -17.5 34.5
t-15.5 12.5t-13 1q-17 0 -17 -30q0 -21 6 -27z" />
    <glyph glyph-name="yeh_hamza_above.isol" unicode="&#x626;" horiz-adv-x="894" arabic-form="isolated" 
d="M750 0h-43v304q-38 -2 -65.5 -15.5t-43.5 -31.5t-26.5 -48t-14.5 -55t-8 -62q-4 -55 -14 -94.5t-32 -75t-62 -53.5t-98 -18q-134 0 -202.5 66.5t-68.5 193.5q0 80 34.5 127t93.5 47l57 -5q-69 -77 -69 -161q0 -36 4.5 -58.5t20 -45.5t49.5 -34t88 -12q20 0 34.5 8.5
t22 18.5t12.5 34.5t6 38t4 47.5q6 135 49 207q72 106 249 106h102v-342q0 -42 -23 -64.5t-56 -22.5zM157 383h89v-25q0 -11 -8.5 -19.5t-21.5 -8.5h-119q-12 0 -19.5 8.5t-7.5 19.5v25h28q-1 4 -1 17v7q0 34 20 56.5t54 22.5q54 0 64 -47q0 -16 -13 -35q-1 -1 -4.5 -5.5
t-4.5 -6.5q-7 22 -17 33.5t-15 12.5t-13 1q-17 0 -17 -29q0 -21 6 -27z" />
    <glyph glyph-name="alef.isol" unicode="&#x627;" horiz-adv-x="221" arabic-form="isolated" 
d="M176 0h-57q-33 0 -56 22.5t-23 64.5v513h62q27 0 50.5 -20t23.5 -48v-532z" />
    <glyph glyph-name="beh.isol" unicode="&#x628;" horiz-adv-x="780" arabic-form="isolated" 
d="M646 349q89 0 89 -89v-86q0 -75 -45.5 -123.5t-130.5 -50.5h-300q-54 0 -93 18t-59 42t-31 58.5t-13.5 56.5t-2.5 47q0 170 115 170h71q-39 -34 -58 -77t-19 -77q0 -115 78 -115h303q47 3 47 57v169h49zM417 -183q-29 0 -48.5 19.5t-19.5 48.5q0 28 20 47.5t48 19.5
q29 0 49 -19.5t20 -47.5t-20 -48t-49 -20z" />
    <glyph glyph-name="tehmarbuta.isol" unicode="&#x629;" horiz-adv-x="494" arabic-form="isolated" 
d="M263 429q89 0 142.5 -61t53.5 -147q0 -96 -54 -158.5t-150 -62.5q-90 0 -142.5 60.5t-52.5 147.5q0 96 53.5 158.5t149.5 62.5zM255 321q-36 0 -55 -27.5t-19 -72.5q0 -114 82 -114q36 0 55 27.5t19 73.5q0 113 -82 113zM186 470q-28 0 -48.5 20.5t-20.5 48.5t20.5 49
t48.5 21q27 0 47.5 -21t20.5 -49t-20.5 -48.5t-47.5 -20.5zM337 470q-27 0 -47.5 20.5t-20.5 48.5t20.5 49t47.5 21q28 0 49 -21t21 -49t-21 -48.5t-49 -20.5z" />
    <glyph glyph-name="teh.isol" unicode="&#x62a;" horiz-adv-x="780" arabic-form="isolated" 
d="M646 349q89 0 89 -89v-86q0 -75 -45.5 -123.5t-130.5 -50.5h-300q-54 0 -93 18t-59 42t-31 58.5t-13.5 56.5t-2.5 47q0 170 115 170h71q-39 -34 -58 -77t-19 -77q0 -115 78 -115h303q47 3 47 57v169h49zM346 401q-28 0 -48.5 20.5t-20.5 48.5t20.5 49t48.5 21
q27 0 47.5 -21t20.5 -49t-20.5 -48.5t-47.5 -20.5zM497 401q-27 0 -47.5 20.5t-20.5 48.5t20.5 49t47.5 21q28 0 49 -21t21 -49t-21 -48.5t-49 -20.5z" />
    <glyph glyph-name="theh.isol" unicode="&#x62b;" horiz-adv-x="780" arabic-form="isolated" 
d="M646 349q89 0 89 -89v-86q0 -75 -45.5 -123.5t-130.5 -50.5h-300q-54 0 -93 18t-59 42t-31 58.5t-13.5 56.5t-2.5 47q0 170 115 170h71q-39 -34 -58 -77t-19 -77q0 -115 78 -115h303q47 3 47 57v169h49zM346 401q-28 0 -48.5 20.5t-20.5 48.5t20.5 49t48.5 21
q27 0 47.5 -21t20.5 -49t-20.5 -48.5t-47.5 -20.5zM497 401q-27 0 -47.5 20.5t-20.5 48.5t20.5 49t47.5 21q28 0 49 -21t21 -49t-21 -48.5t-49 -20.5zM421 529q-26 0 -44.5 19t-18.5 44q0 26 18.5 45t44.5 19q25 0 44 -19t19 -45q0 -25 -19 -44t-44 -19z" />
    <glyph glyph-name="jeem.isol" unicode="&#x62c;" horiz-adv-x="598" arabic-form="isolated" 
d="M308 -166q-28 0 -47.5 20t-19.5 48t19.5 48t47.5 20t48.5 -20t20.5 -48t-20 -48t-49 -20zM60 -120q0 64 17.5 111t49 73t74 41.5t93 17.5t105.5 -1q-51 183 -155 183q-71 0 -145 -71v69q0 55 43.5 90t122.5 35q70 0 123.5 -36t84 -94t45.5 -123t15 -131q0 -56 -20 -141
q-17 51 -65 74.5t-109 23.5q-69 0 -115.5 -22t-46.5 -72q0 -56 24 -83q31 -35 102 -35q36 0 78 18.5t74 47.5v-65q0 -54 -50 -82t-114 -28q-35 0 -72 10.5t-74 32.5t-61 63t-24 94z" />
    <glyph glyph-name="hah.isol" unicode="&#x62d;" horiz-adv-x="598" arabic-form="isolated" 
d="M60 -120q0 64 17.5 111t49 73t74 41.5t93 17.5t105.5 -1q-51 183 -155 183q-71 0 -145 -71v69q0 55 43.5 90t122.5 35q70 0 123.5 -36t84 -94t45.5 -123t15 -131q0 -56 -20 -141q-17 51 -65 74.5t-109 23.5q-69 0 -115.5 -22t-46.5 -72q0 -56 24 -83q31 -35 102 -35
q36 0 78 18.5t74 47.5v-65q0 -54 -50 -82t-114 -28q-35 0 -72 10.5t-74 32.5t-61 63t-24 94z" />
    <glyph glyph-name="khah.isol" unicode="&#x62e;" horiz-adv-x="598" arabic-form="isolated" 
d="M60 -120q0 64 17.5 111t49 73t74 41.5t93 17.5t105.5 -1q-51 183 -155 183q-71 0 -145 -71v69q0 55 43.5 90t122.5 35q70 0 123.5 -36t84 -94t45.5 -123t15 -131q0 -56 -20 -141q-17 51 -65 74.5t-109 23.5q-69 0 -115.5 -22t-46.5 -72q0 -56 24 -83q31 -35 102 -35
q36 0 78 18.5t74 47.5v-65q0 -54 -50 -82t-114 -28q-35 0 -72 10.5t-74 32.5t-61 63t-24 94zM263 471q-28 0 -47.5 20t-19.5 49t19 48t48 19t49.5 -19t20.5 -48q0 -28 -20.5 -48.5t-49.5 -20.5z" />
    <glyph glyph-name="dal.isol" unicode="&#x62f;" horiz-adv-x="472" arabic-form="isolated" 
d="M432 108v-108h-321q-31 0 -48.5 21t-17.5 50v52h260q-5 71 -49.5 122t-114.5 51q-25 0 -74 -8l35 56q37 59 98 59q40 0 81.5 -20t69.5 -53q81 -103 81 -222z" />
    <glyph glyph-name="thal.isol" unicode="&#x630;" horiz-adv-x="472" arabic-form="isolated" 
d="M432 108v-108h-321q-31 0 -48.5 21t-17.5 50v52h260q-5 71 -49.5 122t-114.5 51q-25 0 -74 -8l35 56q37 59 98 59q40 0 81.5 -20t69.5 -53q81 -103 81 -222zM226 471q-28 0 -48 20t-20 49t19.5 48t48.5 19q28 0 48 -19t20 -48q0 -28 -20 -48.5t-48 -20.5z" />
    <glyph glyph-name="reh.isol" unicode="&#x631;" horiz-adv-x="336" arabic-form="isolated" 
d="M286 -23q0 -57 -43 -99.5t-107 -42.5q-41 0 -66 19t-25 52v54q38 -6 51 -6q34 0 44 15.5t10 54.5v325h54q46 0 64 -20t18 -68v-284z" />
    <glyph glyph-name="zain.isol" unicode="&#x632;" horiz-adv-x="331" arabic-form="isolated" 
d="M204 400q-27 0 -47 20t-20 49q0 28 19 47.5t48 19.5q28 0 48 -19.5t20 -47.5q0 -29 -20 -49t-48 -20zM281 -23q0 -57 -43 -99.5t-107 -42.5q-41 0 -66 19t-25 52v54q38 -6 51 -6q34 0 44 15.5t10 54.5v325h54q46 0 64 -20t18 -68v-284z" />
    <glyph glyph-name="seen.isol" unicode="&#x633;" horiz-adv-x="1173" arabic-form="isolated" 
d="M1045 400q88 0 88 -88v-137q0 -76 -44.5 -123.5t-130.5 -50.5h-8q-86 0 -136 30q-51 -31 -137 -31h-58q-23 -79 -107 -132.5t-172 -53.5q-121 0 -200.5 86t-79.5 210q0 70 29 113t85 43h71q-39 -34 -57.5 -77t-18.5 -78q0 -67 44 -119t111 -52q83 0 127 41t44 110v309h62
q27 0 51 -20t24 -48v-209h66q49 4 49 57v220h48q88 0 88 -88v-77q0 -51 -6 -97q15 -15 59 -15q33 2 46.5 16t13.5 41v220h49z" />
    <glyph glyph-name="sheen.isol" unicode="&#x634;" horiz-adv-x="1173" arabic-form="isolated" 
d="M1045 400q88 0 88 -88v-137q0 -76 -44.5 -123.5t-130.5 -50.5h-8q-86 0 -136 30q-51 -31 -137 -31h-58q-23 -79 -107 -132.5t-172 -53.5q-121 0 -200.5 86t-79.5 210q0 70 29 113t85 43h71q-39 -34 -57.5 -77t-18.5 -78q0 -67 44 -119t111 -52q83 0 127 41t44 110v309h62
q27 0 51 -20t24 -48v-209h66q49 4 49 57v220h48q88 0 88 -88v-77q0 -51 -6 -97q15 -15 59 -15q33 2 46.5 16t13.5 41v220h49zM738 471q-28 0 -48.5 20.5t-20.5 48.5t20.5 49t48.5 21q27 0 47.5 -21t20.5 -49t-20.5 -48.5t-47.5 -20.5zM889 471q-27 0 -47.5 20.5t-20.5 48.5
t20.5 49t47.5 21q28 0 49 -21t21 -49t-21 -48.5t-49 -20.5zM813 599q-26 0 -44.5 19t-18.5 44q0 26 18.5 45t44.5 19q25 0 44 -19t19 -45q0 -25 -19 -44t-44 -19z" />
    <glyph glyph-name="sad.isol" unicode="&#x635;" horiz-adv-x="1106" arabic-form="isolated" 
d="M635 123h314q-2 170 -130 171q-64 -1 -114 -55t-70 -116zM842 428q58 0 103.5 -28t70.5 -72.5t37.5 -93.5t12.5 -99q0 -58 -16.5 -96.5t-43.5 -38.5h-397q-26 -82 -100 -136t-170 -54q-123 0 -201 75.5t-78 196.5q0 70 29 113t85 43h71q-39 -34 -57.5 -77t-18.5 -78
q0 -65 43 -107.5t113 -42.5q82 0 125.5 41.5t43.5 112.5v62v74.5t-0.5 78.5t-0.5 36h35q33 0 46.5 -2t24.5 -13.5t14 -37.5q104 143 229 143z" />
    <glyph glyph-name="dad.isol" unicode="&#x636;" horiz-adv-x="1106" arabic-form="isolated" 
d="M635 123h314q-2 170 -130 171q-64 -1 -114 -55t-70 -116zM824 469q-29 0 -49 20.5t-20 49.5q0 28 20 48t49 20q28 0 48.5 -20t20.5 -48t-20.5 -49t-48.5 -21zM842 428q58 0 103.5 -28t70.5 -72.5t37.5 -93.5t12.5 -99q0 -58 -16.5 -96.5t-43.5 -38.5h-397
q-26 -82 -100 -136t-170 -54q-123 0 -201 75.5t-78 196.5q0 70 29 113t85 43h71q-39 -34 -57.5 -77t-18.5 -78q0 -65 43 -107.5t113 -42.5q82 0 125.5 41.5t43.5 112.5v62v74.5t-0.5 78.5t-0.5 36h35q33 0 46.5 -2t24.5 -13.5t14 -37.5q104 143 229 143z" />
    <glyph glyph-name="tah.isol" unicode="&#x637;" horiz-adv-x="750" arabic-form="isolated" 
d="M60 82v41h77v477h33q48 0 67.5 -18.5t19.5 -64.5v-229q103 141 228 141q58 0 103.5 -28t71 -73t38 -94t12.5 -98q0 -58 -17 -97t-45 -39h-492q-51 1 -73.5 21t-22.5 61zM462 294q-64 -3 -113.5 -56.5t-70.5 -114.5h311v25q0 140 -127 146z" />
    <glyph glyph-name="zah.isol" unicode="&#x638;" horiz-adv-x="750" arabic-form="isolated" 
d="M466 471q-29 0 -48 20t-19 49q0 28 19 47.5t48 19.5q28 0 48 -19.5t20 -47.5t-20 -48.5t-48 -20.5zM60 82v41h77v477h33q48 0 67.5 -18.5t19.5 -64.5v-229q103 141 228 141q58 0 103.5 -28t71 -73t38 -94t12.5 -98q0 -58 -17 -97t-45 -39h-492q-51 1 -73.5 21t-22.5 61z
M462 294q-64 -3 -113.5 -56.5t-70.5 -114.5h311v25q0 140 -127 146z" />
    <glyph glyph-name="ain.isol" unicode="&#x639;" horiz-adv-x="536" arabic-form="isolated" 
d="M261 123h235v-57q0 -24 -20 -45t-49 -21h-156q-94 -9 -94 -81q0 -132 126 -132q36 0 78.5 18.5t73.5 47.5v-64q0 -55 -50 -83t-114 -28q-26 0 -56 7.5t-61 25t-56.5 42t-41.5 61t-16 79.5q0 138 78 191q-2 3 -5 8t-4 8q-26 47 -26 108q0 96 54 159t150 63q61 0 108 -31
t63 -93q0 -29 -11 -51l-29 -67q-24 76 -64.5 105t-74.5 29q-36 0 -54.5 -28t-18.5 -73q0 -73 35 -98z" />
    <glyph glyph-name="ghain.isol" unicode="&#x63a;" horiz-adv-x="536" arabic-form="isolated" 
d="M261 123h235v-57q0 -24 -20 -45t-49 -21h-156q-94 -9 -94 -81q0 -132 126 -132q36 0 78.5 18.5t73.5 47.5v-64q0 -55 -50 -83t-114 -28q-26 0 -56 7.5t-61 25t-56.5 42t-41.5 61t-16 79.5q0 138 78 191q-2 3 -5 8t-4 8q-26 47 -26 108q0 96 54 159t150 63q61 0 108 -31
t63 -93q0 -29 -11 -51l-29 -67q-24 76 -64.5 105t-74.5 29q-36 0 -54.5 -28t-18.5 -73q0 -73 35 -98zM306 471q-29 0 -48.5 20t-19.5 49t19.5 48t48.5 19t48.5 -19t19.5 -48t-20 -49t-48 -20z" />
    <glyph glyph-name="feh.isol" unicode="&#x641;" horiz-adv-x="839" arabic-form="isolated" 
d="M598 471q-28 0 -48 19.5t-20 48.5t20 49t48 20q30 0 49.5 -19.5t19.5 -48.5t-19.5 -49t-49.5 -20zM799 190v-190h-540q-54 0 -93 18t-59 42t-31.5 58.5t-13.5 56.5t-2 47q0 170 115 170h71q-39 -34 -58 -77t-19 -77q0 -115 78 -115h166q-18 39 -18 85q0 96 54 159t150 63
q91 0 145.5 -67.5t54.5 -172.5zM590 322q-36 0 -54.5 -27.5t-18.5 -73.5q0 -28 9.5 -47.5t22 -29.5t35.5 -15t36.5 -5.5t39.5 -0.5h16v56q0 43 -4.5 70.5t-24.5 50t-57 22.5z" />
    <glyph glyph-name="qaf.isol" unicode="&#x642;" horiz-adv-x="682" arabic-form="isolated" 
d="M527 470q-28 0 -48 20t-20 48t20 48t48 20t48 -20t20 -48t-20 -48t-48 -20zM380 470q-28 0 -48 20t-20 48t20 48t48 20t48.5 -20t20.5 -48t-20 -48t-49 -20zM452 425q96 0 146 -66.5t54 -171.5q0 -35 -0.5 -57t-6 -65t-15 -71.5t-29.5 -64.5t-48 -57.5t-73 -37
t-101 -15.5q-152 0 -235.5 84t-83.5 212q0 70 29.5 113t84.5 43h72q-40 -34 -58.5 -77t-18.5 -78q0 -24 10.5 -51.5t31.5 -55t61 -46t92 -18.5q95 6 137 55q-39 2 -71 7.5t-67 19t-59 35t-39.5 58t-15.5 84.5v6q14 215 203 215zM531 123v51q0 43 -5 71t-25 50.5t-57 22.5
q-36 0 -55 -28t-19 -73q0 -23 6.5 -39.5t20.5 -26.5t27 -16t34.5 -8.5t33.5 -3t33 -0.5h6z" />
    <glyph glyph-name="kaf.isol" unicode="&#x643;" horiz-adv-x="750" arabic-form="isolated" 
d="M388 368h89v-25q0 -11 -8.5 -19t-21.5 -8h-119q-12 0 -19.5 8.5t-7.5 18.5v25h28q-1 4 -1 24q0 35 20 57t54 22q54 0 64 -46q0 -17 -13 -36q-1 -2 -4.5 -6.5t-4.5 -5.5q-6 23 -16.5 34.5t-15.5 12.5t-13 1q-17 0 -17 -30q0 -21 6 -27zM622 600q88 0 88 -89v-337
q0 -76 -45 -123.5t-132 -50.5h-275q-45 0 -80 12t-55.5 33t-34 43t-19 50t-7.5 46t-2 38q0 170 115 170h74q-41 -34 -60 -76.5t-19 -77.5q0 -115 77 -115h278q49 4 49 56v421h48z" />
    <glyph glyph-name="lam.isol" unicode="&#x644;" horiz-adv-x="672" arabic-form="isolated" 
d="M544 600q88 0 88 -89v-348q0 -24 -1.5 -47.5t-8.5 -59.5t-18.5 -66.5t-33.5 -63.5t-51.5 -55.5t-75.5 -37.5t-103 -15q-121 0 -200.5 86t-79.5 210q0 70 29.5 113t84.5 43h72q-40 -34 -58.5 -77t-18.5 -78q0 -68 44.5 -120t111.5 -52q82 0 126 55.5t44 190.5v411h49z" />
    <glyph glyph-name="meem.isol" unicode="&#x645;" horiz-adv-x="651" arabic-form="isolated" 
d="M415 430q89 0 142.5 -61.5t53.5 -147.5q0 -96 -54 -158.5t-150 -62.5q-44 0 -83 18q-1 -2 -2 -3.5t-1 -2.5t-1 -2.5t-2 -3.5q-11 -23 -21 -38.5t-28.5 -35.5t-46 -31t-61.5 -11l-11 1q-90 1 -90 81v40h81q43 0 58.5 28t15.5 75q0 17 -2 51q0 7 -0.5 22t-0.5 20
q0 96 53.5 159t149.5 63zM415 107q36 0 55 28t19 73q0 114 -82 114q-36 0 -55 -27.5t-19 -73.5q0 -114 82 -114z" />
    <glyph glyph-name="noon.isol" unicode="&#x646;" horiz-adv-x="672" arabic-form="isolated" 
d="M544 349q88 0 88 -89v-97q0 -24 -1.5 -47.5t-8.5 -59.5t-18.5 -66.5t-33.5 -63.5t-51.5 -55.5t-75.5 -37.5t-103 -15q-121 0 -200.5 86t-79.5 210q0 70 29.5 113t84.5 43h72q-40 -34 -58.5 -77t-18.5 -78q0 -68 44.5 -120t111.5 -52q82 0 126 55.5t44 190.5v160h49z
M350 349q-28 0 -48 20.5t-20 48.5q0 29 20 48.5t48 19.5q29 0 49.5 -19.5t20.5 -48.5t-20.5 -49t-49.5 -20z" />
    <glyph glyph-name="heh.isol" unicode="&#x647;" horiz-adv-x="494" arabic-form="isolated" 
d="M263 429q89 0 142.5 -61.5t53.5 -147.5q0 -96 -54 -158.5t-150 -62.5q-90 0 -142.5 60.5t-52.5 147.5q0 96 53.5 159t149.5 63zM255 321q-36 0 -55 -27.5t-19 -73.5q0 -113 82 -113q36 0 55 27.5t19 72.5q0 114 -82 114z" />
    <glyph glyph-name="waw.isol" unicode="&#x648;" horiz-adv-x="479" arabic-form="isolated" 
d="M430 268q9 -43 9 -78l-2 -148q0 -31 -13 -63.5t-41 -66.5t-82 -55.5t-126 -21.5q-36 0 -58 17t-22 42v49q139 3 196 58q-256 13 -256 207q0 96 54 159t150 63q37 0 74 -13q47 -19 77.5 -59.5t39.5 -89.5zM157 221q0 -60 31.5 -79t84.5 -19h42v22q-1 42 -2.5 64t-9 53
t-25.5 45.5t-47 14.5q-36 0 -55 -28t-19 -73z" />
    <glyph glyph-name="alefmaksura.isol" unicode="&#x649;" horiz-adv-x="892" arabic-form="isolated" 
d="M748 0h-43v304q-38 -2 -65.5 -15.5t-43.5 -31.5t-26.5 -48t-14.5 -55t-8 -62q-4 -55 -14 -94.5t-32 -75t-62 -53.5t-98 -18q-134 0 -202.5 66.5t-68.5 193.5q0 80 34.5 127t93.5 47l57 -5q-69 -77 -69 -161q0 -36 4.5 -58.5t20 -45.5t49.5 -34t88 -12q20 0 34.5 8.5
t22 18.5t12.5 34.5t6 38t4 47.5q6 135 49 207q72 106 249 106h102v-342q0 -42 -23 -64.5t-56 -22.5z" />
    <glyph glyph-name="yeh.isol" unicode="&#x64a;" horiz-adv-x="892" arabic-form="isolated" 
d="M748 0h-43v304q-38 -2 -65.5 -15.5t-43.5 -31.5t-26.5 -48t-14.5 -55t-8 -62q-4 -55 -14 -94.5t-32 -75t-62 -53.5t-98 -18q-134 0 -202.5 66.5t-68.5 193.5q0 80 34.5 127t93.5 47l57 -5q-69 -77 -69 -161q0 -36 4.5 -58.5t20 -45.5t49.5 -34t88 -12q20 0 34.5 8.5
t22 18.5t12.5 34.5t6 38t4 47.5q6 135 49 207q72 106 249 106h102v-342q0 -42 -23 -64.5t-56 -22.5zM398 -325q-28 0 -48.5 20t-20.5 48q0 29 20 48t49 19t49 -19t20 -48q0 -28 -20.5 -48t-48.5 -20zM246 -325q-28 0 -48 20t-20 48q0 29 19.5 48t48.5 19q28 0 48 -19t20 -48
q0 -28 -20.5 -48t-47.5 -20z" />
    <glyph glyph-name="fathatan" unicode="&#xfe70;" arabic-form="isolated" 
d="M42 -100l1 -27q-28 -1 -78.5 -4t-75.5 -4q-13 -1 -19.5 10t-7.5 20.5t-1 23.5q22 0 75 3.5t75 3.5q29 1 31 -26zM42 -29l1 -27q-28 -1 -78.5 -4t-75.5 -4q-13 -1 -19.5 10t-7.5 20.5t-1 23.5q22 0 75 3t75 4q29 1 31 -26z" />
    <glyph glyph-name="dammatan" unicode="&#xfe72;" arabic-form="isolated" 
d="M-3 35q28 0 48 -19t20 -49q0 -34 -24.5 -57t-63.5 -31.5t-63 -11t-47 -2.5q-17 0 -23.5 10t-8.5 36h17q13 7 13 29q0 19 -22 19q-7 0 -21 -25q-20 20 -20 39q0 14 13 24t33 10q32 0 50.5 -20.5t18.5 -47.5q0 -12 -4 -24q1 0 12.5 1.5t16.5 2.5q-14 22 -14 41
q0 32 20.5 53.5t48.5 21.5zM-1 -62q15 2 15 23q0 27 -20 27q-15 0 -15 -23q0 -12 6 -19.5t14 -7.5z" />
    <glyph glyph-name="kasratan" unicode="&#xfe74;" arabic-form="isolated" 
d="M42 -97l1 -27q-28 -1 -78.5 -4t-75.5 -4q-13 -1 -19.5 10t-7.5 20.5t-1 23.5q22 0 75 3t75 4q29 1 31 -26zM42 -26l1 -27q-28 -1 -78.5 -4t-75.5 -4q-13 -1 -19.5 10t-7.5 20.5t-1 23.5q22 1 75 3.5t75 3.5q29 1 31 -26z" />
    <glyph glyph-name="fatha" unicode="&#xfe76;" arabic-form="isolated" 
d="M42 -60l1 -27q-28 -1 -78.5 -4t-75.5 -4q-13 -1 -19.5 10t-7.5 20.5t-1 23.5q22 1 75 4t75 3q29 1 31 -26z" />
    <glyph glyph-name="damma" unicode="&#xfe78;" arabic-form="isolated" 
d="M11 -63q13 3 13 25q0 27 -18 27q-15 0 -15 -25q0 -27 20 -27zM8 35q29 0 48.5 -18.5t19.5 -48.5q0 -99 -189 -103q-12 0 -18.5 6t-8 14t-3.5 26l33 1q46 3 63 6q-12 16 -12 42q0 32 19 53.5t48 21.5z" />
    <glyph glyph-name="kasra" unicode="&#xfe7a;" arabic-form="isolated" 
d="M42 -26l1 -27q-28 -1 -78.5 -4t-75.5 -4q-13 -1 -19.5 10t-7.5 20.5t-1 23.5q22 1 75 3.5t75 3.5q29 1 31 -26z" />
    <glyph glyph-name="shadda" unicode="&#xfe7c;" arabic-form="isolated" 
d="M-110 11l6 -80q1 -17 12 -17q8 0 8 14q0 6 -1.5 23t-1.5 25q0 21 7 27.5t25 7.5h18l7 -82q2 -15 12 -15q8 0 8 17q0 5 -2 21t-2 25q0 44 49 28l8 -79q2 -21 -13 -41t-44 -20q-23 0 -40 12q-11 -10 -33 -10q-27 0 -44.5 17.5t-21.5 47.5q-5 40 -5 50q0 32 48 29z" />
    <glyph glyph-name="sukun" unicode="&#xfe7e;" arabic-form="isolated" 
d="M-34 47q37 0 57 -25t20 -58q0 -36 -25.5 -61t-59.5 -25q-36 0 -56 26t-20 58q0 38 24.5 61.5t59.5 23.5zM-37 -5q-23 -3 -23 -36q0 -30 22 -30q21 0 21 40q0 23 -20 26z" />
    <glyph glyph-name="alef_wasla.isol" unicode="&#x671;" horiz-adv-x="307" arabic-form="isolated" 
d="M233 0h-57q-33 0 -56.5 22.5t-23.5 64.5v513h62q27 0 51 -19.5t24 -48.5v-532zM40 686v23h25v77h21q23 0 32 -12q30 33 68 33q41 0 61 -32t20 -71q0 -53 -30 -53h-157q-40 0 -40 35zM179 745q-27 0 -44 -36h75q-2 36 -31 36z" />
    <glyph glyph-name="tteh.isol" unicode="&#x679;" horiz-adv-x="780" arabic-form="isolated" 
d="M646 349q89 0 89 -89v-86q0 -75 -45.5 -123.5t-130.5 -50.5h-300q-54 0 -93 18t-59 42t-31 58.5t-13.5 56.5t-2.5 47q0 170 115 170h71q-39 -34 -58 -77t-19 -77q0 -115 78 -115h303q47 3 47 57v169h49zM320 435v22h24v40v50v37v26h21q20 0 28.5 -7.5t8.5 -27.5v-48
q30 28 64 28q41 0 61 -32t20 -71q0 -52 -30 -52h-158q-39 0 -39 35zM458 493q-27 0 -44 -36h75q-2 36 -31 36z" />
    <glyph glyph-name="peh.isol" unicode="&#x67e;" horiz-adv-x="780" arabic-form="isolated" 
d="M646 350q89 0 89 -89v-87q0 -75 -45.5 -123t-130.5 -51h-300q-54 0 -93 18t-59 42t-31.5 58.5t-13.5 56.5t-2 47q0 170 115 170h71q-39 -34 -58 -76.5t-19 -77.5q0 -115 78 -115h302q48 4 48 57v170h49zM347 -49q-28 0 -48.5 -20.5t-20.5 -48.5t20.5 -49t48.5 -21
q27 0 47.5 21t20.5 49t-20.5 48.5t-47.5 20.5zM498 -49q-27 0 -47.5 -20.5t-20.5 -48.5t20.5 -49t47.5 -21q28 0 49 21t21 49t-21 48.5t-49 20.5zM422 -177q-26 0 -44.5 -19t-18.5 -44q0 -26 18.5 -45t44.5 -19q25 0 44 19t19 45q0 25 -19 44t-44 19z" />
    <glyph glyph-name="tcheh.isol" unicode="&#x686;" horiz-adv-x="574" arabic-form="isolated" 
d="M340 1q-84 0 -125.5 -31.5t-41.5 -108.5q0 -118 102 -130q-28 -44 -74 -44q-62 0 -101.5 53t-39.5 140q0 135 72.5 189t212.5 54h55q-48 182 -155 182q-71 0 -146 -70v68q0 31 5.5 51t22 38.5t51 27.5t88.5 9q70 0 123.5 -36t84 -94t45.5 -123t15 -131q0 -48 -19 -140
q-19 50 -67 73t-108 23zM269 -49q27 0 47 -20.5t20 -49.5q0 -27 -20 -47t-47 -20q-28 0 -48.5 20t-20.5 47q0 29 20.5 49.5t48.5 20.5zM420 -49q28 0 49 -20.5t21 -49.5q0 -27 -21 -47t-49 -20q-27 0 -47.5 20t-20.5 47q0 29 20.5 49.5t47.5 20.5zM344 -176q25 0 44 -19
t19 -44q0 -26 -19 -45.5t-44 -19.5q-26 0 -44.5 19.5t-18.5 45.5q0 25 18.5 44t44.5 19z" />
    <glyph glyph-name="ddal.isol" unicode="&#x688;" horiz-adv-x="472" arabic-form="isolated" 
d="M109 505v22h24v127v26h21q20 0 28.5 -7.5t8.5 -27.5v-48q30 28 64 28q41 0 61 -32t20 -71q0 -52 -30 -52h-158q-39 0 -39 35zM247 563q-27 0 -44 -36h75q-2 36 -31 36zM432 108v-108h-321q-31 0 -48.5 21t-17.5 50v52h260q-5 71 -49.5 122t-114.5 51q-25 0 -74 -8l35 56
q37 59 98 59q40 0 81.5 -20t69.5 -53q81 -103 81 -222z" />
    <glyph glyph-name="uni0691" unicode="&#x691;" horiz-adv-x="373" arabic-form="isolated" 
d="M96 435v22h23q1 38 1 127v26h21q20 0 28.5 -7.5t8.5 -27.5v-48q30 28 64 28q41 0 61 -32t20 -71q0 -52 -30 -52h-158q-39 0 -39 35zM234 493q-27 0 -44 -36h75q-2 36 -31 36zM281 -23q0 -57 -43 -99.5t-107 -42.5q-41 0 -66 19t-25 52v54q38 -6 51 -6q34 0 44 15.5
t10 54.5v325h54q46 0 64 -20t18 -68v-284z" />
    <glyph glyph-name="uni0698" unicode="&#x698;" horiz-adv-x="394" arabic-form="isolated" 
d="M123 401q-28 0 -48.5 20.5t-20.5 48.5t20.5 49t48.5 21q27 0 47.5 -21t20.5 -49t-20.5 -48.5t-47.5 -20.5zM274 401q-27 0 -47.5 20.5t-20.5 48.5t20.5 49t47.5 21q28 0 49 -21t21 -49t-21 -48.5t-49 -20.5zM198 529q-26 0 -44.5 19t-18.5 44q0 26 18.5 45t44.5 19
q25 0 44 -19t19 -45q0 -25 -19 -44t-44 -19zM281 -23q0 -57 -43 -99.5t-107 -42.5q-41 0 -66 19t-25 52v54q38 -6 51 -6q34 0 44 15.5t10 54.5v325h54q46 0 64 -20t18 -68v-284z" />
    <glyph glyph-name="veh.isol" unicode="&#x6a4;" horiz-adv-x="839" arabic-form="isolated" 
d="M799 190v-190h-540q-54 0 -93 18t-59 42t-31.5 58.5t-13.5 56.5t-2 47q0 170 115 170h71q-39 -34 -58 -77t-19 -77q0 -115 78 -115h166q-18 39 -18 85q0 96 54 159t150 63q91 0 145.5 -67.5t54.5 -172.5zM590 322q-36 0 -54.5 -27.5t-18.5 -73.5q0 -28 9.5 -47.5
t22 -29.5t35.5 -15t36.5 -5.5t39.5 -0.5h16v56q0 43 -4.5 70.5t-24.5 50t-57 22.5zM524 470q-28 0 -48.5 20.5t-20.5 48.5t20.5 49t48.5 21q27 0 47.5 -21t20.5 -49t-20.5 -48.5t-47.5 -20.5zM675 470q-27 0 -47.5 20.5t-20.5 48.5t20.5 49t47.5 21q28 0 49 -21t21 -49
t-21 -48.5t-49 -20.5zM599 598q-26 0 -44.5 19t-18.5 44q0 26 18.5 45t44.5 19q25 0 44 -19t19 -45q0 -25 -19 -44t-44 -19z" />
    <glyph glyph-name="kheh.isol" unicode="&#x6a9;" horiz-adv-x="821" arabic-form="isolated" 
d="M774 658q12 -13 12 -41q0 -30 -21 -47l-231 -173q88 -22 137 -104.5t53 -184.5v-108h-466q-45 0 -80 12t-55.5 33t-34 43t-19 50t-7.5 46t-2 38q0 170 115 170h71q-39 -34 -57.5 -76.5t-18.5 -77.5q0 -115 77 -115h351q-1 20 -6 39t-12 33t-14.5 26t-16 21t-14.5 15
t-11 10l-6 4q-43 25 -84 25q-27 0 -53 -5l-25 35q-16 20 -16 42q0 34 32 59l368 275z" />
    <glyph glyph-name="Gaf.isol" unicode="&#x6af;" horiz-adv-x="821" arabic-form="isolated" 
d="M774 658q12 -13 12 -41q0 -30 -21 -47l-231 -173q88 -22 137 -104.5t53 -184.5v-108h-466q-45 0 -80 12t-55.5 33t-34 43t-19 50t-7.5 46t-2 38q0 170 115 170h71q-39 -34 -57.5 -76.5t-18.5 -77.5q0 -115 77 -115h351q-1 20 -6 39t-12 33t-14.5 26t-16 21t-14.5 15
t-11 10l-6 4q-43 25 -84 25q-27 0 -53 -5l-25 35q-16 20 -16 42q0 34 32 59l368 275zM661 817l26 -35q12 -19 12 -34q0 -28 -23 -51q-128 -96 -376 -284l-18 24q-22 27 -22 53t17 40q154 120 384 287z" />
    <glyph glyph-name="ghunna.isol" unicode="&#x6ba;" horiz-adv-x="672" arabic-form="isolated" 
d="M545 349q87 0 87 -89v-228q-4 -79 -96.5 -147t-195.5 -68q-121 0 -200.5 86t-79.5 210q0 70 29.5 113t84.5 43h72q-40 -34 -58.5 -77t-18.5 -78q0 -68 44.5 -120t111.5 -52q83 0 127 41.5t44 110.5v255h49z" />
    <glyph glyph-name="uni06BE" unicode="&#x6be;" horiz-adv-x="643" arabic-form="isolated" 
d="M181 7l-1 -62h-47q-73 0 -73 96q0 30 16 56t59 26h17q-24 39 -24 82q0 70 43 109t109 39q79 0 117.5 -54t37.5 -129q0 -10 -0.5 -24t-0.5 -23h42q3 21 3 44q0 38 -10 74.5t-30.5 70t-59 54t-89.5 20.5q-72 0 -146 -70v69q0 29 5.5 49t21.5 38.5t51 27.5t88 9
q80 0 139 -31.5t91.5 -84t47.5 -112.5t15 -126q0 -91 -27 -155h-68q-73 0 -113 22q-25 -22 -66 -22h-7q-99 0 -141 7zM231 192q0 -4 0.5 -8.5t5.5 -16t14 -20t29 -16t48 -8.5v1q1 29 0 45.5t-5 40t-16 34.5t-31 11q-45 0 -45 -63z" />
    <glyph glyph-name="hehhamza" unicode="&#x6c0;" horiz-adv-x="494" arabic-form="isolated" 
d="M263 429q89 0 142.5 -61.5t53.5 -147.5q0 -96 -54 -158.5t-150 -62.5q-90 0 -142.5 60.5t-52.5 147.5q0 96 53.5 159t149.5 63zM255 321q-36 0 -55 -27.5t-19 -73.5q0 -113 82 -113q36 0 55 27.5t19 72.5q0 114 -82 114zM259 523h89v-25q0 -11 -8.5 -19.5t-21.5 -8.5
h-119q-11 0 -19 9t-8 19v25h28q-1 4 -1 17v7q0 34 20 56.5t54 22.5q54 0 64 -47q0 -17 -22 -47q-6 22 -16.5 33.5t-15.5 12.5t-13 1q-15 0 -17.5 -23t6.5 -33z" />
    <glyph glyph-name="uni06C1" unicode="&#x6c1;" horiz-adv-x="494" arabic-form="isolated" 
d="M263 429q89 0 142.5 -61.5t53.5 -147.5q0 -96 -54 -158.5t-150 -62.5q-90 0 -142.5 60.5t-52.5 147.5q0 96 53.5 159t149.5 63zM255 321q-36 0 -55 -27.5t-19 -73.5q0 -113 82 -113q36 0 55 27.5t19 72.5q0 114 -82 114z" />
    <glyph glyph-name="uni06CC" unicode="&#x6cc;" horiz-adv-x="892" arabic-form="isolated" 
d="M695 0v304q-38 -2 -65.5 -15.5t-43.5 -31.5t-26.5 -48t-14.5 -55t-8 -62q-4 -55 -14 -94.5t-32 -75t-62 -53.5t-98 -18q-134 0 -202.5 66.5t-68.5 193.5q0 80 34.5 127t93.5 47l57 -5q-69 -77 -69 -161q0 -36 4.5 -58.5t20 -45.5t49.5 -34t88 -12q20 0 34.5 8.5t22 18.5
t12.5 34.5t6 38t4 47.5q6 135 49 207q72 106 249 106h102v-306h85v-123h-207z" />
    <glyph glyph-name="yehbarree" unicode="&#x6d2;" horiz-adv-x="541" arabic-form="isolated" 
d="M546 123v-123h-317q-113 -9 -153 -90q-16 69 -16 132q0 53 8.5 105.5t29 104t50.5 90.5t76 63t102 24q81 0 124 -35.5t43 -90.5v-68q-74 70 -145 70q-33 0 -61 -18.5t-46.5 -49.5t-29 -57.5t-18.5 -56.5h353z" />
    <glyph glyph-name="uni06D3" unicode="&#x6d3;" horiz-adv-x="541" arabic-form="isolated" 
d="M323 529h90v-25q0 -11 -8.5 -19.5t-21.5 -8.5h-119q-12 0 -20 9t-8 19v25h29q-1 4 -1 17v7q0 34 19.5 56.5t53.5 22.5q55 0 65 -47q0 -17 -22 -47q-5 17 -11.5 27.5t-14 14.5t-11 4.5t-9.5 0.5q-15 0 -17.5 -23t6.5 -33zM546 0v123h-353q8 30 18.5 56.5t29 57.5
t46.5 49.5t61 18.5q71 0 145 -70v68q0 55 -43 90.5t-124 35.5q-56 0 -102 -24t-76 -63t-50.5 -90.5t-29 -104t-8.5 -105.5q0 -63 16 -132q40 81 153 90h317z" />
    <glyph glyph-name="alef_wasla.fina" unicode="&#x671;" horiz-adv-x="306" arabic-form="final" 
d="M316 123v-123q-227 0 -227 174v426h62q28 0 51.5 -20t23.5 -49v-368q5 -37 47 -40h43zM35 686v23h25v77h20q24 0 32 -12q31 33 69 33q41 0 61 -32t20 -71q0 -53 -30 -53h-157q-40 0 -40 35zM174 745q-26 0 -45 -36h76q-2 36 -31 36z" />
    <glyph glyph-name="peh.fina" unicode="&#x67e;" horiz-adv-x="844" arabic-form="final" 
d="M831 123h23v-123h-38q-86 0 -139 41q-50 -41 -117 -41h-302q-53 0 -92 18t-58.5 42t-31 58.5t-14 57t-2.5 46.5q0 170 115 170h72q-39 -34 -58 -76.5t-19 -77.5q0 -115 77 -115h303q48 4 48 57v170h49q87 0 87 -89v-57q3 -45 24.5 -63t72.5 -18zM347 -49
q-28 0 -48.5 -20.5t-20.5 -48.5t20.5 -49t48.5 -21q27 0 47.5 21t20.5 49t-20.5 48.5t-47.5 20.5zM498 -49q-27 0 -47.5 -20.5t-20.5 -48.5t20.5 -49t47.5 -21q28 0 49 21t21 49t-21 48.5t-49 20.5zM422 -177q-26 0 -44.5 -19t-18.5 -44q0 -26 18.5 -45t44.5 -19q25 0 44 19
t19 45q0 25 -19 44t-44 19z" />
    <glyph glyph-name="peh.init" unicode="&#x67e;" horiz-adv-x="314" arabic-form="initial" 
d="M178 349q86 0 86 -89v-86q0 -75 -44 -123t-129 -51h-101v123h91q48 4 48 57v169h49zM67 -49q27 0 47 -20.5t20 -49.5q0 -27 -20 -47t-47 -20q-28 0 -48.5 20t-20.5 47q0 29 20.5 49.5t48.5 20.5zM218 -49q28 0 49 -20.5t21 -49.5q0 -27 -21 -47t-49 -20q-27 0 -47.5 20
t-20.5 47q0 29 20.5 49.5t47.5 20.5zM142 -176q25 0 44 -19t19 -44q0 -26 -19 -45.5t-44 -19.5q-26 0 -44.5 19.5t-18.5 45.5q0 25 18.5 44t44.5 19z" />
    <glyph glyph-name="peh.medi" unicode="&#x67e;" horiz-adv-x="326" arabic-form="medial" 
d="M238 261v-56q2 -44 22.5 -63t75.5 -19v-123h-17q-89 0 -137 40q-45 -37 -119 -40h-63v123h54q48 3 48 56v170h48q88 0 88 -88zM74 -49q27 0 47 -20.5t20 -49.5q0 -27 -20 -47t-47 -20q-28 0 -48.5 20t-20.5 47q0 29 20.5 49.5t48.5 20.5zM225 -49q28 0 49 -20.5t21 -49.5
q0 -27 -21 -47t-49 -20q-27 0 -47.5 20t-20.5 47q0 29 20.5 49.5t47.5 20.5zM149 -176q25 0 44 -19t19 -44q0 -26 -19 -45.5t-44 -19.5q-26 0 -44.5 19.5t-18.5 45.5q0 25 18.5 44t44.5 19z" />
    <glyph glyph-name="uniFB67" unicode="&#x679;" horiz-adv-x="844" arabic-form="final" 
d="M831 123h23v-123h-38q-90 0 -138 40q-45 -37 -118 -40h-302q-53 0 -92 18t-58.5 42t-31 58t-14 56.5t-2.5 47.5q0 78 27.5 124t87.5 46h72q-39 -34 -58 -77t-19 -77q0 -115 77 -115h304q47 3 47 56v170h49q87 0 87 -89v-57q3 -45 24.5 -62.5t72.5 -17.5zM319 435v22h24
v40v50v37v26h21q20 0 28.5 -7.5t8.5 -27.5v-48q30 28 64 28q41 0 61 -32t20 -71q0 -52 -30 -52h-158q-39 0 -39 35zM457 493q-27 0 -44 -36h75q-2 36 -31 36z" />
    <glyph glyph-name="uniFB68" unicode="&#x679;" horiz-adv-x="314" arabic-form="initial" 
d="M177 349q87 0 87 -89v-86q0 -75 -44.5 -123t-129.5 -51h-100v123h90q48 4 48 57v169h49zM85 435v22h24v40v50v37v26h21q20 0 28.5 -7.5t8.5 -27.5v-48q30 28 64 28q41 0 61 -32t20 -71q0 -52 -30 -52h-158q-39 0 -39 35zM223 493q-27 0 -44 -36h75q-2 36 -31 36z" />
    <glyph glyph-name="uniFB69" unicode="&#x679;" horiz-adv-x="326" arabic-form="medial" 
d="M238 261v-56q2 -44 24 -62.5t74 -19.5v-123h-17q-89 0 -137 40q-45 -37 -119 -40h-63v123h54q48 3 48 56v170h48q88 0 88 -88zM59 435v22h24v40v50v37v26h21q20 0 28.5 -7.5t8.5 -27.5v-48q30 28 64 28q41 0 61 -32t20 -71q0 -52 -30 -52h-158q-39 0 -39 35zM197 493
q-27 0 -44 -36h75q-2 36 -31 36z" />
    <glyph glyph-name="veh.fina" unicode="&#x6a4;" horiz-adv-x="879" arabic-form="final" 
d="M856 123h33v-123h-48q-76 0 -114 27q-44 -27 -113 -27h-355q-54 0 -93 18t-59 42t-31.5 58.5t-13.5 56.5t-2 47q0 170 115 170h72q-39 -34 -58.5 -77t-19.5 -77q0 -115 79 -115h165q-17 37 -17 85q0 96 53.5 159t149.5 63q91 0 146.5 -68t53.5 -172q0 -10 -0.5 -28
t-0.5 -29q13 -10 58 -10zM591 322q-36 0 -55 -27.5t-19 -73.5q0 -28 9.5 -47.5t22 -29.5t35.5 -15t36.5 -5.5t39.5 -0.5h16v56q0 32 -2.5 53.5t-10.5 44t-26 34t-46 11.5zM524 470q-28 0 -48.5 20.5t-20.5 48.5t20.5 49t48.5 21q27 0 47.5 -21t20.5 -49t-20.5 -48.5
t-47.5 -20.5zM675 470q-27 0 -47.5 20.5t-20.5 48.5t20.5 49t47.5 21q28 0 49 -21t21 -49t-21 -48.5t-49 -20.5zM599 598q-26 0 -44.5 19t-18.5 44q0 26 18.5 45t44.5 19q25 0 44 -19t19 -45q0 -25 -19 -44t-44 -19z" />
    <glyph glyph-name="veh.init" unicode="&#x6a4;" horiz-adv-x="505" arabic-form="initial" 
d="M465 190v-190h-475v123h87q-16 39 -16 85q0 96 54 159t150 63q91 0 145.5 -67.5t54.5 -172.5zM257 322q-36 0 -55 -27.5t-19 -73.5q0 -28 9.5 -47.5t22 -29.5t35.5 -15t36.5 -5.5t39.5 -0.5h16v56q0 32 -2.5 53.5t-10.5 44t-26 34t-46 11.5zM190 470q-28 0 -48.5 20.5
t-20.5 48.5t20.5 49t48.5 21q27 0 47.5 -21t20.5 -49t-20.5 -48.5t-47.5 -20.5zM341 470q-27 0 -47.5 20.5t-20.5 48.5t20.5 49t47.5 21q28 0 49 -21t21 -49t-21 -48.5t-49 -20.5zM265 598q-26 0 -44.5 19t-18.5 44q0 26 18.5 45t44.5 19q25 0 44 -19t19 -45q0 -25 -19 -44
t-44 -19z" />
    <glyph glyph-name="veh.medi" unicode="&#x6a4;" horiz-adv-x="548" arabic-form="medial" 
d="M470 123h83v-123h-558v123h87q-15 37 -15 85q0 96 53.5 159t149.5 63q91 0 145.5 -67.5t54.5 -172.5v-67zM262 322q-36 0 -55 -27.5t-19 -73.5q0 -28 10 -47.5t22 -29.5t35 -15t37 -5.5t40 -0.5h16v56q0 31 -3 53.5t-11 44.5t-26 33.5t-46 11.5zM195 470
q-28 0 -48.5 20.5t-20.5 48.5t20.5 49t48.5 21q27 0 47.5 -21t20.5 -49t-20.5 -48.5t-47.5 -20.5zM346 470q-27 0 -47.5 20.5t-20.5 48.5t20.5 49t47.5 21q28 0 49 -21t21 -49t-21 -48.5t-49 -20.5zM270 598q-26 0 -44.5 19t-18.5 44q0 26 18.5 45t44.5 19q25 0 44 -19
t19 -45q0 -25 -19 -44t-44 -19z" />
    <glyph glyph-name="tcheh.fina" unicode="&#x686;" horiz-adv-x="619" arabic-form="final" 
d="M60 -120q0 70 21 119.5t60 75.5t85 37.5t106 11.5q41 0 70 -2q-11 59 -56.5 120.5t-100.5 61.5q-73 0 -145 -71v70q0 30 5 49.5t21 38.5t51 28t89 9q186 0 253 -266l-1 1q15 -40 88 -40h23v-123h-38q-62 0 -98 25q-39 -25 -113 -25h-48q-87 -2 -123 -37t-36 -102
q0 -118 102 -130q-29 -44 -74 -44q-62 0 -101.5 53t-39.5 140zM270 -48q27 0 47 -20.5t20 -49.5q0 -27 -20 -47t-47 -20q-28 0 -48.5 20t-20.5 47q0 29 20.5 49.5t48.5 20.5zM421 -48q28 0 49 -20.5t21 -49.5q0 -27 -21 -47t-49 -20q-27 0 -47.5 20t-20.5 47q0 29 20.5 49.5
t47.5 20.5zM345 -175q25 0 44 -19t19 -44q0 -26 -19 -45.5t-44 -19.5q-26 0 -44.5 19.5t-18.5 45.5q0 25 18.5 44t44.5 19z" />
    <glyph glyph-name="tcheh.init" unicode="&#x686;" horiz-adv-x="541" arabic-form="initial" 
d="M154 -49q27 0 47 -20.5t20 -49.5q0 -27 -20 -47t-47 -20q-28 0 -48.5 20t-20.5 47q0 29 20.5 49.5t48.5 20.5zM305 -49q28 0 49 -20.5t21 -49.5q0 -27 -21 -47t-49 -20q-27 0 -47.5 20t-20.5 47q0 29 20.5 49.5t47.5 20.5zM229 -176q25 0 44 -19t19 -44q0 -26 -19 -45.5
t-44 -19.5q-26 0 -44.5 19.5t-18.5 45.5q0 25 18.5 44t44.5 19zM-10 0v123h353q-8 30 -18.5 56.5t-29 57.5t-46.5 49.5t-61 18.5q-71 0 -145 -70v68q0 55 43 90.5t124 35.5q56 0 102 -24t76 -63t50.5 -90.5t29 -104t8.5 -105.5q0 -63 -16 -132q-40 81 -153 90h-317z" />
    <glyph glyph-name="tcheh.medi" unicode="&#x686;" horiz-adv-x="555" arabic-form="medial" 
d="M153 -49q27 0 47 -20.5t20 -49.5q0 -27 -20 -47t-47 -20q-28 0 -48.5 20t-20.5 47q0 29 20.5 49.5t48.5 20.5zM304 -49q28 0 49 -20.5t21 -49.5q0 -27 -21 -47t-49 -20q-27 0 -47.5 20t-20.5 47q0 29 20.5 49.5t47.5 20.5zM228 -176q25 0 44 -19t19 -44q0 -26 -19 -45.5
t-44 -19.5q-26 0 -44.5 19.5t-18.5 45.5q0 25 18.5 44t44.5 19zM-5 0v123h350q-50 182 -156 182q-71 0 -146 -70v68q0 56 42 90.5t125 34.5q48 0 89 -18.5t69 -48.5t50 -70.5t34.5 -81.5t19.5 -86h88v-123h-565z" />
    <glyph glyph-name="ddal.fina" unicode="&#x688;" horiz-adv-x="532" arabic-form="final" 
d="M109 505v22h24v127v26h21q20 0 28.5 -7.5t8.5 -27.5v-48q30 28 64 28q41 0 61 -32t20 -71q0 -52 -30 -52h-158q-39 0 -39 35zM247 563q-27 0 -44 -36h75q-2 36 -31 36zM518 123h24v-123h-20q-43 0 -69 6t-50 26q-36 -32 -70 -32h-222q-32 0 -49 21t-17 50v52h260
q-6 70 -50.5 121.5t-113.5 51.5q-13 0 -64 -8l24 56q38 59 98 59q21 0 44 -6q65 -19 109.5 -71.5t66.5 -126.5v1q17 -51 32 -64t67 -13z" />
    <glyph glyph-name="uniFB8B" unicode="&#x698;" horiz-adv-x="357" arabic-form="final" 
d="M123 401q-28 0 -48.5 20.5t-20.5 48.5t20.5 49t48.5 21q27 0 47.5 -21t20.5 -49t-20.5 -48.5t-47.5 -20.5zM274 401q-27 0 -47.5 20.5t-20.5 48.5t20.5 49t47.5 21q28 0 49 -21t21 -49t-21 -48.5t-49 -20.5zM198 529q-26 0 -44.5 19t-18.5 44q0 26 18.5 45t44.5 19
q25 0 44 -19t19 -45q0 -25 -19 -44t-44 -19zM362 0h-91v-23q0 -58 -40.5 -100t-104.5 -42q-41 0 -66 19t-25 52v54q50 -6 51 -6q35 0 45 18.5t10 64.5v312h53q46 0 64 -20t18 -68v-138h86v-123z" />
    <glyph glyph-name="uniFB8D" unicode="&#x691;" horiz-adv-x="357" arabic-form="final" 
d="M79 435v22h24v40v50v37v26h21q20 0 28.5 -7.5t8.5 -27.5v-48q30 28 64 28q41 0 61 -32t20 -71q0 -52 -30 -52h-158q-39 0 -39 35zM217 493q-27 0 -44 -36h75q-2 36 -31 36zM362 0h-91v-23q0 -58 -40.5 -100t-104.5 -42q-41 0 -66 19t-25 52v54q50 -6 51 -6q35 0 45 18.5
t10 64.5v312h53q46 0 64 -20t18 -68v-138h86v-123z" />
    <glyph glyph-name="kheh.fina" unicode="&#x6a9;" horiz-adv-x="810" arabic-form="final" 
d="M724 123h91v-123h-557q-45 0 -80 12t-55.5 33t-34 43t-19 50t-7.5 46t-2 38q0 170 115 170h72q-39 -34 -58.5 -77t-19.5 -77q0 -115 78 -115h350q-2 45 -22 82t-34.5 50t-20.5 15q-42 26 -86 26q-17 0 -53 -6l-26 36q-14 19 -14 42q0 35 32 59l367 275l33 -44
q14 -18 14 -41q0 -29 -23 -47l-231 -173q43 -17 70 -34.5t54 -47.5t43 -77.5t24 -114.5z" />
    <glyph glyph-name="kheh.init" unicode="&#x6a9;" horiz-adv-x="529" arabic-form="initial" 
d="M471 658q13 -16 13 -41q0 -31 -22 -47l-231 -173q88 -18 137 -102.5t53 -186.5v-108h-431v123h306q-2 28 -10.5 53.5t-19 41.5t-22 28.5t-18.5 17.5t-9 6q-42 26 -86 26q-26 0 -52 -5l-27 35q-15 21 -15 42q0 34 33 59l369 275z" />
    <glyph glyph-name="kheh.medi" unicode="&#x6a9;" horiz-adv-x="501" arabic-form="medial" 
d="M432 702l34 -44q13 -15 13 -41q0 -28 -22 -47q-22 -17 -65.5 -49.5t-63.5 -47.5q-21 -15 -58.5 -43t-44.5 -33q7 -1 24 -7t46 -25.5t54.5 -47.5t45 -79.5t21.5 -114.5h90v-123h-511v123h295q-2 29 -10.5 54.5t-18 41t-22 29t-17.5 17t-9 6.5v-1q-42 26 -86 26
q-26 0 -52 -5q-2 2 -8 9t-7 9q-27 33 -27 59q0 33 32 59q67 51 198.5 149t168.5 126z" />
    <glyph glyph-name="Gaf.fina" unicode="&#x6af;" horiz-adv-x="810" arabic-form="final" 
d="M724 123h91v-123h-557q-45 0 -80 12t-55.5 33t-34 43t-19 50t-7.5 46t-2 38q0 170 115 170h72q-39 -34 -58.5 -77t-19.5 -77q0 -115 78 -115h350q-2 45 -22 82t-34.5 50t-20.5 15q-42 26 -86 26q-17 0 -53 -6l-26 36q-14 19 -14 42q0 35 32 59l367 275l33 -44
q14 -18 14 -41q0 -29 -23 -47l-231 -173q43 -17 70 -34.5t54 -47.5t43 -77.5t24 -114.5zM661 817l26 -35q12 -19 12 -34q0 -28 -23 -51q-128 -96 -376 -284l-18 24q-22 27 -22 53t17 40q154 120 384 287z" />
    <glyph glyph-name="Gaf.init" unicode="&#x6af;" horiz-adv-x="515" arabic-form="initial" 
d="M467 658q13 -16 13 -41q0 -31 -22 -47l-231 -173q88 -18 137 -102.5t53 -186.5v-108h-431v123h306q-2 28 -10.5 53.5t-19 41.5t-22 28.5t-18.5 17.5t-9 6q-42 26 -86 26q-26 0 -52 -5l-27 35q-15 21 -15 42q0 34 33 59l369 275zM356 817l26 -35q12 -19 12 -34
q0 -28 -23 -51q-128 -96 -376 -284l-18 24q-22 27 -22 53t17 40q154 120 384 287z" />
    <glyph glyph-name="Gaf.medi" unicode="&#x6af;" horiz-adv-x="501" arabic-form="medial" 
d="M356 817l26 -35q12 -19 12 -34q0 -28 -23 -51q-128 -96 -376 -284l-18 24q-22 27 -22 53t17 40q154 120 384 287zM432 702l34 -44q13 -15 13 -41q0 -28 -22 -47q-22 -17 -65.5 -49.5t-63.5 -47.5q-21 -15 -58.5 -43t-44.5 -33q7 -1 24 -7t46 -25.5t54.5 -47.5t45 -79.5
t21.5 -114.5h90v-123h-511v123h295q-2 29 -10.5 54.5t-18 41t-22 29t-17.5 17t-9 6.5v-1q-42 26 -86 26q-26 0 -52 -5q-2 2 -8 9t-7 9q-27 33 -27 59q0 33 32 59q67 51 198.5 149t168.5 126z" />
    <glyph glyph-name="ghunna.fina" unicode="&#x6ba;" horiz-adv-x="714" arabic-form="final" 
d="M701 123h23v-123h-39q-35 0 -58 6q-20 -73 -107 -130t-181 -57q-121 0 -200 85.5t-79 209.5q0 71 29 114t85 43h71q-39 -34 -57.5 -77t-18.5 -79q0 -68 44 -120t111 -52q83 0 127 41.5t44 110.5v254h49q88 0 88 -88v-124q21 -14 69 -14z" />
    <glyph glyph-name="hehhamza.fina" unicode="&#x6c0;" horiz-adv-x="564" arabic-form="final" 
d="M261 524h89v-25q0 -11 -8.5 -19.5t-21.5 -8.5h-119q-11 0 -19 9t-8 19v25h28q-1 4 -1 17v7q0 34 20 56.5t54 22.5q54 0 64 -47q0 -17 -22 -47q-6 22 -16.5 33.5t-15.5 12.5t-13 1q-15 0 -17.5 -23t6.5 -33zM574 123v-123h-151h-81q-43 1 -76.5 5t-74 17t-67.5 34.5
t-45.5 60t-18.5 90.5q0 96 54 159t150 63q51 0 91 -21t63 -56t34.5 -76.5t11.5 -86.5q0 -13 -0.5 -33t-0.5 -33h111zM182 220q0 -28 10.5 -47.5t24 -29t37.5 -14.5t38.5 -5.5t40.5 -0.5h9v53q0 32 -3 54.5t-11 45t-26.5 34t-46.5 11.5q-36 0 -54.5 -27.5t-18.5 -73.5z" />
    <glyph glyph-name="hehfinaltone" unicode="&#x6c1;" horiz-adv-x="557" arabic-form="final" 
d="M567 112v-112h-46q-111 0 -165 53.5t-54 165.5v14q-93 -28 -170 -149l-92 73q136 203 338 203l51 -3v-121q0 -66 23 -95t76 -29h39z" />
    <glyph glyph-name="hehinitialaltone" unicode="&#x6c1;" horiz-adv-x="314" arabic-form="initial" 
d="M178 350q86 0 86 -89v-87q0 -75 -44 -123t-129 -51h-101v123h91q48 4 48 57v170h49zM66 -146q0 52 33 92t78 40h46q-21 -21 -35 -47.5t-14 -40.5q0 -15 12 -29q18 -22 18 -44q0 -26 -19 -44.5t-47 -18.5q-33 0 -52.5 24t-19.5 68z" />
    <glyph glyph-name="hehmedialaltone" unicode="&#x6c1;" horiz-adv-x="679" arabic-form="medial" 
d="M689 123v-123h-115v-237h-103q-272 0 -278 278q-49 -41 -124 -41h-79v123h89q52 0 83 39.5t31 106.5v113h126v-338q0 -75 33 -117t94 -50v246h243zM29 -146q0 52 33 92t77 40h46q-21 -21 -35 -47.5t-14 -40.5t13 -29q17 -23 17 -44q0 -26 -19 -44.5t-47 -18.5
q-33 0 -52 24t-19 68z" />
    <glyph glyph-name="uniFBAB" unicode="&#x6be;" horiz-adv-x="566" arabic-form="final" 
d="M-10 0v123h88q2 35 6 63.5t16.5 61t31 54.5t51.5 36.5t77 14.5q82 0 128.5 -46.5t46.5 -132.5q0 -30 -7 -51h148v-123h-103q16 -36 16 -78q0 -98 -54.5 -151t-147.5 -53q-52 0 -91 18.5t-60.5 45.5t-34.5 67t-17.5 74.5t-5.5 76.5h-88zM299 -160q83 0 83 73
q0 54 -31.5 70.5t-95.5 16.5h-53v-9v-28t2 -28.5t5.5 -29t10.5 -24.5t17 -22t26 -13.5t36 -5.5zM271 243q-27 0 -44.5 -9.5t-25 -26.5t-10 -32.5t-2.5 -36.5v-15h56q21 0 31 0.5t24.5 3.5t21 9t11.5 17.5t5 28.5q0 31 -15.5 46t-51.5 15z" />
    <glyph glyph-name="yehbarree.fina" unicode="&#x6d2;" horiz-adv-x="751" arabic-form="final" 
d="M664 -289h-601q-3 25 -3 56q0 95 40 174.5t123.5 130.5t196.5 51h341v-123h-351q-98 0 -155.5 -53t-65.5 -124h475v-112z" />
    <glyph glyph-name="uniFBB1" unicode="&#x6d3;" horiz-adv-x="758" arabic-form="final" 
d="M354 230h89v-25q0 -10 -8 -18.5t-21 -8.5h-119q-12 0 -20 8.5t-8 18.5v25h29q-1 4 -1 17v7q0 35 19.5 57t53.5 22q24 0 42 -11.5t22 -34.5q0 -19 -12 -36q-1 -2 -4.5 -6.5t-4.5 -5.5q-7 23 -17.5 34.5t-15.5 12.5t-13 1q-15 0 -17.5 -24t6.5 -33zM658 -289h-601
q-3 25 -3 56q0 95 40 174.5t123.5 130.5t196.5 51h341v-123h-351q-98 0 -155.5 -53t-65.5 -124h475v-112z" />
    <glyph glyph-name="alefmaksura.init" unicode="&#x649;" horiz-adv-x="324" arabic-form="initial" 
d="M187 349q87 0 87 -89v-86q0 -75 -44.5 -123t-128.5 -51h-111v123h100q48 4 48 57v169h49z" />
    <glyph glyph-name="alefmaksura.medi" unicode="&#x649;" horiz-adv-x="326" arabic-form="medial" 
d="M238 261v-56q2 -44 24 -63t74 -19v-123h-17q-89 0 -137 40q-45 -37 -119 -40h-63v123h54q48 3 48 56v170h48q88 0 88 -88z" />
    <glyph glyph-name="uniFBFD" unicode="&#x6cc;" horiz-adv-x="709" arabic-form="final" 
d="M331 -136q-134 0 -202.5 66.5t-68.5 193.5q0 80 34.5 127t94.5 47l85 -7q-11 -9 -27.5 -24.5t-43.5 -57.5t-27 -77t4.5 -58t20 -46t49.5 -34.5t88 -11.5q20 0 34 8.5t21.5 18t12.5 33.5t6 37t4 46q1 6 2 27.5t3 36.5q-17 5 -43 6q-25 0 -42 19.5t-17 42.5v60
q16 0 25.5 0.5t13 0.5h4.5q88 0 144.5 -37t100.5 -101q14 -21 22 -30.5t21 -18t27 -8.5h42v-123h-39q-93 0 -146 64q-5 -47 -13.5 -76.5t-29 -61t-60.5 -47t-100 -15.5z" />
    <glyph glyph-name="uniFBFE" unicode="&#x6cc;" horiz-adv-x="339" arabic-form="initial" 
d="M187 349q87 0 87 -89v-86q0 -75 -44.5 -123t-128.5 -51h-111v123h100q48 4 48 57v169h49zM77 -186q-29 0 -49 20t-20 49q0 28 20 48t49 20q28 0 48 -20t20 -48t-20 -48.5t-48 -20.5zM230 -186q-28 0 -48 20.5t-20 48.5t20 48t48 20t48.5 -20t20.5 -48t-20.5 -48.5
t-48.5 -20.5z" />
    <glyph glyph-name="uniFBFF" unicode="&#x6cc;" horiz-adv-x="326" arabic-form="medial" 
d="M73 -186q-29 0 -49 19.5t-20 49.5q0 28 20.5 48t48.5 20t48 -20t20 -48q0 -30 -20 -49.5t-48 -19.5zM225 -186q-28 0 -48 19.5t-20 49.5q0 28 20 48t48 20q27 0 48 -20.5t21 -47.5q0 -29 -20.5 -49t-48.5 -20zM238 261v-56q2 -44 24 -63t74 -19v-123h-17q-89 0 -137 40
q-45 -37 -119 -40h-63v123h54q48 3 48 56v170h48q88 0 88 -88z" />
    <glyph glyph-name="shadda_dammatan" unicode="&#xfc5e;" arabic-form="isolated" 
d="M7 172q28 0 48 -19t20 -49q0 -34 -24.5 -57t-63.5 -31.5t-63 -11t-47 -2.5q-17 0 -23.5 10t-8.5 36h17q13 6 13 29q0 19 -22 19q-7 0 -21 -25q-20 20 -20 39q0 14 13 24t33 10q32 0 50.5 -20.5t18.5 -47.5q0 -12 -4 -24q1 0 12.5 1.5t16.5 2.5q-14 22 -14 41
q0 32 20.5 53.5t48.5 21.5zM9 75q15 1 15 23q0 27 -20 27q-15 0 -15 -23q0 -12 6 -19.5t14 -7.5zM-110 -24l6 -80q1 -17 12 -17q8 0 8 14q0 6 -1.5 23t-1.5 25q0 21 7 27.5t25 7.5h18l7 -82q2 -15 12 -15q8 0 8 17q0 5 -2 21t-2 25q0 44 49 28l8 -79q2 -21 -13 -41t-44 -20
q-23 0 -40 12q-11 -10 -33 -10q-27 0 -44.5 17.5t-21.5 47.5q-5 40 -5 50q0 32 48 29z" />
    <glyph glyph-name="shadda_kasratan" unicode="&#xfc5f;" arabic-form="isolated" 
d="M-110 123l6 -80q1 -17 12 -17q8 0 8 14q0 6 -1.5 23t-1.5 25q0 21 7 27.5t25 7.5h18l7 -82q2 -15 12 -15q8 0 8 17q0 5 -2 21t-2 25q0 44 49 28l8 -79q2 -21 -13 -41t-44 -20q-23 0 -40 12q-11 -10 -33 -10q-27 0 -44.5 17.5t-21.5 47.5q-5 40 -5 50q0 32 48 29zM33 -135
l1 -27q-28 -1 -78.5 -4t-75.5 -4q-13 -1 -19.5 10t-7.5 20.5t-1 23.5q22 0 75 3t75 4q29 1 31 -26zM33 -64l1 -27q-28 -1 -78.5 -4t-75.5 -4q-13 -1 -19.5 10t-7.5 20.5t-1 23.5q22 1 75 4t75 3q29 1 31 -26z" />
    <glyph glyph-name="shadda_fatha" unicode="&#xfc60;" arabic-form="isolated" 
d="M33 37l1 -27q-28 -1 -78.5 -4t-75.5 -4q-13 -1 -19.5 10t-7.5 20.5t-1 23.5q22 0 75 3t75 4q29 1 31 -26zM-110 -24l6 -80q1 -17 12 -17q8 0 8 14q0 6 -1.5 23t-1.5 25q0 21 7 27.5t25 7.5h18l7 -82q2 -15 12 -15q8 0 8 17q0 5 -2 21t-2 25q0 44 49 28l8 -79
q2 -21 -13 -41t-44 -20q-23 0 -40 12q-11 -10 -33 -10q-27 0 -44.5 17.5t-21.5 47.5q-5 40 -5 50q0 32 48 29z" />
    <glyph glyph-name="shadda_damma" unicode="&#xfc61;" arabic-form="isolated" 
d="M-12 74q13 3 13 25q0 27 -18 27q-15 0 -15 -25q0 -27 20 -27zM-15 172q29 0 48.5 -18.5t19.5 -48.5q0 -99 -189 -103q-12 0 -18.5 6t-8 14t-3.5 26l33 1q46 3 63 6q-12 16 -12 42q0 32 19 53.5t48 21.5zM-110 -24l6 -80q1 -17 12 -17q8 0 8 14q0 6 -1.5 23t-1.5 25
q0 21 7 27.5t25 7.5h18l7 -82q2 -15 12 -15q8 0 8 17q0 5 -2 21t-2 25q0 44 49 28l8 -79q2 -21 -13 -41t-44 -20q-23 0 -40 12q-11 -10 -33 -10q-27 0 -44.5 17.5t-21.5 47.5q-5 40 -5 50q0 32 48 29z" />
    <glyph glyph-name="shadda_kasra" unicode="&#xfc62;" arabic-form="isolated" 
d="M-110 49l6 -80q1 -17 12 -17q8 0 8 14q0 6 -1.5 23t-1.5 25q0 21 7 27.5t25 7.5h18l7 -82q2 -15 12 -15q8 0 8 17q0 5 -2 21t-2 25q0 44 49 28l8 -79q2 -21 -13 -41t-44 -20q-23 0 -40 12q-11 -10 -33 -10q-27 0 -44.5 17.5t-21.5 47.5q-5 40 -5 50q0 32 48 29zM33 -135
l1 -27q-28 -1 -78.5 -4t-75.5 -4q-13 -1 -19.5 10t-7.5 20.5t-1 23.5q22 0 75 3t75 4q29 1 31 -26z" />
    <glyph glyph-name="shadda_alefsuperscript" unicode="&#xfc63;" arabic-form="isolated" 
d="M-36 2h-23q-28 0 -28 36v91h24q9 0 18 -9.5t9 -20.5v-97zM-110 -24l6 -80q1 -17 12 -17q8 0 8 14q0 6 -1.5 23t-1.5 25q0 21 7 27.5t25 7.5h18l7 -82q2 -15 12 -15q8 0 8 17q0 5 -2 21t-2 25q0 44 49 28l8 -79q2 -21 -13 -41t-44 -20q-23 0 -40 12q-11 -10 -33 -10
q-27 0 -44.5 17.5t-21.5 47.5q-5 40 -5 50q0 32 48 29z" />
    <glyph glyph-name="alah" unicode="&#xfdf2;" horiz-adv-x="1067" arabic-form="isolated" 
d="M544 123q28 1 40 15t12 41v421h48q88 0 88 -87v-309q3 -46 16.5 -63.5t57.5 -17.5h31q47 3 47 56v421h49q89 0 89 -88v-338q0 -76 -45 -123.5t-131 -50.5q-73 -1 -108.5 8t-62.5 31q-33 -26 -93.5 -33t-239.5 -6q-282 0 -282 207q0 96 54 159t150 63q93 0 146.5 -70.5
t52.5 -169.5v-66h81zM182 220q0 -34 13 -55.5t39 -30t45 -10.5t50 -2h13v53q0 32 -3 54.5t-11 45t-26.5 34.5t-46.5 12q-36 0 -54.5 -27.5t-18.5 -73.5z" />
    <glyph glyph-name="alef_madda.fina" unicode="&#x622;" horiz-adv-x="266" arabic-form="final" 
d="M240 748v-36q0 -22 -14 -41.5t-38 -19.5h-153v50q0 18 12.5 32.5t31.5 14.5h161zM249 123h27v-123h-36q-84 3 -129 51t-45 123v426h63q27 0 51 -20.5t24 -49.5v-367q6 -37 45 -40z" />
    <glyph glyph-name="alef_hamza_above.fina" unicode="&#x623;" horiz-adv-x="265" arabic-form="final" 
d="M127 703h89v-24q0 -11 -8 -19.5t-21 -8.5h-120q-11 0 -19 9t-8 19v24h30q-3 12 -3 24q0 35 20 57t54 22q55 0 64 -46q0 -17 -13 -36l-8 -12q-7 23 -17.5 34.5t-15.5 12.5t-13 1q-17 0 -17 -30q0 -21 6 -27zM203 163q7 -38 46 -40h26v-123h-36q-85 3 -129 50.5t-44 123.5
v426h62q27 0 51 -20t24 -49v-368z" />
    <glyph glyph-name="waw_hamza.fina" unicode="&#x624;" horiz-adv-x="528" arabic-form="final" 
d="M233 533h89v-25q0 -11 -8 -19.5t-21 -8.5h-119q-12 0 -20 9t-8 19v25h29q-1 4 -1 17v7q0 34 19.5 56.5t53.5 22.5q56 0 64 -47q0 -18 -21 -47q-5 17 -11.5 27.5t-14 14.5t-11 4.5t-9.5 0.5q-17 0 -17 -29q0 -21 6 -27zM313 417q63 -26 94.5 -88t31.5 -139l-1 -67h100
v-123h-107q-17 -66 -79.5 -115.5t-176.5 -49.5q-36 0 -58 17t-22 42v49q139 3 196 58q-256 13 -256 207q0 96 54 159t150 63q37 0 74 -13zM157 221q0 -60 31.5 -79t84.5 -19h42v22q-1 42 -2.5 64t-9 53t-25.5 45.5t-47 14.5q-36 0 -55 -28t-19 -73z" />
    <glyph glyph-name="alef_hamza_below.fina" unicode="&#x625;" horiz-adv-x="234" arabic-form="final" 
d="M120 -153h89v-25q0 -10 -8 -18.5t-21 -8.5h-119q-12 0 -20 8.5t-8 18.5v25h29q-1 4 -1 17v7q0 35 19.5 57t53.5 22q54 0 64 -46q0 -19 -21 -48q-7 23 -17.5 34.5t-15.5 12.5t-13 1q-17 0 -17 -30q0 -21 6 -27zM174 162q5 -36 46 -39h24v-123h-34q-84 3 -129 50.5
t-45 123.5v425h63q28 0 51.5 -20t23.5 -49v-368z" />
    <glyph glyph-name="yeh_hamza_above.fina" unicode="&#x626;" horiz-adv-x="892" arabic-form="final" 
d="M145 383h89v-25q0 -11 -8.5 -19.5t-21.5 -8.5h-119q-12 0 -19.5 8.5t-7.5 19.5v25h28q-1 4 -1 17v7q0 34 20 56.5t54 22.5q54 0 64 -47q0 -16 -13 -35q-1 -1 -4.5 -5.5t-4.5 -6.5q-7 22 -17 33.5t-15 12.5t-13 1q-17 0 -17 -29q0 -21 6 -27zM695 0v304
q-38 -2 -65.5 -15.5t-43.5 -31.5t-26.5 -48t-14.5 -55t-8 -62q-4 -55 -14 -94.5t-32 -75t-62 -53.5t-98 -18q-134 0 -202.5 66.5t-68.5 193.5q0 80 34.5 127t93.5 47l57 -5q-69 -77 -69 -161q0 -36 4.5 -58.5t20 -45.5t49.5 -34t88 -12q20 0 34.5 8.5t22 18.5t12.5 34.5
t6 38t4 47.5q6 135 49 207q72 106 249 106h102v-306h85v-123h-207z" />
    <glyph glyph-name="yeh_hamza_above.init" unicode="&#x626;" horiz-adv-x="315" arabic-form="initial" 
d="M178 349q87 0 87 -89v-86q0 -75 -44.5 -123t-129.5 -51h-101v123h91q48 4 48 57v169h49zM190 468h89v-23q0 -10 -7.5 -18t-20.5 -8h-120q-11 0 -18.5 8t-7.5 18v23h30q-2 5 -2 26q0 34 19 56t53 22q53 0 63 -45q0 -7 -2 -13.5t-3.5 -9.5t-6.5 -10t-7 -10q-13 45 -47 45
q-19 0 -19 -32q0 -24 7 -29z" />
    <glyph glyph-name="yeh_hamza_above.medi" unicode="&#x626;" horiz-adv-x="326" arabic-form="medial" 
d="M238 261v-56q2 -44 23.5 -63t74.5 -19v-123h-17q-89 0 -137 40q-45 -37 -119 -40h-63v123h54q48 3 48 56v170h48q88 0 88 -88zM164 468h89v-23q0 -10 -7.5 -18t-20.5 -8h-120q-11 0 -18.5 8t-7.5 18v23h30q-2 5 -2 26q0 34 19 56t53 22q53 0 63 -45q0 -7 -2 -13.5
t-3.5 -9.5t-6.5 -10t-7 -10q-13 45 -47 45q-19 0 -19 -32q0 -24 7 -29z" />
    <glyph glyph-name="alef.fina" unicode="&#x627;" horiz-adv-x="229" arabic-form="final" 
d="M173 162q7 -36 46 -39h25v-123h-34q-85 3 -130 50.5t-45 123.5v426h64q27 0 50.5 -20t23.5 -49v-369z" />
    <glyph glyph-name="beh.fina" unicode="&#x628;" horiz-adv-x="790" arabic-form="final" 
d="M363 -183q-29 0 -48.5 19.5t-19.5 48.5q0 28 20 47.5t48 19.5q29 0 49 -19.5t20 -47.5t-20 -48t-49 -20zM777 123h23v-123h-38q-90 0 -138 40q-45 -37 -118 -40h-302q-53 0 -92 18t-58.5 42t-31 58t-14 56.5t-2.5 47.5q0 78 27.5 124t87.5 46h72q-39 -34 -58 -77t-19 -77
q0 -115 77 -115h304q47 3 47 56v171h49q87 0 87 -89v-58q3 -45 24.5 -62.5t72.5 -17.5z" />
    <glyph glyph-name="beh.init" unicode="&#x628;" horiz-adv-x="314" arabic-form="initial" 
d="M202 -117q1 -29 -20.5 -49t-48.5 -20t-47 20t-20 49q0 27 19.5 47t47.5 20t48.5 -19.5t20.5 -47.5zM178 350q86 0 86 -89v-87q0 -75 -44 -123t-129 -51h-101v123h91q48 4 48 57v170h49z" />
    <glyph glyph-name="beh.medi" unicode="&#x628;" horiz-adv-x="326" arabic-form="medial" 
d="M169 -50q28 0 48 -19.5t20 -48.5t-20 -48t-48 -19q-29 0 -48.5 19t-19.5 48t19.5 48.5t48.5 19.5zM238 261v-56q2 -44 24 -63t74 -19v-124h-17q-88 0 -137 41q-51 -41 -182 -41v124h54q48 3 48 56v170h48q88 0 88 -88z" />
    <glyph glyph-name="tehmarbuta.fina" unicode="&#x629;" horiz-adv-x="564" arabic-form="final" 
d="M574 123v-123h-151h-81q-43 1 -76.5 5t-74 17t-67.5 34.5t-45.5 60t-18.5 90.5q0 96 54 159t150 63q51 0 91 -21t63 -56t34.5 -76.5t11.5 -86.5q0 -13 -0.5 -33t-0.5 -33h111zM182 220q0 -28 10.5 -47.5t24 -29t37.5 -14.5t38.5 -5.5t40.5 -0.5h9v53q0 32 -3 54.5t-11 45
t-26.5 34t-46.5 11.5q-36 0 -54.5 -27.5t-18.5 -73.5zM187 470q-28 0 -48.5 20.5t-20.5 48.5t20.5 49t48.5 21q27 0 47.5 -21t20.5 -49t-20.5 -48.5t-47.5 -20.5zM338 470q-27 0 -47.5 20.5t-20.5 48.5t20.5 49t47.5 21q28 0 49 -21t21 -49t-21 -48.5t-49 -20.5z" />
    <glyph glyph-name="teh.fina" unicode="&#x62a;" horiz-adv-x="844" arabic-form="final" 
d="M831 123h23v-123h-38q-90 0 -138 40q-45 -37 -118 -40h-302q-53 0 -92 18t-58.5 42t-31 58t-14 56.5t-2.5 47.5q0 78 27.5 124t87.5 46h72q-39 -34 -58 -77t-19 -77q0 -115 77 -115h304q47 3 47 56v170h49q87 0 87 -89v-57q3 -45 24.5 -62.5t72.5 -17.5zM347 401
q-28 0 -48.5 20.5t-20.5 48.5t20.5 49t48.5 21q27 0 47.5 -21t20.5 -49t-20.5 -48.5t-47.5 -20.5zM498 401q-27 0 -47.5 20.5t-20.5 48.5t20.5 49t47.5 21q28 0 49 -21t21 -49t-21 -48.5t-49 -20.5z" />
    <glyph glyph-name="teh.init" unicode="&#x62a;" horiz-adv-x="314" arabic-form="initial" 
d="M177 349q87 0 87 -89v-86q0 -75 -44 -123t-129 -51h-101v123h90q48 4 48 57v169h49zM120 401q-28 0 -48.5 20.5t-20.5 48.5t20.5 49t48.5 21q27 0 47.5 -21t20.5 -49t-20.5 -48.5t-47.5 -20.5zM271 401q-27 0 -47.5 20.5t-20.5 48.5t20.5 49t47.5 21q28 0 49 -21t21 -49
t-21 -48.5t-49 -20.5z" />
    <glyph glyph-name="teh.medi" unicode="&#x62a;" horiz-adv-x="326" arabic-form="medial" 
d="M238 261v-56q2 -44 24 -62.5t74 -19.5v-123h-17q-89 0 -137 40q-45 -37 -119 -40h-63v123h54q48 3 48 56v170h48q88 0 88 -88zM94 400q-28 0 -48.5 20.5t-20.5 48.5t20.5 49t48.5 21q27 0 47.5 -21t20.5 -49t-20.5 -48.5t-47.5 -20.5zM245 400q-27 0 -47.5 20.5
t-20.5 48.5t20.5 49t47.5 21q28 0 49 -21t21 -49t-21 -48.5t-49 -20.5z" />
    <glyph glyph-name="theh.fina" unicode="&#x62b;" horiz-adv-x="844" arabic-form="final" 
d="M831 123h23v-123h-38q-90 0 -138 40q-45 -37 -118 -40h-302q-53 0 -92 18t-58.5 42t-31 58t-14 56.5t-2.5 47.5q0 78 27.5 124t87.5 46h72q-39 -34 -58 -77t-19 -77q0 -115 77 -115h304q47 3 47 56v170h49q87 0 87 -89v-57q3 -45 24.5 -62.5t72.5 -17.5zM347 401
q-28 0 -48.5 20.5t-20.5 48.5t20.5 49t48.5 21q27 0 47.5 -21t20.5 -49t-20.5 -48.5t-47.5 -20.5zM498 401q-27 0 -47.5 20.5t-20.5 48.5t20.5 49t47.5 21q28 0 49 -21t21 -49t-21 -48.5t-49 -20.5zM422 529q-26 0 -44.5 19t-18.5 44q0 26 18.5 45t44.5 19q25 0 44 -19
t19 -45q0 -25 -19 -44t-44 -19z" />
    <glyph glyph-name="theh.init" unicode="&#x62b;" horiz-adv-x="314" arabic-form="initial" 
d="M177 349q87 0 87 -89v-86q0 -75 -44 -123t-129 -51h-101v123h90q48 4 48 57v169h49zM120 401q-28 0 -48.5 20.5t-20.5 48.5t20.5 49t48.5 21q27 0 47.5 -21t20.5 -49t-20.5 -48.5t-47.5 -20.5zM271 401q-27 0 -47.5 20.5t-20.5 48.5t20.5 49t47.5 21q28 0 49 -21t21 -49
t-21 -48.5t-49 -20.5zM195 529q-26 0 -44.5 19t-18.5 44q0 26 18.5 45t44.5 19q25 0 44 -19t19 -45q0 -25 -19 -44t-44 -19z" />
    <glyph glyph-name="theh.medi" unicode="&#x62b;" horiz-adv-x="326" arabic-form="medial" 
d="M238 261v-56q2 -44 24 -62.5t74 -19.5v-123h-17q-89 0 -137 40q-45 -37 -119 -40h-63v123h54q48 3 48 56v170h48q88 0 88 -88zM94 400q-28 0 -48.5 20.5t-20.5 48.5t20.5 49t48.5 21q27 0 47.5 -21t20.5 -49t-20.5 -48.5t-47.5 -20.5zM245 400q-27 0 -47.5 20.5
t-20.5 48.5t20.5 49t47.5 21q28 0 49 -21t21 -49t-21 -48.5t-49 -20.5zM169 528q-26 0 -44.5 19t-18.5 44q0 26 18.5 45t44.5 19q25 0 44 -19t19 -45q0 -25 -19 -44t-44 -19z" />
    <glyph glyph-name="jeem.fina" unicode="&#x62c;" horiz-adv-x="619" arabic-form="final" 
d="M311 -167q-30 0 -49.5 19.5t-19.5 48.5t19.5 48.5t49.5 19.5q29 0 48.5 -19.5t19.5 -48.5t-19.5 -48.5t-48.5 -19.5zM606 123h23v-123h-38q-61 0 -102 26q-49 -27 -125 -27q-24 0 -33 1q-70 -2 -112 -27t-42 -67q0 -56 24 -83q31 -35 102 -35q37 0 79.5 18.5t72.5 48.5
v-65q0 -54 -49.5 -82.5t-114.5 -28.5q-34 0 -71.5 10.5t-74.5 32.5t-61 63t-24 94q0 136 71.5 190t204.5 54q22 0 66 -2q-8 59 -54 121t-103 62q-73 0 -145 -71v70q0 56 40.5 90.5t125.5 34.5q186 0 253 -266l-1 1q15 -40 88 -40z" />
    <glyph glyph-name="jeem.init" unicode="&#x62c;" horiz-adv-x="546" arabic-form="initial" 
d="M250 -186q-30 0 -49 19.5t-19 49.5q0 28 19.5 48t48.5 20q27 0 47 -20t20 -48q0 -29 -19.5 -49t-47.5 -20zM-5 0v123h353q-8 30 -18.5 56.5t-29 57.5t-46.5 49.5t-61 18.5q-71 0 -145 -70v68q0 55 43 90.5t124 35.5q56 0 102 -24t76 -63t50.5 -90.5t29 -104t8.5 -105.5
q0 -63 -16 -132q-40 81 -153 90h-317z" />
    <glyph glyph-name="jeem.medi" unicode="&#x62c;" horiz-adv-x="555" arabic-form="medial" 
d="M228 -184q-30 0 -49 19.5t-19 48.5q0 28 19.5 48t48.5 20q28 0 48 -20t20 -48t-20 -48t-48 -20zM-5 0v123h350q-50 182 -156 182q-71 0 -146 -70v68q0 56 42 90.5t125 34.5q48 0 89 -18.5t69 -48.5t50 -70.5t34.5 -81.5t19.5 -86h88v-123h-565z" />
    <glyph glyph-name="hah.fina" unicode="&#x62d;" horiz-adv-x="619" arabic-form="final" 
d="M606 123h23v-123h-38q-61 0 -102 26q-49 -27 -125 -27q-24 0 -33 1q-70 -2 -112 -27t-42 -67q0 -56 24 -83q31 -35 102 -35q37 0 79.5 18.5t72.5 48.5v-65q0 -54 -49.5 -82.5t-114.5 -28.5q-34 0 -71.5 10.5t-74.5 32.5t-61 63t-24 94q0 136 71.5 190t204.5 54
q22 0 66 -2q-8 59 -54 121t-103 62q-73 0 -145 -71v70q0 56 40.5 90.5t125.5 34.5q186 0 253 -266l-1 1q15 -40 88 -40z" />
    <glyph glyph-name="hah.init" unicode="&#x62d;" horiz-adv-x="546" arabic-form="initial" 
d="M-5 0v123h353q-8 30 -18.5 56.5t-29 57.5t-46.5 49.5t-61 18.5q-71 0 -145 -70v68q0 55 43 90.5t124 35.5q56 0 102 -24t76 -63t50.5 -90.5t29 -104t8.5 -105.5q0 -63 -16 -132q-40 81 -153 90h-317z" />
    <glyph glyph-name="hah.medi" unicode="&#x62d;" horiz-adv-x="555" arabic-form="medial" 
d="M-5 0v123h350q-50 182 -156 182q-71 0 -146 -70v68q0 56 42 90.5t125 34.5q48 0 89 -18.5t69 -48.5t50 -70.5t34.5 -81.5t19.5 -86h88v-123h-565z" />
    <glyph glyph-name="khah.fina" unicode="&#x62e;" horiz-adv-x="619" arabic-form="final" 
d="M606 123h23v-123h-38q-61 0 -102 26q-49 -27 -125 -27q-24 0 -33 1q-70 -2 -112 -27t-42 -67q0 -56 24 -83q31 -35 102 -35q37 0 79.5 18.5t72.5 48.5v-65q0 -54 -49.5 -82.5t-114.5 -28.5q-34 0 -71.5 10.5t-74.5 32.5t-61 63t-24 94q0 136 71.5 190t204.5 54
q22 0 66 -2q-8 59 -54 121t-103 62q-73 0 -145 -71v70q0 56 40.5 90.5t125.5 34.5q186 0 253 -266l-1 1q15 -40 88 -40zM263 471q-29 0 -48 20t-19 49t19 48t48 19q28 0 49 -19t21 -48q0 -28 -21 -48.5t-49 -20.5z" />
    <glyph glyph-name="khah.init" unicode="&#x62e;" horiz-adv-x="546" arabic-form="initial" 
d="M-5 0v123h353q-8 30 -18.5 56.5t-29 57.5t-46.5 49.5t-61 18.5q-71 0 -145 -70v68q0 55 43 90.5t124 35.5q56 0 102 -24t76 -63t50.5 -90.5t29 -104t8.5 -105.5q0 -63 -16 -132q-40 81 -153 90h-317zM214 471q-29 0 -48 20t-19 49t19 48t48 19q28 0 48.5 -19t20.5 -48
q0 -28 -20.5 -48.5t-48.5 -20.5z" />
    <glyph glyph-name="khah.medi" unicode="&#x62e;" horiz-adv-x="555" arabic-form="medial" 
d="M-5 0v123h350q-50 182 -156 182q-71 0 -146 -70v68q0 56 42 90.5t125 34.5q48 0 89 -18.5t69 -48.5t50 -70.5t34.5 -81.5t19.5 -86h88v-123h-565zM207 471q-29 0 -48 20t-19 49t19 48t48 19q28 0 48.5 -19t20.5 -48q0 -28 -20.5 -48.5t-48.5 -20.5z" />
    <glyph glyph-name="dal.fina" unicode="&#x62f;" horiz-adv-x="532" arabic-form="final" 
d="M518 123h24v-123h-20q-43 0 -69 6t-50 26q-36 -32 -70 -32h-222q-32 0 -49 21t-17 50v52h260q-6 70 -50.5 121.5t-113.5 51.5q-13 0 -64 -8l24 56q38 59 98 59q21 0 44 -6q65 -19 109.5 -71.5t66.5 -126.5v1q17 -51 32 -64t67 -13z" />
    <glyph glyph-name="thal.fina" unicode="&#x630;" horiz-adv-x="532" arabic-form="final" 
d="M221 471q-28 0 -48 20t-20 49t19.5 48t48.5 19q28 0 48 -19t20 -48q0 -28 -20 -48.5t-48 -20.5zM518 123h24v-123h-20q-43 0 -69 6t-50 26q-36 -32 -70 -32h-222q-32 0 -49 21t-17 50v52h260q-6 70 -50.5 121.5t-113.5 51.5q-13 0 -64 -8l24 56q38 59 98 59q21 0 44 -6
q65 -19 109.5 -71.5t66.5 -126.5v1q17 -51 32 -64t67 -13z" />
    <glyph glyph-name="reh.fina" unicode="&#x631;" horiz-adv-x="372" arabic-form="final" 
d="M377 0h-91v-23q0 -58 -40.5 -100t-104.5 -42q-41 0 -66 19t-25 52v54q50 -6 51 -6q35 0 45 18.5t10 64.5v312h53q46 0 64 -20t18 -68v-138h86v-123z" />
    <glyph glyph-name="zain.fina" unicode="&#x632;" horiz-adv-x="357" arabic-form="final" 
d="M198 400q-27 0 -47 20t-20 49q0 28 19 47.5t48 19.5q28 0 48 -19.5t20 -47.5q0 -29 -20 -49t-48 -20zM362 0h-91v-23q0 -58 -40.5 -100t-104.5 -42q-41 0 -66 19t-25 52v54q50 -6 51 -6q35 0 45 18.5t10 64.5v312h53q46 0 64 -20t18 -68v-138h86v-123z" />
    <glyph glyph-name="seen.fina" unicode="&#x633;" horiz-adv-x="1229" arabic-form="final" 
d="M1180 123h59v-123h-50q-68 0 -110 36q-41 -34 -120 -36h-8q-83 0 -135 30q-39 -30 -138 -30h-59q-23 -79 -106.5 -132.5t-172.5 -53.5q-121 0 -200.5 86t-79.5 210q0 70 29.5 113t84.5 43h72q-40 -34 -58 -76.5t-18 -78.5q0 -67 44 -119t111 -52q83 0 127 41t44 110v309
h62q27 0 50.5 -20t23.5 -48v-209h66q49 4 49 56v221h48q88 0 88 -88v-78q0 -51 -6 -97q13 -14 61 -14h-1q33 2 46 15.5t13 40.5v221h49q89 0 89 -88v-142q3 -47 46 -47z" />
    <glyph glyph-name="seen.init" unicode="&#x633;" horiz-adv-x="771" arabic-form="initial" 
d="M642 400q89 0 89 -88v-137q0 -76 -45 -124t-130 -51h-9q-84 0 -136 31q-49 -31 -137 -31h-284v123h102v277h62q27 0 50.5 -20t23.5 -48v-209h66q49 4 49 57v220h49q87 0 87 -88v-77q0 -58 -5 -96q13 -16 60 -16q33 2 46 16t13 41v220h49z" />
    <glyph glyph-name="seen.medi" unicode="&#x633;" horiz-adv-x="825" arabic-form="medial" 
d="M778 123h57v-123h-50q-67 0 -109 36q-40 -34 -121 -36h-7q-83 0 -135 30q-39 -30 -139 -30h-284v123h102v277h63q26 0 50 -20t24 -48v-209h66q49 4 49 56v221h48q88 0 88 -88v-78q0 -51 -6 -97q12 -14 59 -14q34 2 47 15.5t13 40.5v221h49q88 0 88 -88q0 -15 0.5 -56
t0.5 -87q3 -46 47 -46z" />
    <glyph glyph-name="sheen.fina" unicode="&#x634;" horiz-adv-x="1229" arabic-form="final" 
d="M1180 123h59v-123h-50q-68 0 -110 36q-41 -34 -120 -36h-8q-83 0 -135 30q-39 -30 -138 -30h-59q-23 -79 -106.5 -132.5t-172.5 -53.5q-121 0 -200.5 86t-79.5 210q0 70 29.5 113t84.5 43h72q-40 -34 -58 -76.5t-18 -78.5q0 -67 44 -119t111 -52q83 0 127 41t44 110v309
h62q27 0 50.5 -20t23.5 -48v-209h66q49 4 49 56v221h48q88 0 88 -88v-78q0 -51 -6 -97q13 -14 61 -14h-1q33 2 46 15.5t13 40.5v221h49q89 0 89 -88v-142q3 -47 46 -47zM739 471q-28 0 -48.5 20.5t-20.5 48.5t20.5 49t48.5 21q27 0 47.5 -21t20.5 -49t-20.5 -48.5
t-47.5 -20.5zM890 471q-27 0 -47.5 20.5t-20.5 48.5t20.5 49t47.5 21q28 0 49 -21t21 -49t-21 -48.5t-49 -20.5zM814 599q-26 0 -44.5 19t-18.5 44q0 26 18.5 45t44.5 19q25 0 44 -19t19 -45q0 -25 -19 -44t-44 -19z" />
    <glyph glyph-name="sheen.init" unicode="&#x634;" horiz-adv-x="771" arabic-form="initial" 
d="M642 400q89 0 89 -88v-137q0 -76 -45 -124t-130 -51h-9q-84 0 -136 31q-49 -31 -137 -31h-284v123h102v277h62q27 0 50.5 -20t23.5 -48v-209h66q49 4 49 57v220h49q87 0 87 -88v-77q0 -58 -5 -96q13 -16 60 -16q33 2 46 16t13 41v220h49zM338 471q-28 0 -48.5 20.5
t-20.5 48.5t20.5 49t48.5 21q27 0 47.5 -21t20.5 -49t-20.5 -48.5t-47.5 -20.5zM489 471q-27 0 -47.5 20.5t-20.5 48.5t20.5 49t47.5 21q28 0 49 -21t21 -49t-21 -48.5t-49 -20.5zM413 599q-26 0 -44.5 19t-18.5 44q0 26 18.5 45t44.5 19q25 0 44 -19t19 -45q0 -25 -19 -44
t-44 -19z" />
    <glyph glyph-name="sheen.medi" unicode="&#x634;" horiz-adv-x="825" arabic-form="medial" 
d="M778 123h57v-123h-50q-67 0 -109 36q-40 -34 -121 -36h-7q-83 0 -135 30q-39 -30 -139 -30h-284v123h102v277h63q26 0 50 -20t24 -48v-209h66q49 4 49 56v221h48q88 0 88 -88v-78q0 -51 -6 -97q12 -14 59 -14q34 2 47 15.5t13 40.5v221h49q88 0 88 -88q0 -23 0.5 -48.5
t0.5 -32.5v-62q3 -46 47 -46zM336 471q-28 0 -48.5 20.5t-20.5 48.5t20.5 49t48.5 21q27 0 47.5 -21t20.5 -49t-20.5 -48.5t-47.5 -20.5zM487 471q-27 0 -47.5 20.5t-20.5 48.5t20.5 49t47.5 21q28 0 49 -21t21 -49t-21 -48.5t-49 -20.5zM411 599q-26 0 -44.5 19t-18.5 44
q0 26 18.5 45t44.5 19q25 0 44 -19t19 -45q0 -25 -19 -44t-44 -19z" />
    <glyph glyph-name="sad.fina" unicode="&#x635;" horiz-adv-x="1139" arabic-form="final" 
d="M1125 123h24v-123h-39q-41 0 -78 10q-14 -10 -26 -10h-396q-25 -83 -99.5 -136.5t-171.5 -53.5q-123 0 -201 76t-78 197q0 70 29.5 112.5t84.5 42.5h72q-40 -33 -58.5 -76t-18.5 -78q0 -65 43.5 -107.5t112.5 -42.5q82 0 125.5 41.5t43.5 112.5v251h34q33 0 46.5 -2
t25 -14t13.5 -38q105 143 229 143q58 0 103.5 -28t71 -72.5t38 -93.5t12.5 -98v-6q16 -7 58 -7zM818 294q-121 -7 -182 -171h313q0 26 -2.5 46.5t-11 44t-22 39.5t-38 27.5t-57.5 13.5z" />
    <glyph glyph-name="sad.init" unicode="&#x635;" horiz-adv-x="686" arabic-form="initial" 
d="M-10 0v123h80q0 45 0.5 102t0.5 114h36q32 0 45.5 -2t25 -14t13.5 -37q102 143 229 143q59 0 104.5 -28t71 -73t38 -94t12.5 -98q0 -58 -17 -97t-44 -39h-595zM214 123h309q0 6 0.5 13.5t0.5 11.5q0 140 -126 146q-46 -2 -86 -32t-63 -66t-35 -73z" />
    <glyph glyph-name="sad.medi" unicode="&#x635;" horiz-adv-x="745" arabic-form="medial" 
d="M-10 0v123h105v216h36q33 0 46.5 -2t24.5 -13.5t14 -37.5q100 142 228 142q59 0 104.5 -28t70.5 -72.5t37.5 -93.5t12.5 -98v-13h86v-123h-765zM420 294q-64 -3 -113 -56.5t-70 -114.5h311v18q0 143 -128 153z" />
    <glyph glyph-name="dad.fina" unicode="&#x636;" horiz-adv-x="1139" arabic-form="final" 
d="M823 470q-29 0 -48 20t-19 49t19 48t48 19t49 -19t20 -48t-20 -49t-49 -20zM1125 123h24v-123h-39q-41 0 -78 10q-14 -10 -26 -10h-396q-25 -83 -99.5 -136.5t-171.5 -53.5q-123 0 -201 76t-78 197q0 70 29.5 112.5t84.5 42.5h72q-40 -33 -58.5 -76t-18.5 -78
q0 -65 43.5 -107.5t112.5 -42.5q82 0 125.5 41.5t43.5 112.5v251h34q33 0 46.5 -2t25 -14t13.5 -38q105 143 229 143q58 0 103.5 -28t71 -72.5t38 -93.5t12.5 -98v-6q16 -7 58 -7zM818 294q-64 -3 -110 -51.5t-72 -119.5h313q0 26 -2.5 46.5t-11 44t-22 39.5t-38 27.5
t-57.5 13.5z" />
    <glyph glyph-name="dad.init" unicode="&#x636;" horiz-adv-x="686" arabic-form="initial" 
d="M-10 0v123h80q0 45 0.5 102t0.5 114h36q32 0 45.5 -2t25 -14t13.5 -37q102 143 229 143q59 0 104.5 -28t71 -73t38 -94t12.5 -98q0 -58 -17 -97t-44 -39h-595zM214 123h309q0 6 0.5 13.5t0.5 11.5q0 140 -126 146q-46 -2 -86 -32t-63 -66t-35 -73zM402 471q-29 0 -48 20
t-19 49q0 28 19 47.5t48 19.5q28 0 48 -19.5t20 -47.5t-20 -48.5t-48 -20.5z" />
    <glyph glyph-name="dad.medi" unicode="&#x636;" horiz-adv-x="745" arabic-form="medial" 
d="M-10 0v123h105v216h36q33 0 46.5 -2t24.5 -13.5t14 -37.5q100 142 228 142q59 0 104.5 -28t70.5 -72.5t37.5 -93.5t12.5 -98v-13h86v-123h-765zM420 294q-64 -3 -113 -56.5t-70 -114.5h311v18q0 143 -128 153zM428 470q-30 0 -49.5 20t-19.5 49t19.5 48t49.5 19
q28 0 48 -19t20 -48q0 -28 -20 -48.5t-48 -20.5z" />
    <glyph glyph-name="tah.fina" unicode="&#x637;" horiz-adv-x="785" arabic-form="final" 
d="M156 0q-52 3 -74 22t-22 60v41h78q0 16 -0.5 112t-0.5 156v209h34q48 0 67 -18t19 -65v-229q102 141 229 141q58 0 103.5 -28t70.5 -73t37.5 -94t12.5 -98q0 -3 -0.5 -7.5t-0.5 -5.5h81v-123h-634zM462 294q-65 -3 -114 -56.5t-70 -114.5h311v25q0 140 -127 146z" />
    <glyph glyph-name="tah.init" unicode="&#x637;" horiz-adv-x="671" arabic-form="initial" 
d="M-5 0v123h63q-1 73 -1 477h34q48 0 67.5 -18.5t19.5 -64.5v-229q103 141 228 141q58 0 103.5 -28t71 -73t38 -94t12.5 -98q0 -58 -17 -97t-45 -39h-574zM199 123h311v25q0 140 -127 146q-44 -2 -84.5 -32t-64 -66t-35.5 -73z" />
    <glyph glyph-name="tah.medi" unicode="&#x637;" horiz-adv-x="737" arabic-form="medial" 
d="M-5 0v123h105q-1 74 -1 477h35q47 0 67 -19.5t20 -64.5v-228q100 140 227 140q58 0 103.5 -28t71 -72.5t38 -93.5t12.5 -98q0 -3 -0.5 -7.5t-0.5 -5.5h70v-123h-747zM241 123h310v18q0 143 -128 153q-63 -3 -112 -56.5t-70 -114.5z" />
    <glyph glyph-name="zah.fina" unicode="&#x638;" horiz-adv-x="785" arabic-form="final" 
d="M469 470q-28 0 -48 20t-20 49t19.5 48t48.5 19q28 0 47.5 -19t19.5 -48t-19.5 -49t-47.5 -20zM156 0q-52 3 -74 22t-22 60v41h78q0 16 -0.5 112t-0.5 156v209h34q48 0 67 -18t19 -65v-229q102 141 229 141q58 0 103.5 -28t70.5 -73t37.5 -94t12.5 -98q0 -3 -0.5 -7.5
t-0.5 -5.5h81v-123h-634zM462 294q-65 -3 -114 -56.5t-70 -114.5h311v25q0 140 -127 146z" />
    <glyph glyph-name="zah.init" unicode="&#x638;" horiz-adv-x="666" arabic-form="initial" 
d="M383 471q-28 0 -48 20.5t-20 48.5t20 47.5t48 19.5t48 -19.5t20 -47.5t-20 -48.5t-48 -20.5zM-10 0v123h63q-1 73 -1 477h34q48 0 67.5 -18.5t19.5 -64.5v-229q103 141 228 141q58 0 103.5 -28t71 -73t38 -94t12.5 -98q0 -58 -17 -97t-45 -39h-574zM194 123h311v25
q0 140 -127 146q-44 -2 -84.5 -32t-64 -66t-35.5 -73z" />
    <glyph glyph-name="zah.medi" unicode="&#x638;" horiz-adv-x="737" arabic-form="medial" 
d="M-5 0v123h105q-1 74 -1 477h35q47 0 67 -19.5t20 -64.5v-228q100 140 227 140q58 0 103.5 -28t71 -72.5t38 -93.5t12.5 -98q0 -3 -0.5 -7.5t-0.5 -5.5h70v-123h-747zM241 123h310v18q0 143 -128 153q-63 -3 -112 -56.5t-70 -114.5zM430 471q-29 0 -48 20t-19 49t19 48
t48 19q28 0 49 -19t21 -48q0 -28 -21 -48.5t-49 -20.5z" />
    <glyph glyph-name="ain.fina" unicode="&#x639;" horiz-adv-x="622" arabic-form="final" 
d="M627 123v-123h-76q-140 0 -212 47q-14 -9 -45 -22h1q-6 -3 -26 -10t-28.5 -11t-23.5 -13t-21.5 -18t-12.5 -24t-6 -34q0 -56 24 -83q31 -35 102 -35q36 0 78 19.5t74 48.5v-66q0 -55 -49.5 -82.5t-114.5 -27.5q-34 0 -71.5 10.5t-74.5 32.5t-61 63t-24 94q0 98 45 162.5
t141 78.5q-31 35 -70.5 61.5t-71.5 34.5q0 21 2 47q3 45 3 55q11 4 72 37h-1q24 13 51 27q13 9 50.5 21.5t65.5 12.5q89 0 190 -73q8 -6 45 -30q-18 -44 -55 -100t-80 -96q12 -4 39 -4h63h78zM300 234q23 -23 50 -42q48 44 93 104q-47 19 -86 19q-53 0 -112 -36q5 -3 55 -45
z" />
    <glyph glyph-name="ain.init" unicode="&#x639;" horiz-adv-x="518" arabic-form="initial" 
d="M227 123h251v-57q0 -24 -19.5 -45t-48.5 -21h-420v123h96q-15 37 -15 85q0 96 54 159t150 63q60 0 110 -31.5t60 -92.5q0 -31 -10 -51l-29 -67q-24 76 -64.5 105t-75.5 29t-53.5 -28t-18.5 -73q0 -73 33 -98z" />
    <glyph glyph-name="ain.medi" unicode="&#x639;" horiz-adv-x="553" arabic-form="medial" 
d="M558 123v-123h-68q-139 0 -211 48q-25 -18 -70.5 -33t-93.5 -15h-120v123h146q38 0 47 4q-30 39 -69.5 65t-73.5 34q0 19 2 43q3 48 3 58q20 9 78 41h-1q101 57 160 57q86 0 192 -74q10 -7 44 -29q-17 -42 -55 -98.5t-80 -96.5q13 -4 38 -4h64h68zM298 314
q-53 0 -112 -36l30 -24l25 -20q23 -23 50 -42q37 32 92 103q-47 19 -85 19z" />
    <glyph glyph-name="ghain.fina" unicode="&#x63a;" horiz-adv-x="622" arabic-form="final" 
d="M627 123v-123h-76q-140 0 -212 47q-14 -9 -45 -22h1q-6 -3 -26 -10t-28.5 -11t-23.5 -13t-21.5 -18t-12.5 -24t-6 -34q0 -56 24 -83q31 -35 102 -35q36 0 78 19.5t74 48.5v-66q0 -55 -49.5 -82.5t-114.5 -27.5q-34 0 -71.5 10.5t-74.5 32.5t-61 63t-24 94q0 98 45 162.5
t141 78.5q-31 35 -70.5 61.5t-71.5 34.5q0 21 2 47q3 45 3 55q11 4 72 37h-1q24 13 51 27q13 9 50.5 21.5t65.5 12.5q89 0 190 -73q8 -6 45 -30q-18 -44 -55 -100t-80 -96q12 -4 39 -4h63h78zM300 234q23 -23 50 -42q48 44 93 104q-47 19 -86 19q-53 0 -112 -36q5 -3 55 -45
zM346 471q-30 0 -49 20t-19 49t19 48t49 19q28 0 48 -19t20 -48q0 -28 -20 -48.5t-48 -20.5z" />
    <glyph glyph-name="ghain.init" unicode="&#x63a;" horiz-adv-x="518" arabic-form="initial" 
d="M275 471q-29 0 -48.5 20t-19.5 49t19.5 48t48.5 19t48.5 -19t19.5 -48t-20 -49t-48 -20zM227 123h251v-57q0 -24 -19.5 -45t-48.5 -21h-420v123h96q-15 37 -15 85q0 96 54 159t150 63q60 0 110 -31.5t60 -92.5q0 -31 -10 -51l-29 -67q-24 76 -64.5 105t-75.5 29
t-53.5 -28t-18.5 -73q0 -73 33 -98z" />
    <glyph glyph-name="ghain.medi" unicode="&#x63a;" horiz-adv-x="553" arabic-form="medial" 
d="M289 471q-29 0 -48.5 20t-19.5 49t19.5 48t48.5 19t48.5 -19t19.5 -48t-20 -49t-48 -20zM558 123v-123h-68q-139 0 -211 48q-25 -18 -70.5 -33t-93.5 -15h-120v123h146q38 0 47 4q-30 39 -69.5 65t-73.5 34q0 19 2 43q3 48 3 58q20 9 78 41h-1q101 57 160 57
q86 0 192 -74q10 -7 44 -29q-17 -42 -55 -98.5t-80 -96.5q13 -4 38 -4h64h68zM298 314q-53 0 -112 -36l30 -24l25 -20q23 -23 50 -42q37 32 92 103q-47 19 -85 19z" />
    <glyph glyph-name="feh.fina" unicode="&#x641;" horiz-adv-x="879" arabic-form="final" 
d="M598 470q-28 0 -48 20t-20 48t20 48.5t48 20.5q30 0 49.5 -19.5t19.5 -48.5t-19.5 -49t-49.5 -20zM856 123h33v-123h-48q-76 0 -114 27q-44 -27 -113 -27h-355q-54 0 -93 18t-59 42t-31.5 58.5t-13.5 56.5t-2 47q0 170 115 170h72q-39 -34 -58.5 -77t-19.5 -77
q0 -115 79 -115h165q-17 37 -17 85q0 96 53.5 159t149.5 63q91 0 146.5 -68t53.5 -172q0 -10 -0.5 -28t-0.5 -29q13 -10 58 -10zM591 322q-36 0 -55 -27.5t-19 -73.5q0 -28 9.5 -47.5t22 -29.5t35.5 -15t36.5 -5.5t39.5 -0.5h16v56q0 32 -2.5 53.5t-10.5 44t-26 34t-46 11.5
z" />
    <glyph glyph-name="feh.init" unicode="&#x641;" horiz-adv-x="509" arabic-form="initial" 
d="M262 471q-28 0 -48 19.5t-20 48.5t20 49t48 20q30 0 49.5 -19.5t19.5 -48.5t-19.5 -49t-49.5 -20zM424 343q39 -59 39 -153v-190h-475v123h87q-16 39 -16 85q0 96 54 159t150 63q110 0 161 -87zM339 123v18q0 7 0.5 19.5t0.5 18.5q0 32 -2.5 53.5t-10.5 44t-26 34
t-46 11.5q-36 0 -55 -27.5t-19 -73.5q0 -28 9.5 -47.5t22 -29.5t35.5 -15t36.5 -5.5t39.5 -0.5h15z" />
    <glyph glyph-name="feh.medi" unicode="&#x641;" horiz-adv-x="548" arabic-form="medial" 
d="M270 470q-28 0 -47.5 20t-19.5 48q0 29 19.5 49t47.5 20q30 0 49.5 -19.5t19.5 -48.5t-19.5 -49t-49.5 -20zM470 123h83v-123h-558v123h87q-15 37 -15 85q0 96 53.5 159t149.5 63q91 0 145.5 -67.5t54.5 -172.5v-67zM262 322q-36 0 -55 -27.5t-19 -73.5q0 -28 10 -47.5
t22 -29.5t35 -15t37 -5.5t40 -0.5h16v56q0 31 -3 53.5t-11 44.5t-26 33.5t-46 11.5z" />
    <glyph glyph-name="qaf.fina" unicode="&#x642;" horiz-adv-x="721" arabic-form="final" 
d="M452 425q96 0 146 -66.5t54 -171.5q0 -41 -1 -64h80v-123h-99q-54 -181 -253 -181q-152 0 -235.5 84t-83.5 212q0 70 29.5 113t84.5 43h72q-40 -34 -58.5 -77t-18.5 -78q0 -24 10.5 -51.5t31.5 -55t61 -46t92 -18.5q95 6 137 55q-39 2 -71 7.5t-67 19t-59 35t-39.5 58
t-15.5 84.5v6q14 215 203 215zM531 123v51q0 43 -5 71t-25 50.5t-57 22.5q-36 0 -55 -28t-19 -73q0 -23 6.5 -39.5t20.5 -26.5t27 -16t34.5 -8.5t33.5 -3t33 -0.5h6zM380 470q-28 0 -48 20t-20 48t20 48t48 20t48.5 -20t20.5 -48t-20 -48t-49 -20zM527 470q-28 0 -48 20
t-20 48t20 48t48 20t48 -20t20 -48t-20 -48t-48 -20z" />
    <glyph glyph-name="qaf.init" unicode="&#x642;" horiz-adv-x="510" arabic-form="initial" 
d="M431 343q39 -59 39 -153v-190h-475v123h87q-16 39 -16 85q0 96 54 159t150 63q110 0 161 -87zM347 123v56q0 32 -2.5 53.5t-10.5 44t-26 34t-46 11.5q-36 0 -55 -27.5t-19 -73.5q0 -28 9.5 -47.5t22 -29.5t35.5 -15t36.5 -5.5t39.5 -0.5h16zM197 470q-29 0 -49 20t-20 48
t20 48t49 20t48.5 -20t19.5 -48t-19.5 -48t-48.5 -20zM344 470q-29 0 -49 19.5t-20 48.5t20 48.5t49 19.5q27 0 47.5 -20t20.5 -48t-20.5 -48t-47.5 -20z" />
    <glyph glyph-name="qaf.medi" unicode="&#x642;" horiz-adv-x="548" arabic-form="medial" 
d="M197 470q-29 0 -49 20t-20 48t20 48t49 20t48.5 -20t19.5 -48t-19.5 -48t-48.5 -20zM344 470q-29 0 -49 19.5t-20 48.5t20 48.5t49 19.5q27 0 47.5 -20t20.5 -48t-20.5 -48t-47.5 -20zM470 123h83v-123h-558v123h87q-15 37 -15 85q0 96 53.5 159t149.5 63
q91 0 145.5 -67.5t54.5 -172.5v-67zM262 322q-36 0 -55 -27.5t-19 -73.5q0 -28 10 -47.5t22 -29.5t35 -15t37 -5.5t40 -0.5h16v56q0 31 -3 53.5t-11 44.5t-26 33.5t-46 11.5z" />
    <glyph glyph-name="kaf.fina" unicode="&#x643;" horiz-adv-x="809" arabic-form="final" 
d="M389 368h90v-25q0 -11 -8.5 -19t-21.5 -8h-119q-12 0 -20 8.5t-8 18.5v25h29q-1 4 -1 17v7q0 35 19.5 57t53.5 22q55 0 65 -46q0 -18 -22 -48q-7 23 -17.5 34.5t-15.5 12.5t-13 1q-17 0 -17 -30q0 -21 6 -27zM806 123h23v-123h-38q-85 0 -139 40q-45 -37 -120 -40h-274
q-54 0 -93 18t-58.5 42.5t-31 59t-13.5 56t-2 46.5q0 170 114 170h72q-40 -33 -58.5 -76t-18.5 -78q0 -115 78 -115h279q48 4 48 56v421h48q88 0 88 -89v-310q3 -44 24 -61t72 -17z" />
    <glyph glyph-name="kaf.init" unicode="&#x643;" horiz-adv-x="513" arabic-form="initial" 
d="M464 658q12 -15 12 -41q0 -30 -21 -47l-231 -173h3q9 -2 23.5 -7.5t40.5 -21.5t44 -37q79 -96 79 -223v-108h-431v123h305q-2 29 -10.5 54.5t-18 41t-22.5 29t-18 17t-9 6.5v-1q-42 26 -86 26q-26 0 -52 -5l-27 35q-15 21 -15 42q0 34 32 59l368 275z" />
    <glyph glyph-name="kaf.medi" unicode="&#x643;" horiz-adv-x="492" arabic-form="medial" 
d="M421 702l34 -44q12 -15 12 -41q0 -29 -22 -47q-24 -19 -69 -52.5t-60 -44.5q-21 -15 -58.5 -43t-44.5 -33q7 -1 24.5 -7t46.5 -25.5t54 -47.5t45 -79.5t22 -114.5h89v-123h-511v123h296q-2 29 -10.5 54.5t-18 41t-22.5 29t-18 17t-9 6.5v-1q-42 26 -86 26q-26 0 -51 -5
q-1 1 -7.5 8.5t-7.5 9.5q-28 32 -28 59q0 32 32 59q159 120 368 275z" />
    <glyph glyph-name="lam.fina" unicode="&#x644;" horiz-adv-x="715" arabic-form="final" 
d="M545 600q88 0 88 -89v-376q19 -12 68 -12h24v-123h-39q-49 0 -75 10q-63 -192 -271 -192q-121 0 -200.5 86t-79.5 210q0 70 29.5 113t84.5 43h72q-39 -34 -57.5 -77t-18.5 -78q0 -68 44 -120t111 -52q83 0 127 55.5t44 190.5v411h49z" />
    <glyph glyph-name="lam.init" unicode="&#x644;" horiz-adv-x="249" arabic-form="initial" 
d="M115 599q89 0 89 -88v-337q0 -76 -45 -123.5t-131 -50.5h-48v123h39q47 3 47 56v420h49z" />
    <glyph glyph-name="lam.medi" unicode="&#x644;" horiz-adv-x="274" arabic-form="medial" 
d="M272 123h23v-123h-38q-43 0 -70 9t-53 31q-51 -40 -163 -40v123h35q49 4 49 57v419h48q88 0 88 -88v-306q2 -48 17 -65t64 -17z" />
    <glyph glyph-name="meem.fina" unicode="&#x645;" horiz-adv-x="675" arabic-form="final" 
d="M640 123h45v-123h-37q-74 0 -114 41q-59 -41 -127 -41q-45 0 -82 16q-2 -3 -5 -9q-12 -25 -21 -39t-28 -35.5t-46.5 -32t-63.5 -10.5l-11 1q-90 1 -90 81v40h81q43 0 58.5 28t15.5 75q0 34 -1 51q-2 26 -2 42q0 96 53.5 159t149.5 63q89 0 142.5 -61.5t53.5 -147.5
q0 -55 -15 -92q10 -6 44 -6zM415 107q36 0 55 28t19 73q0 114 -82 114q-36 0 -55 -27.5t-19 -73.5q0 -114 82 -114z" />
    <glyph glyph-name="meem.init" unicode="&#x645;" horiz-adv-x="546" arabic-form="initial" 
d="M-15 123h24q56 0 76 22t21 78q0 84 54 145t142 61q96 0 150 -63t54 -158q0 -86 -53.5 -146.5t-142.5 -60.5q-77 0 -136 49q-54 -50 -150 -50h-39v123zM302 108q81 0 81 113q0 45 -19 72.5t-54 27.5q-82 0 -82 -113q0 -45 19 -72.5t55 -27.5z" />
    <glyph glyph-name="meem.medi" unicode="&#x645;" horiz-adv-x="609" arabic-form="medial" 
d="M601 123h23v-123h-39q-97 0 -147 47q-57 -47 -128 -47q-80 0 -136 49q-57 -49 -150 -49h-39v123h24q56 0 76 21.5t21 77.5q0 85 54 145.5t142 60.5q96 0 149.5 -62.5t53.5 -158.5q0 -46 22 -65t74 -19zM302 107q81 0 81 113q0 46 -19 73t-54 27q-83 0 -83 -113
q0 -45 19.5 -72.5t55.5 -27.5z" />
    <glyph glyph-name="noon.fina" unicode="&#x646;" horiz-adv-x="715" arabic-form="final" 
d="M545 349q88 0 88 -89v-125q19 -12 68 -12h24v-123h-39q-49 0 -75 10q-63 -192 -271 -192q-121 0 -200.5 86t-79.5 210q0 70 29.5 113t84.5 43h72q-39 -34 -57.5 -77t-18.5 -78q0 -68 44 -120t111 -52q83 0 127 55.5t44 190.5v160h49zM351 349q-28 0 -48 20t-20 49
t19.5 48.5t48.5 19.5t49 -19.5t20 -48.5q0 -28 -20 -48.5t-49 -20.5z" />
    <glyph glyph-name="noon.init" unicode="&#x646;" horiz-adv-x="314" arabic-form="initial" 
d="M264 470q0 -28 -20.5 -48.5t-47.5 -20.5q-28 0 -48 20t-20 49q0 28 20 48t48 20q27 0 47.5 -20t20.5 -48zM178 349q86 0 86 -89v-86q0 -75 -44 -123t-129 -51h-101v123h91q48 4 48 57v169h49z" />
    <glyph glyph-name="noon.medi" unicode="&#x646;" horiz-adv-x="326" arabic-form="medial" 
d="M238 470q0 -28 -21.5 -48.5t-46.5 -20.5q-28 0 -48 20.5t-20 48.5t19.5 48t48.5 20q27 0 47.5 -20t20.5 -48zM238 261v-56q2 -44 24 -62.5t74 -19.5v-123h-17q-89 0 -137 40q-45 -37 -119 -40h-63v123h54q48 3 48 56v170h48q88 0 88 -88z" />
    <glyph glyph-name="heh.fina" unicode="&#x647;" horiz-adv-x="564" arabic-form="final" 
d="M574 123v-123h-151h-81q-43 1 -76.5 5t-74 17t-67.5 34.5t-45.5 60t-18.5 90.5q0 96 54 159t150 63q37 0 73 -13q64 -26 96 -88.5t31 -138.5q0 -13 -0.5 -33t-0.5 -33h111zM182 220q0 -20 5.5 -36t13.5 -26t22 -17t24.5 -10.5t29 -5.5t28.5 -2h28h9v53q0 32 -2.5 54
t-11 45t-27 34.5t-46.5 11.5q-36 0 -54.5 -27.5t-18.5 -73.5z" />
    <glyph glyph-name="heh.init" unicode="&#x647;" horiz-adv-x="583" arabic-form="initial" 
d="M147 0h-152v123h97q-24 39 -24 82q0 70 43 109t109 39q79 0 117.5 -54t37.5 -129q0 -10 -0.5 -24t-0.5 -23h42q3 21 3 44q0 38 -10 74.5t-30.5 70t-59 54t-89.5 20.5q-72 0 -146 -70v69q0 29 5.5 49t21.5 38.5t51 27.5t88 9q80 0 139 -31.5t91.5 -84t47.5 -112.5t15 -126
q0 -91 -27 -155q-63 0 -86.5 0.5t-51.5 6t-46 17.5q-50 -24 -185 -24zM171 192q0 -4 0.5 -8.5t5.5 -16t14 -20t29 -16t48 -8.5v1q1 29 0 45.5t-5 40t-16 34.5t-31 11q-45 0 -45 -63z" />
    <glyph glyph-name="heh.medi" unicode="&#x647;" horiz-adv-x="617" arabic-form="medial" 
d="M542 123h80v-123h-192q-60 0 -98 24q-50 -24 -185 -24h-152v123h97q-24 39 -24 82q0 70 43 109t110 39q79 0 117 -54.5t37 -129.5q0 -10 -0.5 -23.5t-0.5 -22.5h42q3 21 3 44q0 38 -10 74.5t-30.5 70t-59 54t-89.5 20.5q-72 0 -146 -70v69q0 29 5.5 49t22 38.5t51.5 27.5
t88 9q79 0 138 -31.5t91.5 -84t47.5 -112.5t15 -126q0 -18 -1 -30v-2zM269 123v2q0 28 -0.5 45t-5 39.5t-16.5 34t-31 11.5q-21 0 -32.5 -17.5t-11.5 -46.5q0 -4 0.5 -8.5t5.5 -15.5t14 -19.5t29.5 -16t47.5 -8.5z" />
    <glyph glyph-name="waw.fina" unicode="&#x648;" horiz-adv-x="523" arabic-form="final" 
d="M313 417q63 -26 94.5 -88t31.5 -139l-1 -67h100v-123h-107q-17 -66 -79.5 -115.5t-176.5 -49.5q-36 0 -58 17t-22 42v49q139 3 196 58q-256 13 -256 207q0 96 54 159t150 63q37 0 74 -13zM157 221q0 -60 31.5 -79t84.5 -19h42v22q-1 42 -2.5 64t-9 53t-25.5 45.5
t-47 14.5q-36 0 -55 -28t-19 -73z" />
    <glyph glyph-name="alefmaksura.fina" unicode="&#x649;" horiz-adv-x="892" arabic-form="final" 
d="M695 0v304q-38 -2 -65.5 -15.5t-43.5 -31.5t-26.5 -48t-14.5 -55t-8 -62q-4 -55 -14 -94.5t-32 -75t-62 -53.5t-98 -18q-134 0 -202.5 66.5t-68.5 193.5q0 80 34.5 127t93.5 47l57 -5q-69 -77 -69 -161q0 -36 4.5 -58.5t20 -45.5t49.5 -34t88 -12q20 0 34.5 8.5t22 18.5
t12.5 34.5t6 38t4 47.5q6 135 49 207q72 106 249 106h102v-306h85v-123h-207z" />
    <glyph glyph-name="yeh.fina" unicode="&#x64a;" horiz-adv-x="892" arabic-form="final" 
d="M695 0v304q-38 -2 -65.5 -15.5t-43.5 -31.5t-26.5 -48t-14.5 -55t-8 -62q-4 -55 -14 -94.5t-32 -75t-62 -53.5t-98 -18q-134 0 -202.5 66.5t-68.5 193.5q0 80 34.5 127t93.5 47l57 -5q-69 -77 -69 -161q0 -36 4.5 -58.5t20 -45.5t49.5 -34t88 -12q20 0 34.5 8.5t22 18.5
t12.5 34.5t6 38t4 47.5q6 135 49 207q72 106 249 106h102v-306h85v-123h-207zM236 -325q-28 0 -48 20t-20 48q0 29 19.5 48t48.5 19q28 0 48 -19t20 -48q0 -28 -20.5 -48t-47.5 -20zM388 -325q-28 0 -48.5 20t-20.5 48q0 29 20 48t49 19t49 -19t20 -48q0 -28 -20.5 -48
t-48.5 -20z" />
    <glyph glyph-name="yeh.init" unicode="&#x64a;" horiz-adv-x="339" arabic-form="initial" 
d="M187 349q87 0 87 -89v-86q0 -75 -44.5 -123t-128.5 -51h-111v123h100q48 4 48 57v169h49zM77 -186q-29 0 -49 20t-20 49q0 28 20 48t49 20q28 0 48 -20t20 -48t-20 -48.5t-48 -20.5zM230 -186q-28 0 -48 20.5t-20 48.5t20 48t48 20t48.5 -20t20.5 -48t-20.5 -48.5
t-48.5 -20.5z" />
    <glyph glyph-name="yeh.medi" unicode="&#x64a;" horiz-adv-x="326" arabic-form="medial" 
d="M73 -186q-29 0 -49 19.5t-20 49.5q0 28 20.5 48t48.5 20t48 -20t20 -48q0 -30 -20 -49.5t-48 -19.5zM225 -186q-28 0 -48 19.5t-20 49.5q0 28 20 48t48 20q27 0 48 -20.5t21 -47.5q0 -29 -20.5 -49t-48.5 -20zM238 261v-56q2 -44 24 -63t74 -19v-123h-17q-89 0 -137 40
q-45 -37 -119 -40h-63v123h54q48 3 48 56v170h48q88 0 88 -88z" />
    <glyph glyph-name=".notdef" horiz-adv-x="550" 
 />
    <glyph glyph-name=".null" 
 />
    <glyph glyph-name="nonmarkingreturn" horiz-adv-x="333" 
 />
    <glyph glyph-name="space" unicode=" " horiz-adv-x="244" 
 />
    <glyph glyph-name="exclam" unicode="!" horiz-adv-x="345" 
d="M237 524l-9 -325h-49q-36 0 -57 23.5t-23 62.5q-1 49 -4 161.5t-5 162.5h65q39 0 60.5 -22t21.5 -63zM256 87q0 -35 -25.5 -61t-60.5 -26q-36 0 -62 26t-26 61q0 36 26 61.5t62 25.5q35 0 60.5 -25.5t25.5 -61.5z" />
    <glyph glyph-name="quotedbl" unicode="&#x22;" horiz-adv-x="442" 
d="M371 524l-13 -147h-41q-74 0 -80 84q-2 24 -13 149h67q80 0 80 -86zM211 524l-13 -147h-41q-74 0 -80 84q-2 22 -6.5 74.5t-6.5 74.5h67q80 0 80 -86z" />
    <glyph glyph-name="numbersign" unicode="#" horiz-adv-x="573" 
d="M534 412q0 -33 -20 -51t-55 -18h-14q-14 -63 -16 -75h67v-41q0 -33 -19.5 -52t-55.5 -19h-13q-19 -96 -30 -156h-47q-62 0 -62 62q0 14 3 26v-1q4 19 13 69h-59q-13 -66 -30 -156h-47q-61 0 -61 62q0 9 2 25l13 69h-72v42q0 32 20 51t55 19h20q6 28 14 75h-72v40
q0 33 20 51.5t56 18.5h18q16 82 30 156h39q68 0 68 -65q0 -12 -1 -16l-1 -4l-14 -71h60q5 27 15.5 79.5t14.5 76.5h39q32 0 50 -17t18 -47q0 -17 -1 -24q-2 -12 -6.5 -32t-7.5 -36h69v-41zM323 343h-61q-12 -57 -14 -75h59q10 45 16 75z" />
    <glyph glyph-name="dollar" unicode="$" horiz-adv-x="549" 
d="M488 188q0 -79 -49 -128.5t-110 -57.5v-117h-40q-66 0 -66 62v53q-154 10 -154 131l2 74q81 -81 175 -81q55 0 76.5 13t21.5 42q0 25 -23.5 37.5t-100.5 25.5h1q-165 26 -165 159q0 74 48.5 123t118.5 62v116h48q58 0 58 -62v-50q70 -7 106.5 -37.5t36.5 -80.5v-59
q-83 53 -167 53q-107 0 -107 -53q0 -23 22 -34t101 -25q80 -13 123.5 -56.5t43.5 -109.5z" />
    <glyph glyph-name="percent" unicode="%" horiz-adv-x="920" 
d="M387 419q0 -92 -45 -151.5t-125 -59.5q-74 0 -117.5 57.5t-43.5 139.5q0 92 44.5 151.5t124.5 59.5q74 0 118 -57.5t44 -139.5zM617 519l-246 -519h-30q-28 0 -44.5 15t-16.5 43q0 25 15 52q42 89 124 261.5t112 236.5h39q22 0 38 -13.5t16 -37.5q0 -23 -7 -38zM857 202
q0 -91 -45 -150.5t-125 -59.5q-74 0 -118 57.5t-44 139.5q0 91 44.5 150t124.5 59q73 0 118 -57.5t45 -138.5zM265 405q0 100 -47 100q-39 0 -39 -86q0 -100 45 -100q41 0 41 86zM737 191q0 100 -46 100q-20 0 -30.5 -23.5t-10.5 -62.5q0 -100 47 -100q40 0 40 86z" />
    <glyph glyph-name="ampersand" unicode="&#x26;" horiz-adv-x="631" 
d="M594 82l14 -14q0 -79 -71 -79q-59 0 -96 37l-19 19q-62 -55 -158 -55q-100 0 -154 50.5t-54 132.5q0 50 30 93.5t75 71.5q-47 58 -47 110q0 67 48.5 115t134.5 48q71 0 115 -40t44 -108q0 -85 -116 -156q65 -76 82 -94q44 60 47 141h37q61 0 61 -73q0 -62 -64 -149l8 -8
q43 -40 83 -42zM332 460q0 41 -41 41q-44 0 -44 -48q0 -21 27 -58l2 -2q56 36 56 67zM279 108q35 0 63 19q-73 73 -109 123q-41 -29 -41 -65q0 -77 87 -77z" />
    <glyph glyph-name="quotesingle" unicode="'" horiz-adv-x="366" 
d="M259 523l-14 -147h-40q-36 0 -56.5 22t-23.5 62l-13 149h67q39 0 59.5 -22.5t20.5 -63.5z" />
    <glyph glyph-name="parenleft" unicode="(" horiz-adv-x="350" 
d="M336 -144h-72q-38 0 -78 31q-49 38 -91 139.5t-42 213.5q0 157 65.5 278t147.5 121h71q-66 -92 -102.5 -181t-36.5 -201q0 -231 138 -401z" />
    <glyph glyph-name="parenright" unicode=")" horiz-adv-x="370" 
d="M9 638h74q36 0 76 -31q49 -42 91 -143t42 -210q0 -158 -65.5 -278.5t-146.5 -120.5h-71v24q139 144 139 358q0 126 -39 224t-100 153v24z" />
    <glyph glyph-name="asterisk" unicode="*" horiz-adv-x="502" 
d="M372 406q-30 0 -38 -1q7 -8 16.5 -20.5t13.5 -17t13 -11.5t20.5 -11.5t30.5 -9.5q-20 -43 -38 -64t-46 -21q-18 0 -32 6t-23 18.5t-15 24t-13.5 29t-13.5 27.5q-29 -46 -29 -113q-115 6 -115 78q0 33 18 55t50 44q-28 7 -55 7q-10 0 -73 -19q11 137 87 137q42 0 83 -32
l2 -2q-2 65 -43 117q1 0 11 4.5t11 5.5q36 12 52 12q38 0 62 -18.5t24 -57.5q0 -13 -6.5 -43t-10.5 -30v-1q53 27 93 86q20 -30 28 -43.5t15.5 -31t7.5 -31.5q0 -37 -25.5 -55t-61.5 -18z" />
    <glyph glyph-name="plus" unicode="+" horiz-adv-x="561" 
d="M514 256q0 -27 -22 -47.5t-60 -20.5h-93v-178h-54q-28 0 -49 22t-21 60v96h-180v60q0 24 20 44t50 20h110v160h62q24 0 43 -20t19 -49v-91h175v-56z" />
    <glyph glyph-name="comma" unicode="," horiz-adv-x="313" 
d="M246 43q0 -63 -39.5 -111.5t-93.5 -48.5h-36v25q16 15 27 40t11 42q0 14 -15 33q-21 25 -21 54q0 32 23 54.5t58 22.5q40 0 63 -29t23 -82z" />
    <glyph glyph-name="hyphen" unicode="-" horiz-adv-x="439" 
d="M359 329v-59q0 -30 -18 -46t-51 -16h-210v58q0 28 18.5 45.5t48.5 17.5h212z" />
    <glyph glyph-name="hyphen" unicode="&#xad;" horiz-adv-x="439" 
d="M359 329v-59q0 -30 -18 -46t-51 -16h-210v58q0 28 18.5 45.5t48.5 17.5h212z" />
    <glyph glyph-name="period" unicode="." horiz-adv-x="299" 
d="M226 87q0 -35 -25.5 -61t-61.5 -26q-35 0 -61 26t-26 61q0 36 26 61.5t61 25.5q36 0 61.5 -25.5t25.5 -61.5z" />
    <glyph glyph-name="slash" unicode="/" horiz-adv-x="460" 
d="M400 534l-253 -534h-30q-23 0 -39 16t-16 43q0 28 11 49l242 518h39q22 0 37.5 -13.5t15.5 -38.5t-7 -40z" />
    <glyph glyph-name="zero" unicode="0" horiz-adv-x="555" 
d="M511 317q0 -164 -63.5 -245.5t-170.5 -81.5q-106 0 -170 79t-64 225q0 162 64 243.5t178 81.5q107 0 166.5 -81t59.5 -221zM186 318q0 -108 24.5 -153t74.5 -45q38 0 60 42.5t22 127.5q0 109 -21.5 154t-68.5 45q-41 0 -66 -41.5t-25 -129.5z" />
    <glyph glyph-name="one" unicode="1" horiz-adv-x="402" 
d="M302 0h-60q-38 0 -61 23t-23 67v365q-3 -1 -37 -14q-26 -9 -49 -9q-57 0 -69 53q-6 33 -8 42l116 51q74 31 115 31q33 0 54.5 -23t21.5 -52v-534z" />
    <glyph glyph-name="two" unicode="2" horiz-adv-x="554" 
d="M486 71q0 -34 -25 -52.5t-67 -18.5h-269q-30 0 -51 21t-21 51q0 36 23.5 73.5t90.5 92.5l135 114q35 28 35 66q0 33 -23 52t-63 19q-58 0 -99 -17t-91 -58v55q0 63 51 106.5t159 43.5q89 0 149 -54.5t60 -130.5q0 -66 -27.5 -108t-99.5 -99q-99 -76 -123 -103h256v-53z
" />
    <glyph glyph-name="three" unicode="3" horiz-adv-x="548" 
d="M477 187q0 -91 -62 -144t-181 -53q-79 0 -130.5 34t-51.5 97v60q99 -63 188 -63q47 0 70 17.5t23 47.5q0 33 -23 47.5t-72 16.5q-85 1 -85 58v50q34 4 77 6q101 4 101 62q0 69 -100 69q-87 0 -174 -62v63q0 46 52.5 86t141.5 40q101 0 161.5 -48t60.5 -128
q0 -99 -76 -136q33 -19 56.5 -52.5t23.5 -67.5z" />
    <glyph glyph-name="four" unicode="4" horiz-adv-x="549" 
d="M527 202q0 -64 -62 -64h-29v-138h-58q-38 0 -60 23t-22 66v49h-183q-34 0 -56.5 20t-22.5 47q0 35 17 69q42 73 120 181t134 154h47q39 0 61.5 -24t22.5 -71v-253h91v-59zM296 261v174q-54 -71 -115 -174h115z" />
    <glyph glyph-name="five" unicode="5" horiz-adv-x="558" 
d="M508 203q0 -100 -64.5 -156.5t-173.5 -56.5q-97 0 -143 32.5t-46 90.5v58q52 -28 88.5 -39.5t88.5 -11.5q103 0 103 76q0 36 -29.5 52.5t-93.5 16.5q-58 0 -150 -23v250q0 59 24.5 88t82.5 29h294v-44q0 -39 -24.5 -62t-69.5 -23h-166v-99q28 3 63 3q92 0 154 -49.5
t62 -131.5z" />
    <glyph glyph-name="six" unicode="6" horiz-adv-x="546" 
d="M504 211q0 -88 -56.5 -154.5t-172.5 -66.5q-98 0 -160 72.5t-62 216.5q0 167 74 253.5t202 86.5q64 0 105 -34t41 -85v-49q-32 24 -78.5 34.5t-90.5 4t-75 -38t-31 -83.5q40 37 105 37q84 0 141.5 -51.5t57.5 -142.5zM200 212q0 -41 21.5 -68.5t60.5 -27.5q80 0 80 86
q0 39 -22 59t-56 20q-40 0 -62 -20t-22 -49z" />
    <glyph glyph-name="seven" unicode="7" horiz-adv-x="531" 
d="M470 538q0 -33 -52 -144q-22 -44 -57 -101q-30 -51 -45 -77.5t-31.5 -72t-16.5 -80.5v-63h-61q-73 0 -73 79q0 72 39 143q119 217 140 251q1 1 2 3l1 2q0 1 1 2h-265v54q0 76 78 76h263q77 0 77 -72z" />
    <glyph glyph-name="eight" unicode="8" horiz-adv-x="536" 
d="M496 179q0 -189 -227 -189q-98 0 -155.5 49.5t-57.5 131.5q0 39 23 77t57 59q-77 42 -77 127q0 84 62.5 134.5t158.5 50.5q94 0 153.5 -50.5t59.5 -126.5q0 -90 -76 -129q34 -21 56.5 -56.5t22.5 -77.5zM272 490q-32 0 -50 -16.5t-18 -41.5q0 -61 75 -61q33 0 51.5 16
t18.5 41q0 62 -77 62zM354 183q0 30 -21.5 49t-60.5 19q-29 0 -50.5 -18.5t-21.5 -43.5q0 -70 79 -70q37 0 56 17.5t19 46.5z" />
    <glyph glyph-name="nine" unicode="9" horiz-adv-x="543" 
d="M491 319q0 -164 -65 -246.5t-180 -82.5q-78 0 -126.5 32.5t-48.5 88.5v56q94 -49 170 -49q84 0 101 110q-35 -33 -88 -33q-97 0 -155.5 53.5t-58.5 142.5q0 103 60.5 165.5t172.5 62.5q218 0 218 -300zM346 391q0 103 -83 103q-37 0 -57.5 -25t-20.5 -65q0 -42 20.5 -63
t56.5 -21q39 0 61.5 19.5t22.5 51.5z" />
    <glyph glyph-name="colon" unicode=":" horiz-adv-x="319" 
d="M246 400q0 -36 -25.5 -62t-62.5 -26q-35 0 -60.5 26t-25.5 62t25.5 61t60.5 25q37 0 62.5 -25t25.5 -61zM246 87q0 -35 -26 -61t-62 -26q-35 0 -60.5 26t-25.5 61q0 36 25.5 61.5t60.5 25.5q37 0 62.5 -25.5t25.5 -61.5z" />
    <glyph glyph-name="semicolon" unicode=";" horiz-adv-x="336" 
d="M256 399q-1 -36 -26 -62t-61 -26q-35 0 -60.5 26t-25.5 62t25.5 61t60.5 25q36 0 61.5 -25t25.5 -61zM249 43q0 -63 -39.5 -111.5t-92.5 -48.5h-37q38 79 38 107q0 15 -15 34v-1q-20 24 -20 54q0 32 22.5 54.5t57.5 22.5q40 0 63 -29t23 -82z" />
    <glyph glyph-name="semicolon" unicode="&#x37e;" horiz-adv-x="336" 
d="M256 399q-1 -36 -26 -62t-61 -26q-35 0 -60.5 26t-25.5 62t25.5 61t60.5 25q36 0 61.5 -25t25.5 -61zM249 43q0 -63 -39.5 -111.5t-92.5 -48.5h-37q38 79 38 107q0 15 -15 34v-1q-20 24 -20 54q0 32 22.5 54.5t57.5 22.5q40 0 63 -29t23 -82z" />
    <glyph glyph-name="less" unicode="&#x3c;" horiz-adv-x="580" 
d="M494 434q0 -63 -75 -94q-104 -38 -188 -80q119 -60 259 -118v-35q0 -30 -22 -44t-53 -14q-34 0 -158 62t-203 118v21q0 26 13 43t42 35q54 31 179 85t206 79v-58z" />
    <glyph glyph-name="equal" unicode="=" horiz-adv-x="587" 
d="M441 302h-355v54q0 25 20 42t53 17h354v-55q0 -21 -21.5 -39.5t-50.5 -18.5zM441 139h-355v53q0 25 20 42t53 17h354v-55q0 -25 -20.5 -41t-51.5 -16z" />
    <glyph glyph-name="greater" unicode="&#x3e;" horiz-adv-x="580" 
d="M80 434v58q82 -26 207.5 -79.5t177.5 -84.5h-1q56 -33 56 -78v-21q-78 -56 -202.5 -118t-157.5 -62q-77 0 -77 58v35q132 54 259 118q-124 56 -188 80q-74 29 -74 94z" />
    <glyph glyph-name="question" unicode="?" horiz-adv-x="432" 
d="M414 463q0 -38 -14 -65.5t-50 -58.5q-11 -9 -33.5 -28t-34.5 -29v1q-27 -23 -30 -30q-2 -6 -2 -20v-44h-54q-25 0 -45.5 19t-20.5 45q0 34 13 56.5t48 51.5q10 8 30.5 25t30.5 25q20 20 20 40q0 49 -71 49q-74 0 -158 -57v54q0 53 45.5 92.5t129.5 39.5q92 0 144 -48
t52 -118zM111 87q0 -35 25.5 -61t60.5 -26q36 0 62 26t26 61q0 36 -26 61.5t-62 25.5q-35 0 -60.5 -25.5t-25.5 -61.5z" />
    <glyph glyph-name="at" unicode="@" horiz-adv-x="706" 
d="M665 359q0 -101 -51.5 -164.5t-131.5 -63.5q-53 0 -78 42q-40 -42 -94 -42q-46 0 -83 43t-37 107q0 87 56 148t140 61q42 0 84.5 -29t42.5 -61q0 -28 -8 -66l-3 -12v1q-9 -42 -9 -68q0 -19 4 -19q21 0 40 31t19 89q0 75 -46.5 123t-130.5 48q-91 0 -154 -66t-63 -174
q0 -92 52.5 -144t136.5 -52q85 0 158 36v-50q0 -30 -12.5 -47t-51 -27t-110.5 -10q-119 0 -202.5 79t-83.5 208q0 142 95 243.5t244 101.5q122 0 199.5 -75t77.5 -191zM334 247q27 0 39.5 29t22.5 96q-8 5 -22 5q-23 0 -40.5 -25.5t-17.5 -62.5q0 -42 18 -42z" />
    <glyph glyph-name="A" unicode="A" horiz-adv-x="562" 
d="M547 0h-64q-40 0 -64 20t-27 48l-3 18q-2 11 -3.5 23t-3 20.5t-3.5 17.5h-207q-18 -78 -29 -147h-57q-67 0 -67 70q0 72 70 267.5t134 266.5h53q70 0 106 -61q42 -76 94.5 -242.5t70.5 -300.5zM275 454q-43 -83 -71 -187h141q-26 99 -70 187z" />
    <glyph glyph-name="B" unicode="B" horiz-adv-x="554" 
d="M513 193q0 -91 -61 -143.5t-150 -52.5h-63q-175 0 -175 152v427q27 10 80 20t87 10h70q90 0 146 -45t56 -121q0 -88 -69 -122q35 -21 57 -56t22 -69zM359 431q0 51 -74 51h-43q-8 0 -36 -4v-103h75q78 0 78 56zM369 189q0 38 -20 53t-64 15h-78v-104q0 -10 10.5 -16
t26.5 -6h46q39 0 59 15.5t20 42.5z" />
    <glyph glyph-name="C" unicode="C" horiz-adv-x="540" 
d="M498 422q-82 62 -177 62q-71 0 -118 -48t-47 -124q0 -91 46 -140t123 -49q79 0 171 57v-58q0 -43 -29 -72.5t-70 -42t-87 -12.5q-124 0 -211 84t-87 217q0 140 85.5 228.5t222.5 88.5q80 0 129 -34t49 -99v-58z" />
    <glyph glyph-name="D" unicode="D" horiz-adv-x="604" 
d="M566 311q0 -137 -79.5 -226.5t-199.5 -89.5h-48q-82 0 -128 35t-46 107v443q25 9 74.5 17.5t81.5 8.5h60q73 0 136 -30.5t106 -99.5t43 -165zM420 295q0 87 -43.5 136t-113.5 49h-24l-30 -4v-318q0 -34 43 -34h20q64 0 106 49t42 122z" />
    <glyph glyph-name="E" unicode="E" horiz-adv-x="512" 
d="M490 140v-59q0 -44 -30.5 -64.5t-110.5 -20.5h-61q-112 0 -170 60.5t-58 178.5v106q0 92 11 164q8 53 33.5 76t69.5 23h315v-53q0 -75 -92 -75h-185q-5 -42 -7 -106h222v-55q0 -36 -20.5 -51.5t-63.5 -15.5h-138v-20q0 -64 23 -84.5t85 -20.5h36q66 0 141 17z" />
    <glyph glyph-name="F" unicode="F" horiz-adv-x="453" 
d="M448 554q0 -29 -21 -52t-59 -23h-163v-113h208v-49q0 -33 -21.5 -52.5t-48.5 -19.5h-133v-245h-62q-39 0 -61 20.5t-22 60.5v420q0 60 25 81.5t86 21.5h272v-50z" />
    <glyph glyph-name="G" unicode="G" horiz-adv-x="592" 
d="M550 148q0 -159 -206 -159q-125 0 -213.5 84.5t-88.5 221.5t90 228t240 91q82 0 125.5 -38.5t43.5 -88.5v-54q-90 48 -183 48q-73 0 -121 -48t-48 -122q0 -96 46 -142t122 -46q31 0 43 10t12 30v46q0 19 -3 43.5t-6 39.5l-3 15h77q28 0 50.5 -21t22.5 -45v-93z" />
    <glyph glyph-name="H" unicode="H" horiz-adv-x="619" 
d="M554 0h-62q-33 0 -57 24.5t-24 67.5v155h-203v-247h-59q-36 0 -60 24.5t-24 67.5v512h70q30 0 51 -22t21 -53v-157h204v232h66q29 0 53 -21t24 -54v-529z" />
    <glyph glyph-name="I" unicode="I" horiz-adv-x="280" 
d="M211 0h-59q-33 0 -58.5 24.5t-25.5 66.5v513h66q29 0 53 -21.5t24 -53.5v-529z" />
    <glyph glyph-name="J" unicode="J" horiz-adv-x="365" 
d="M310 169q0 -81 -47 -130.5t-139 -49.5q-52 0 -86 24.5t-34 57.5v66q39 -18 105 -18q30 0 43 13.5t13 41.5v430h54q91 0 91 -92v-343z" />
    <glyph glyph-name="K" unicode="K" horiz-adv-x="556" 
d="M116 604q46 0 68.5 -26t22.5 -65v-134q88 128 140 185q26 27 43 33.5t56 6.5h93v-25q-34 -34 -102 -116t-112 -143l23 -35q33 -48 46.5 -67t43 -54.5t57.5 -58.5q23 -17 56 -25q-12 -45 -32.5 -64t-60.5 -19q-52 0 -91 42q-81 93 -160 216v-255h-53q-46 0 -67.5 26.5
t-21.5 66.5v511h51z" />
    <glyph glyph-name="L" unicode="L" horiz-adv-x="477" 
d="M472 93q0 -49 -29 -73.5t-105 -24.5h-44q-109 0 -166.5 58.5t-57.5 168.5v382h61q86 0 86 -98v-276q0 -59 18.5 -82t72.5 -23h30q66 0 134 29v-61z" />
    <glyph glyph-name="M" unicode="M" horiz-adv-x="802" 
d="M748 0h-57q-40 0 -64.5 23.5t-24.5 67.5q0 122 -15 283l-6 -15q-30 -95 -80 -247q-22 -68 -53 -112h-39q-72 0 -106 101l-82 243q-8 24 -12 33q-17 -164 -17 -377h-55q-39 0 -63 24t-24 67q0 96 15.5 258.5t32.5 254.5h37q65 0 109 -28t62 -79l81 -225q5 -16 9 -25.5
t5 -11.5t2 -6t3 -14q0 1 1 3.5t2 3.5q3 10 28.5 87.5t37.5 116.5q46 138 99 178h18q112 0 129 -131q8 -76 17.5 -231t9.5 -242z" />
    <glyph glyph-name="N" unicode="N" horiz-adv-x="627" 
d="M562 0h-59q-46 0 -86.5 30.5t-91.5 128.5q-113 220 -116 226v-385h-60q-33 0 -58.5 24t-25.5 66v514h71q113 0 176 -125q10 -20 48 -97t60 -120v342h65q28 0 52.5 -24t24.5 -57v-523z" />
    <glyph glyph-name="O" unicode="O" horiz-adv-x="651" 
d="M609 311q0 -141 -77.5 -231.5t-212.5 -90.5q-117 0 -197 85.5t-80 218.5q0 144 77.5 232.5t212.5 88.5q115 0 196 -82.5t81 -220.5zM462 295q0 93 -36.5 141t-104.5 48q-58 0 -95 -46.5t-37 -126.5q0 -193 141 -193q62 0 97 45.5t35 131.5z" />
    <glyph glyph-name="P" unicode="P" horiz-adv-x="514" 
d="M499 415q0 -96 -59 -153.5t-149 -57.5q-47 0 -82 12v-216h-60q-33 0 -58.5 23.5t-25.5 72.5v481q31 11 82.5 21t81.5 10h65q92 0 148.5 -51t56.5 -142zM352 405q0 41 -17 59t-55 18h-37q-10 0 -34 -6v-140q27 -6 67 -6q37 0 56.5 19.5t19.5 55.5z" />
    <glyph glyph-name="Q" unicode="Q" horiz-adv-x="658" 
d="M553 -80q-64 0 -147 22t-139 52q-87 17 -156 96.5t-69 203.5q0 141 74.5 230.5t219.5 89.5q112 0 192.5 -82t80.5 -221q0 -90 -37 -158.5t-91 -100.5q75 -12 149 -12v-51q0 -69 -77 -69zM462 297q0 187 -140 187q-62 0 -97.5 -47.5t-35.5 -125.5q0 -97 38.5 -145.5
t108.5 -48.5q58 0 92 51t34 129z" />
    <glyph glyph-name="R" unicode="R" horiz-adv-x="541" 
d="M515 36v-17q-13 -14 -26 -18.5t-40 -4.5q-73 0 -98 59l-43 104q-16 38 -31 49.5t-37 14.5q-14 2 -20 3h-1q-5 1 -8.5 2t-4.5 1.5t-3 0.5h-5v-230h-51q-45 0 -69 25t-24 67v491q23 9 76.5 17.5t86.5 8.5h64q92 0 147.5 -50t55.5 -129q0 -55 -26.5 -98.5t-70.5 -60.5
q30 -24 49 -70q29 -66 46 -107q11 -27 28 -49zM267 481h-32q-17 0 -37 -3v-128q21 -2 68 -2q31 0 52 17t21 46q0 40 -18.5 55t-53.5 15z" />
    <glyph glyph-name="S" unicode="S" horiz-adv-x="514" 
d="M468 193q0 -93 -60.5 -148.5t-170.5 -55.5q-92 0 -141 34.5t-49 93.5l2 84q91 -80 175 -80q100 0 100 61q0 25 -23 38.5t-102 30.5q-165 36 -165 162q0 82 63.5 141.5t167.5 59.5q100 0 143.5 -35.5t43.5 -84.5l-5 -86q-72 76 -162 76q-108 0 -108 -60q0 -21 26 -34.5
t97 -28.5q168 -36 168 -168z" />
    <glyph glyph-name="T" unicode="T" horiz-adv-x="497" 
d="M490 554q0 -27 -25 -53t-58 -26h-92v-475h-60q-38 0 -61 24t-23 68v383h-166v52q0 29 22.5 53t61.5 24h401v-50z" />
    <glyph glyph-name="U" unicode="U" horiz-adv-x="602" 
d="M551 274q0 -136 -64.5 -210.5t-192.5 -74.5q-112 0 -178 72.5t-66 202.5v340h59q36 0 60.5 -28.5t24.5 -91.5v-213q0 -74 27 -109.5t85 -35.5q100 0 100 141v337h59q40 0 63 -29.5t23 -87.5v-213z" />
    <glyph glyph-name="V" unicode="V" horiz-adv-x="554" 
d="M457 274q-72 -176 -137 -278h-18q-62 0 -97 53q-67 113 -121.5 266t-74.5 289h83q37 0 59.5 -21t27.5 -54v1q31 -170 102 -325q85 194 116 399h76q28 0 46 -17t18 -47q0 -25 -25.5 -111.5t-54.5 -154.5z" />
    <glyph glyph-name="W" unicode="W" horiz-adv-x="834" 
d="M759 302v-1q-49 -157 -134 -306h-37q-43 0 -67 44q-59 105 -103 263q-45 -173 -126 -307h-35q-47 0 -71 44q-64 114 -110.5 264t-66.5 301h82q33 0 55.5 -23.5t28.5 -54.5q28 -167 80 -297q60 153 97 353h51q36 0 65 -21t39 -66q27 -135 81 -267q71 186 95 375h72
q28 0 46 -17.5t18 -49.5q0 -38 -60 -234z" />
    <glyph glyph-name="X" unicode="X" horiz-adv-x="612" 
d="M597 34q-18 -21 -38 -31t-56 -10q-42 0 -78.5 27.5t-80.5 91.5q-10 14 -30 43t-32 47q-86 -109 -110 -202h-68q-28 0 -45 17.5t-17 41.5q0 44 21 88.5t92 120.5l46 52q-7 9 -28.5 38.5t-32.5 45.5q-87 122 -110 200h98q59 0 128 -104l59 -88q61 71 85 110.5t35 82.5h55
q66 0 66 -72q0 -32 -39.5 -88t-121.5 -151q11 -16 35.5 -50.5t35.5 -51.5q25 -34 71 -86.5t60 -71.5z" />
    <glyph glyph-name="Y" unicode="Y" horiz-adv-x="518" 
d="M503 545q0 -32 -61.5 -134t-107.5 -156v-255h-63q-33 0 -58.5 24t-25.5 66v165q-51 67 -102 164.5t-80 184.5h75q36 0 59 -14.5t31 -33.5q43 -101 97 -183q82 121 113 231h62q30 0 45.5 -16t15.5 -43z" />
    <glyph glyph-name="Z" unicode="Z" horiz-adv-x="534" 
d="M494 74q0 -29 -21 -51.5t-58 -22.5h-288q-38 0 -62.5 23t-24.5 64q0 62 91 162q25 30 75 86.5t67 75.5q39 42 50 64h-283v45q0 42 23.5 63t76.5 21h262q91 0 91 -89q0 -27 -20.5 -66.5t-52.5 -76.5q-32 -36 -141 -159q-51 -56 -66 -83h281v-56z" />
    <glyph glyph-name="bracketleft" unicode="[" horiz-adv-x="309" 
d="M298 -141h-219v767h156q30 0 46.5 -17t16.5 -45v-41h-106v-562h47q26 0 42.5 -16t16.5 -45v-41z" />
    <glyph glyph-name="backslash" unicode="\" horiz-adv-x="398" 
d="M398 0h-68q-30 0 -62 21.5t-49 60.5l-215 515h75q25 0 53.5 -19t41.5 -48q35 -84 111.5 -265t112.5 -265z" />
    <glyph glyph-name="bracketright" unicode="]" horiz-adv-x="309" 
d="M230 -141h-219v41q0 29 17 45t43 16h47v562h-107v41q0 28 17 45t47 17h155v-767z" />
    <glyph glyph-name="asciicircum" unicode="^" horiz-adv-x="467" 
d="M405 366q-18 -23 -37 -23q-26 1 -49.5 15t-32.5 34q-11 32 -56 109q-60 -92 -87 -155h-25q-25 0 -40.5 13t-15.5 33q0 19 49 100t96 134h23q31 0 87.5 -85.5t87.5 -174.5z" />
    <glyph glyph-name="underscore" unicode="_" horiz-adv-x="502" 
d="M502 -238h-502v98h502v-98z" />
    <glyph glyph-name="grave" unicode="`" horiz-adv-x="518" 
d="M137 606q0 57 60 57q43 0 84 -41.5t71 -107.5h-51q-61 0 -112.5 27.5t-51.5 64.5z" />
    <glyph glyph-name="a" unicode="a" horiz-adv-x="465" 
d="M424 160q0 -74 -49.5 -121t-126.5 -47h-21q-82 0 -134 42.5t-52 107.5q0 148 227 148h23q-2 31 -20 43.5t-57 12.5q-49 0 -92.5 -15.5t-61.5 -33.5v48q0 47 42 83t127 36q86 0 140.5 -47.5t54.5 -158.5v-98zM292 159v27h-24q-50 0 -69.5 -9.5t-19.5 -30.5q0 -39 59 -39
q54 0 54 52z" />
    <glyph glyph-name="b" unicode="b" horiz-adv-x="551" 
d="M509 237q0 -105 -62.5 -175.5t-163.5 -70.5q-90 0 -153 65.5t-63 165.5v405h51q39 0 61.5 -22t22.5 -66v-113q44 40 101 40q89 0 147.5 -64.5t58.5 -164.5zM371 219q0 67 -22 95.5t-66 28.5q-34 0 -57 -30.5t-23 -74.5q0 -125 90 -125q34 0 56 30t22 76z" />
    <glyph glyph-name="c" unicode="c" horiz-adv-x="447" 
d="M417 289q-72 45 -134 45q-41 0 -71.5 -29t-30.5 -70q0 -52 28 -84t75 -32q10 0 20.5 1t18 2t18 4.5t15 4.5t16 6.5t14 6.5t15.5 7t14 7v-63q0 -46 -38.5 -74.5t-102.5 -28.5q-95 0 -163.5 65.5t-68.5 162.5q0 101 66 170.5t178 69.5q56 0 93.5 -31t37.5 -76v-64z" />
    <glyph glyph-name="d" unicode="d" horiz-adv-x="537" 
d="M472 211q0 -220 -220 -220q-90 0 -151 67t-61 162q0 114 53.5 180t152.5 66q51 0 92 -39v200h47q43 0 65 -23.5t22 -63.5v-329zM337 216q0 68 -25 100t-65 32q-34 0 -54.5 -30.5t-20.5 -77.5q0 -59 26.5 -95.5t66.5 -36.5q72 0 72 108z" />
    <glyph glyph-name="e" unicode="e" horiz-adv-x="487" 
d="M449 286q0 -66 -50 -92t-165 -26h-51q20 -60 101 -60q75 0 149 41v-48q0 -110 -169 -110q-89 0 -156.5 64t-67.5 165q0 111 62 178.5t161 67.5q75 0 130.5 -50t55.5 -130zM320 299q0 50 -66 50q-32 0 -53 -23t-23 -55h33q65 0 87 6t22 22z" />
    <glyph glyph-name="f" unicode="f" horiz-adv-x="331" 
d="M341 475q-60 10 -79 10q-62 0 -62 -58v-24h121v-44q0 -33 -27.5 -53.5t-61.5 -20.5h-32v-285h-57q-32 0 -55 22t-23 55v358q0 27 9.5 55t29.5 55t56.5 44t84.5 17q41 0 68.5 -22t27.5 -59v-50z" />
    <glyph glyph-name="g" unicode="g" horiz-adv-x="530" 
d="M462 191q0 -35 1 -55q2 -40 2 -57q0 -92 -58.5 -154.5t-164.5 -62.5q-71 0 -116.5 31.5t-45.5 76.5v62q88 -46 154 -46q98 0 98 85v10q-37 -34 -98 -34q-84 0 -137.5 52.5t-53.5 134.5q0 99 62 165.5t169 66.5q85 0 136.5 -56t51.5 -146v-73zM262 343q-35 0 -58.5 -27
t-23.5 -69q0 -36 20 -59.5t51 -23.5q34 0 55.5 25.5t21.5 68.5q0 41 -18 63t-48 22z" />
    <glyph glyph-name="h" unicode="h" horiz-adv-x="539" 
d="M474 0h-49q-40 0 -63.5 22.5t-23.5 63.5v173q0 43 -19.5 63.5t-50.5 20.5q-24 0 -43.5 -21.5t-19.5 -65.5v-256h-49q-86 0 -86 86v513h47q44 0 66.5 -22.5t22.5 -59.5v-85q38 34 78 34q90 0 140 -52.5t50 -149.5v-264z" />
    <glyph glyph-name="i" unicode="i" horiz-adv-x="308" 
d="M223 534q0 -31 -23 -53.5t-55 -22.5q-31 0 -53 22.5t-22 53.5t22 53.5t53 22.5q32 0 55 -22.5t23 -53.5zM298 74q0 -42 -18 -60t-59 -18q-69 0 -105.5 37.5t-36.5 109.5v304h45q89 0 89 -94v-199q0 -24 11.5 -33.5t39.5 -9.5h34v-37z" />
    <glyph glyph-name="j" unicode="j" horiz-adv-x="272" 
d="M207 536q-1 -32 -22.5 -54.5t-52.5 -22.5q-32 0 -54.5 22.5t-22.5 54.5q0 31 22.5 53.5t54.5 22.5q31 0 53 -22.5t22 -53.5zM197 17q0 -73 -44 -114.5t-115 -41.5q-36 0 -59 18.5t-23 44.5v52q28 0 43 1t32 6t24 15.5t7 28.5v420h44q43 0 67 -22.5t24 -66.5v-341z" />
    <glyph glyph-name="k" unicode="k" horiz-adv-x="498" 
d="M118 599q87 0 87 -85v-215q70 90 107 125q33 32 94 32h75q-13 -22 -44 -60.5t-71 -85.5t-55 -66q12 -14 18 -22v1q61 -74 80 -94q37 -38 89 -55q-12 -39 -32 -58t-57 -19q-47 0 -80 35v-1q-56 58 -124 149v-179l-48 -1q-87 -3 -87 90v509h48z" />
    <glyph glyph-name="l" unicode="l" horiz-adv-x="300" 
d="M305 74q0 -78 -86 -78q-73 0 -111 37.5t-38 109.5v456h44q44 0 67 -24t23 -62v-359q0 -24 13.5 -33.5t44.5 -9.5h43v-37z" />
    <glyph glyph-name="m" unicode="m" horiz-adv-x="780" 
d="M715 0h-41q-94 0 -94 91v165q0 87 -64 87q-27 0 -42.5 -19t-15.5 -55v-269h-43q-42 0 -66.5 23.5t-24.5 67.5v165q0 44 -18 65.5t-47 21.5q-26 0 -42.5 -20.5t-16.5 -56.5v-266h-42q-40 0 -66 24.5t-26 66.5v166q0 97 52 153t153 56q76 0 129 -58q48 58 124 58
q83 0 137 -50.5t54 -144.5v-271z" />
    <glyph glyph-name="n" unicode="n" horiz-adv-x="534" 
d="M469 0h-43q-41 0 -66.5 23.5t-25.5 60.5v170q0 89 -72 89q-28 0 -45.5 -22t-17.5 -60v-261h-46q-39 0 -63.5 24t-24.5 60v185q0 80 53 138.5t153 58.5q84 0 141 -54.5t57 -148.5v-263z" />
    <glyph glyph-name="o" unicode="o" horiz-adv-x="521" 
d="M40 220q0 106 59.5 176t165.5 70q99 0 157.5 -68t58.5 -163q0 -106 -59 -175t-166 -69q-99 0 -157.5 67t-58.5 162zM343 220q0 122 -87 122q-38 0 -58 -29.5t-20 -77.5q0 -121 87 -121q38 0 58 29t20 77z" />
    <glyph glyph-name="p" unicode="p" horiz-adv-x="541" 
d="M501 240q0 -112 -54.5 -180.5t-152.5 -68.5q-55 0 -93 36v-162h-47q-36 0 -62.5 24.5t-26.5 63.5v258q0 119 56 187t171 68q89 0 149 -68.5t60 -157.5zM363 213q0 68 -21 99t-66 31q-36 0 -56.5 -30t-20.5 -80q0 -57 25 -88.5t66 -31.5q32 0 52.5 28t20.5 72z" />
    <glyph glyph-name="q" unicode="q" horiz-adv-x="539" 
d="M271 466q98 0 150.5 -61t52.5 -169v-371l-49 1q-83 2 -83 85v70q-38 -30 -90 -30q-88 0 -150 63t-62 161q0 109 64 180t167 71zM257 343q-34 0 -58.5 -29.5t-24.5 -78.5q0 -59 23 -90.5t65 -31.5q80 0 80 110q0 120 -85 120z" />
    <glyph glyph-name="r" unicode="r" horiz-adv-x="349" 
d="M339 324q-13 2 -29.5 5.5t-27.5 5.5t-23 2q-59 0 -59 -78v-259h-44q-42 0 -66.5 21t-24.5 61v197q0 76 42.5 128.5t128.5 52.5q52 0 77.5 -25t25.5 -59v-52z" />
    <glyph glyph-name="s" unicode="s" horiz-adv-x="434" 
d="M395 149q0 -75 -50 -116.5t-142 -41.5q-64 0 -108 29.5t-44 68.5v62q90 -41 146 -41q64 0 64 33q0 12 -16 19t-60 13q-146 21 -146 129q0 67 54.5 114.5t140.5 47.5q74 0 112.5 -32.5t38.5 -73.5v-55q-82 40 -141 40q-71 0 -71 -33q0 -10 14 -15.5t59 -12.5
q149 -25 149 -135z" />
    <glyph glyph-name="t" unicode="t" horiz-adv-x="367" 
d="M70 424q0 48 29 88t65 40h40v-96h148v-58q0 -24 -21 -44t-58 -20h-69v-154q0 -62 52 -62q36 0 96 15v-52q0 -40 -28 -63t-81 -23q-86 0 -129.5 45t-43.5 128v256z" />
    <glyph glyph-name="u" unicode="u" horiz-adv-x="533" 
d="M468 205q0 -214 -201 -214q-88 0 -145 55.5t-57 152.5v257h34q101 0 101 -90v-157q0 -49 20 -72.5t52 -23.5q60 0 60 89v254h34q102 0 102 -90v-161z" />
    <glyph glyph-name="v" unicode="v" horiz-adv-x="443" 
d="M428 391q0 -33 -51.5 -170.5t-115.5 -225.5h-28q-48 0 -81 49q-47 70 -91.5 195.5t-51.5 216.5h71q30 0 51.5 -19.5t26.5 -42.5q21 -120 67 -221q59 133 81 283h58q34 0 49 -15.5t15 -49.5z" />
    <glyph glyph-name="w" unicode="w" horiz-adv-x="676" 
d="M661 398q0 -15 -14 -68.5t-36 -114.5q-45 -130 -104 -220h-26q-45 0 -82.5 59.5t-61.5 144.5q-42 -133 -92 -204h-22q-50 0 -88 64q-95 164 -126 397h73q29 0 50 -20t26 -44q18 -112 54 -197q35 85 69 245h46q31 0 55.5 -17.5t33.5 -53.5q31 -121 54 -175q43 105 69 264
h56q66 0 66 -60z" />
    <glyph glyph-name="x" unicode="x" horiz-adv-x="477" 
d="M465 61q0 -29 -22 -48.5t-62 -19.5q-38 0 -66.5 21t-59.5 68l-35 55q-33 -39 -47 -69.5t-19 -69.5h-61q-24 0 -41 15.5t-17 37.5q0 40 20.5 74.5t66.5 83.5l27 29q-29 43 -39 56q-42 60 -60 93.5t-20 68.5h78q44 0 106 -87l34 -48q41 48 54.5 73t18.5 61h52
q30 0 44 -16.5t14 -42.5q0 -50 -112 -176q6 -10 20.5 -29.5t20.5 -29.5v1q33 -48 52.5 -66.5t52.5 -34.5z" />
    <glyph glyph-name="y" unicode="y" horiz-adv-x="438" 
d="M328 100q-61 -144 -103.5 -191.5t-107.5 -47.5q-36 0 -62.5 22.5t-26.5 58.5v33l74 5q23 2 34 13.5t26 48.5q-43 66 -91.5 199t-60.5 215h73q28 0 50 -17t26 -44q24 -123 70 -216q54 134 71 277h59q64 0 64 -64q0 -31 -35.5 -134t-59.5 -158z" />
    <glyph glyph-name="z" unicode="z" horiz-adv-x="445" 
d="M405 64q0 -25 -22 -44.5t-47 -19.5h-209q-43 0 -65 19t-22 52q0 52 69 126l108 117q2 2 9.5 11.5t12.5 13.5h-199v47q0 31 21.5 50.5t62.5 19.5h194q41 0 61 -20.5t20 -48.5q0 -60 -58 -122l-108 -116q-21 -22 -24 -29h196v-56z" />
    <glyph glyph-name="braceleft" unicode="{" horiz-adv-x="341" 
d="M110 142q0 43 -34 48q-6 1 -25 4.5t-27 4.5v44q0 42 52 50q32 5 32 48q0 16 -2 48q-2 34 -2 51q0 88 31 137t111 49h84v-48q0 -25 -15 -40.5t-43 -15.5h-14q-15 0 -23.5 -8t-12 -26.5t-4 -29.5t-0.5 -35q0 -9 2 -37q0 -7 0.5 -22.5t0.5 -23.5q0 -76 -43 -102
q45 -29 45 -99q0 -6 -3 -42q-2 -24 -2 -39q0 -20 1 -33t4 -29.5t11 -25t20 -8.5h77v-48q0 -26 -19.5 -40.5t-43.5 -14.5h-22q-82 0 -112 49.5t-30 138.5q0 28 3 52q3 22 3 43z" />
    <glyph glyph-name="bar" unicode="|" horiz-adv-x="245" 
d="M162 -141h-31q-18 0 -33 14t-15 37v716h30q19 0 34 -13t15 -35v-719z" />
    <glyph glyph-name="braceright" unicode="}" horiz-adv-x="340" 
d="M230 142q0 -20 3 -43q4 -32 4 -52q0 -89 -30.5 -138.5t-111.5 -49.5h-22q-24 0 -43.5 14.5t-19.5 40.5v48h76q13 0 21 8.5t11 25t4 29.5t1 33q0 21 -3 39q-3 36 -3 42q0 73 46 100q-44 32 -44 101q0 18 2 46q1 14 1 37q0 25 -0.5 35t-3.5 29t-12 27t-24 8h-14
q-28 0 -42.5 15.5t-14.5 40.5v48h84q80 0 111 -49t31 -137q0 -8 -0.5 -16.5t-1.5 -18.5t-1 -16q-2 -32 -2 -48q0 -43 32 -48q28 -4 40 -16t12 -34v-44l-52 -9q-16 -2 -25 -15.5t-9 -32.5z" />
    <glyph glyph-name="asciitilde" unicode="~" horiz-adv-x="540" 
d="M471 285q0 -50 -33.5 -83.5t-90.5 -33.5q-39 0 -93 32h1q-32 20 -58 20q-13 0 -22 -16.5t-9 -44.5h-41q-23 0 -39 17.5t-16 50.5q0 61 38 91.5t84 30.5q42 0 96 -32h-1q38 -23 58 -23q31 0 31 59h47q18 0 33 -20.5t15 -47.5z" />
    <glyph glyph-name="uni00A0" unicode="&#xa0;" horiz-adv-x="120" 
 />
    <glyph glyph-name="exclamdown" unicode="&#xa1;" horiz-adv-x="320" 
d="M221 284l9 -325q0 -41 -21.5 -63t-60.5 -22h-65l9 324q2 39 23 62.5t57 23.5h49zM249 396q0 -36 -25.5 -62t-60.5 -26q-36 0 -62 26t-26 62q0 35 26 61t62 26q35 0 60.5 -26t25.5 -61z" />
    <glyph glyph-name="cent" unicode="&#xa2;" horiz-adv-x="529" 
d="M279 561q63 0 63 -69v-37q40 -8 66 -35t26 -65v-67q-39 24 -67 34.5t-67 10.5q-41 0 -70 -28.5t-29 -69.5q0 -52 27.5 -83.5t74.5 -31.5q58 0 129 38v-65q0 -32 -24 -58t-66 -36v-111h-30q-33 0 -51 18.5t-18 51.5v40q-77 17 -128.5 78t-51.5 143q0 85 47.5 149.5
t132.5 83.5v109h36z" />
    <glyph glyph-name="sterling" unicode="&#xa3;" horiz-adv-x="533" 
d="M254 125h219v-51q0 -74 -97 -74h-311v45q0 23 33 69q42 57 42 91q0 17 -3 33h-103v35q0 76 76 76h3q-6 32 -6 61q0 82 60 134.5t154 52.5q51 0 87.5 -29t36.5 -67v-56q-75 24 -124 24q-30 0 -49 -18.5t-19 -50.5q0 -24 5 -51h154v-42q0 -33 -21 -51t-56 -18h-62
q1 -6 1 -23q0 -48 -20 -90z" />
    <glyph glyph-name="currency" unicode="&#xa4;" horiz-adv-x="568" 
d="M495 138l-78 -59l-69 93q-29 -17 -69 -17q-28 0 -52 8q-8 -11 -19.5 -26.5t-24 -32.5t-18.5 -25l-81 58l65 78q-30 40 -30 109q0 59 33 104q-9 11 -33.5 41t-34.5 43l80 57l63 -85q26 11 65 11q28 0 61 -11q28 36 66 86l76 -57l-66 -85q24 -38 24 -99q0 -57 -29 -101
q60 -77 71 -90zM356 329q0 81 -73 81q-29 0 -48 -22.5t-19 -61.5q0 -87 71 -87q29 0 49 24.5t20 65.5z" />
    <glyph glyph-name="yen" unicode="&#xa5;" horiz-adv-x="533" 
d="M505 543q0 -43 -130 -200h103v-50q0 -21 -19.5 -36.5t-48.5 -15.5h-76v-39h144v-50q0 -19 -20 -35.5t-48 -16.5h-76v-100h-61q-25 0 -45.5 20.5t-20.5 50.5v29h-140v44q0 25 17.5 41.5t49.5 16.5h73v39h-140v45q0 24 17.5 40.5t49.5 16.5h35q-111 146 -146 254h73
q63 0 87 -41q43 -89 94 -154q69 84 117 195h55q27 0 41.5 -15.5t14.5 -38.5z" />
    <glyph glyph-name="brokenbar" unicode="&#xa6;" horiz-adv-x="274" 
d="M173 267h-31q-18 0 -33 14.5t-15 37.5v307h30q19 0 34 -13t15 -35v-311zM173 -141h-31q-19 0 -33.5 14t-14.5 37v308h30q19 0 34 -13t15 -35v-311z" />
    <glyph glyph-name="section" unicode="&#xa7;" horiz-adv-x="543" 
d="M469 246q0 -32 -15 -61t-38 -45q38 -38 38 -90q0 -77 -51.5 -121.5t-150.5 -44.5q-74 0 -116.5 32.5t-42.5 78.5v59q93 -56 155 -56q68 0 68 42q0 17 -21 30t-98 39q-122 44 -122 142q0 65 63 104q-45 33 -45 97q0 67 56.5 110t152.5 43q58 0 94.5 -29t36.5 -72l-4 -72
q-64 61 -137 61q-30 0 -47.5 -10t-17.5 -21q0 -18 16 -29.5t72 -31.5q73 -27 113.5 -61.5t40.5 -93.5zM297 276l-2 1q-1 1 -2 1h-2q-53 17 -75 27q-17 -14 -17 -34q0 -16 13 -28.5t27.5 -19.5t45.5 -18q47 -17 48 -17q12 15 12 40q0 30 -48 48z" />
    <glyph glyph-name="dieresis" unicode="&#xa8;" horiz-adv-x="473" 
d="M399 582q0 -30 -22 -52t-52 -22t-52 22t-22 52q0 29 22 50.5t52 21.5t52 -21.5t22 -50.5zM221 582q0 -30 -22 -52t-51 -22q-31 0 -52.5 22t-21.5 52q0 29 21.5 50.5t52.5 21.5q29 0 51 -21.5t22 -50.5z" />
    <glyph glyph-name="copyright" unicode="&#xa9;" horiz-adv-x="726" 
d="M662 289q0 -124 -88 -211.5t-211 -87.5q-124 0 -211.5 87.5t-87.5 211.5t87.5 212t211.5 88q123 0 211 -88t88 -212zM579 289q0 90 -63.5 153.5t-152.5 63.5t-152.5 -63.5t-63.5 -153.5q0 -89 63.5 -152t152.5 -63t152.5 63t63.5 152zM499 335q-68 34 -106 34
q-34 0 -56 -21.5t-22 -55.5q0 -42 21 -63.5t57 -21.5q32 0 104 31v-46q0 -40 -39 -62.5t-79 -22.5q-26 0 -54.5 8.5t-58 27t-49 55t-19.5 85.5q0 24 7.5 51.5t25.5 59.5t56.5 53t91.5 21q51 0 85.5 -23t34.5 -65v-45z" />
    <glyph glyph-name="ordfeminine" unicode="&#xaa;" horiz-adv-x="382" 
d="M315 386q0 -53 -34.5 -86.5t-88.5 -33.5h-13q-56 0 -91.5 30.5t-35.5 77.5q0 107 154 107h4q-5 20 -39 20q-16 0 -32 -3.5t-24 -6.5t-27.5 -11.5t-24.5 -10.5v40q0 35 30 61.5t88 26.5q59 0 96.5 -33.5t37.5 -111.5v-66zM212 385v10h-6q-48 0 -48 -18t28 -18q26 0 26 26z
" />
    <glyph glyph-name="guillemotleft" unicode="&#xab;" horiz-adv-x="421" 
d="M400 60h-43q-72 0 -99 46q-10 16 -38 60t-41 66l79 128q28 43 99 43h43l-99 -171q16 -28 51.5 -89.5t47.5 -82.5zM247 60h-45q-70 0 -99 46v-1q-38 53 -88 127l88 129q29 42 99 42h44l-109 -171q53 -82 110 -172z" />
    <glyph glyph-name="logicalnot" unicode="&#xac;" horiz-adv-x="567" 
d="M507 396v-324h-135v188h-332v136h467z" />
    <glyph glyph-name="registered" unicode="&#xae;" horiz-adv-x="717" 
d="M653 289q0 -124 -88 -211.5t-212 -87.5t-211.5 87.5t-87.5 211.5t87.5 212t211.5 88t212 -88t88 -212zM570 289q0 90 -63.5 153.5t-153.5 63.5q-89 0 -152.5 -63.5t-63.5 -153.5q0 -89 63.5 -152t152.5 -63q90 0 153.5 63t63.5 152zM512 151l-5 -11q-23 -22 -56 -22
q-21 0 -35.5 5.5t-24.5 18t-14.5 20.5t-12.5 27q-6 15 -8.5 21.5t-10 15t-17.5 11.5v-119h-47q-34 0 -52.5 18t-18.5 47v270q51 19 111 19h36q59 0 95.5 -31t36.5 -81q0 -59 -47 -86q12 -12 29 -48q7 -20 9 -23q2 -5 19 -27q13 -17 13 -25zM371 351q0 25 -22 25h-19h-1h-1
v-41h20q23 0 23 16z" />
    <glyph glyph-name="macron" unicode="&#xaf;" horiz-adv-x="315" 
d="M282 620v-51q0 -21 -19.5 -38.5t-46.5 -17.5h-183v44q0 27 20 45t55 18h174z" />
    <glyph glyph-name="macron" unicode="&#x2c9;" horiz-adv-x="315" 
d="M282 620v-51q0 -21 -19.5 -38.5t-46.5 -17.5h-183v44q0 27 20 45t55 18h174z" />
    <glyph glyph-name="degree" unicode="&#xb0;" horiz-adv-x="391" 
d="M338 474q0 -59 -39 -98.5t-102 -39.5q-65 0 -104.5 39t-39.5 98q0 61 38.5 101t105.5 40q66 0 103.5 -39t37.5 -101zM234 474q0 20 -10 33.5t-28 13.5t-28 -14.5t-10 -33.5q0 -17 10.5 -30t27.5 -13q18 0 28 13t10 31z" />
    <glyph glyph-name="plusminus" unicode="&#xb1;" horiz-adv-x="514" 
d="M464 323q0 -26 -18 -43.5t-49 -17.5h-80v-131h-49q-26 0 -44.5 19.5t-18.5 54.5v57h-152v50q0 24 19.5 42t46.5 18h86v116h56q21 0 38.5 -17t17.5 -44v-55h147v-49zM450 47q0 -17 -16 -32t-39 -15h-331v47q0 23 16 38t45 15h325v-53z" />
    <glyph glyph-name="twosuperior" unicode="&#xb2;" horiz-adv-x="408" 
d="M282 224h-166q-26 0 -44.5 16.5t-18.5 41.5q0 47 67 102l78 61q16 16 16 28q0 23 -41 23q-30 0 -55 -13.5t-58 -49.5v68q0 46 34.5 75.5t107.5 29.5q64 0 102.5 -36t38.5 -86q0 -42 -17 -66.5t-67 -60.5q-11 -7 -14 -9q-5 -3 -7.5 -2.5t-14.5 -10.5h127v-49
q0 -29 -17.5 -45.5t-50.5 -16.5z" />
    <glyph glyph-name="threesuperior" unicode="&#xb3;" horiz-adv-x="350" 
d="M149 219q-51 0 -86.5 22t-35.5 68v54q74 -34 120 -34q36 0 36 13q0 11 -8.5 16t-35.5 7q-56 3 -56 53v36l63 6q24 3 29.5 6.5t5.5 11.5q0 20 -44 20q-33 0 -108 -35v55q0 37 34.5 63t99.5 26q58 0 99.5 -32t41.5 -85q0 -44 -34 -73q36 -30 36 -69q0 -62 -41.5 -95.5
t-115.5 -33.5z" />
    <glyph glyph-name="acute" unicode="&#xb4;" horiz-adv-x="482" 
d="M335 606q0 -37 -52 -64.5t-112 -27.5h-51q30 66 71 107.5t84 41.5q60 0 60 -57z" />
    <glyph glyph-name="mu" unicode="&#xb5;" horiz-adv-x="548" 
d="M493 220q0 -108 -49.5 -166.5t-134.5 -58.5q-59 0 -96 34v-156l-55 -1q-37 -1 -60.5 22t-23.5 63v518h36q106 0 106 -93v-159q0 -101 75 -101q62 0 62 94v259h34q106 0 106 -93v-162z" />
    <glyph glyph-name="mu" unicode="&#x3bc;" horiz-adv-x="548" 
d="M493 220q0 -108 -49.5 -166.5t-134.5 -58.5q-59 0 -96 34v-156l-55 -1q-37 -1 -60.5 22t-23.5 63v518h36q106 0 106 -93v-159q0 -101 75 -101q62 0 62 94v259h34q106 0 106 -93v-162z" />
    <glyph glyph-name="paragraph" unicode="&#xb6;" horiz-adv-x="487" 
d="M413 -10h-38q-28 0 -46 19.5t-18 60.5v425q0 8 -3.5 10.5t-14.5 2.5h-13v-518h-32q-31 0 -50.5 19t-19.5 61v165q-51 5 -99 49.5t-48 119.5q0 39 11.5 72t38 64t79 48.5t126.5 17.5q66 0 96.5 -24t30.5 -75v-517z" />
    <glyph glyph-name="periodcentered" unicode="&#xb7;" horiz-adv-x="251" 
d="M125 162q-36 0 -59.5 24t-23.5 61q0 38 23.5 63t60.5 25t60.5 -24.5t23.5 -63.5q0 -38 -23 -61.5t-61 -23.5h-1z" />
    <glyph glyph-name="periodcentered" unicode="&#x2219;" horiz-adv-x="251" 
d="M125 162q-36 0 -59.5 24t-23.5 61q0 38 23.5 63t60.5 25t60.5 -24.5t23.5 -63.5q0 -38 -23 -61.5t-61 -23.5h-1z" />
    <glyph glyph-name="cedilla" unicode="&#xb8;" horiz-adv-x="533" 
d="M383 -103q0 -54 -41 -80.5t-97 -26.5q-114 0 -114 71v42h24q31 -24 84 -24q37 0 37 15q0 13 -34 13q-11 0 -74 -7q10 34 14 51q11 37 17 77h85q0 -28 -1 -37q41 -5 70.5 -28.5t29.5 -65.5z" />
    <glyph glyph-name="onesuperior" unicode="&#xb9;" horiz-adv-x="365" 
d="M249 233h-60q-29 0 -48.5 19t-19.5 50v179q-1 0 -5 -1.5t-6 -2.5q-12 -4 -22 -4q-22 0 -38 11.5t-20 30.5l-6 37l102 44q29 11 61 11q24 0 43 -16t19 -43v-315z" />
    <glyph glyph-name="ordmasculine" unicode="&#xba;" horiz-adv-x="375" 
d="M337 435q0 -73 -40.5 -121t-112.5 -48q-66 0 -106.5 47t-40.5 112q0 74 40.5 122.5t112.5 48.5q66 0 106.5 -47.5t40.5 -113.5zM231 425q0 73 -47 73q-19 0 -30.5 -17t-11.5 -46q0 -71 48 -71q41 0 41 61z" />
    <glyph glyph-name="guillemotright" unicode="&#xbb;" horiz-adv-x="422" 
d="M64 60h-43l99 172q-29 51 -99 171h43q71 0 99 -43l80 -128l-80 -126q-27 -46 -99 -46zM220 60h-44l109 172q-82 126 -110 171h45q70 0 99 -42l88 -129l-88 -127q-32 -45 -99 -45z" />
    <glyph glyph-name="onequarter" unicode="&#xbc;" horiz-adv-x="766" 
d="M534 574q0 -22 -9 -40h1q-41 -88 -125.5 -267t-125.5 -267h-31q-23 0 -39.5 16t-16.5 43q0 23 12 49l242 518h39q22 0 37.5 -13.5t15.5 -38.5zM248 233h-59q-29 0 -48.5 19t-19.5 50v179q-2 -1 -6 -2.5t-5 -1.5q-12 -4 -22 -4q-22 0 -38.5 11.5t-20.5 30.5l-5 37l102 44
q29 11 61 11q24 0 42.5 -16t18.5 -43v-315zM693 75h-12v-75h-63q-66 0 -66 62v13h-77q-27 0 -48 16.5t-21 40.5q0 44 62.5 130t105.5 114h36q32 0 51.5 -19.5t19.5 -52.5v-119h70v-53q0 -25 -15.5 -41t-42.5 -16zM539 184h13v19q-2 -3 -6.5 -9.5t-6.5 -9.5z" />
    <glyph glyph-name="onehalf" unicode="&#xbd;" horiz-adv-x="818" 
d="M534 574q0 -22 -9 -40h1q-41 -88 -126 -267.5t-126 -266.5h-30q-23 0 -39.5 16t-16.5 43t12 49l242 518h39q22 0 37.5 -13.5t15.5 -38.5zM664 0h-166q-26 0 -44 16t-18 42q0 47 67 101l78 62q16 10 16 26q0 24 -41 24q-30 0 -55.5 -14.5t-57.5 -50.5v71q0 46 34.5 75.5
t106.5 29.5q64 0 103 -37t39 -87q0 -40 -17.5 -65.5t-66.5 -59.5q-2 -1 -5.5 -3t-4.5 -3v-1q-6 -3 -7 -3q-1 1 -18 -14h126v-49q0 -60 -69 -60zM189 233q-29 0 -48.5 19t-19.5 50v179q-2 -1 -6 -2t-6 -2q-11 -4 -21 -4q-22 0 -38.5 11.5t-20.5 30.5l-5 37l101 44
q29 11 62 11q24 0 42.5 -16t18.5 -43v-315h-59z" />
    <glyph glyph-name="threequarters" unicode="&#xbe;" horiz-adv-x="783" 
d="M758 132q0 -25 -15.5 -41t-41.5 -16h-12v-75h-64q-66 0 -66 62v13h-76q-27 0 -48.5 16.5t-21.5 40.5q0 44 62.5 130t106.5 114h36q31 0 51 -19.5t20 -52.5v-119h69v-53zM555 546q0 -22 -9 -41l1 1q-39 -83 -119 -253t-119 -253h-31q-23 0 -39.5 16t-16.5 43q0 21 12 49
q25 54 106.5 227.5t122.5 262.5h39q22 0 37.5 -13.5t15.5 -38.5zM559 184v19q-7 -14 -11 -19h11zM148 219q-50 0 -85.5 22t-35.5 68v54h27q32 -34 92 -34q37 0 37 13q0 11 -8.5 16t-35.5 7q-56 3 -56 53v36l63 6q16 2 24 4.5t9.5 5.5t1.5 8q0 20 -44 20q-49 0 -82 -35h-26
v55q0 37 34.5 63t99.5 26q58 0 99.5 -32t41.5 -85q0 -44 -34 -73q36 -30 36 -69q0 -62 -42 -95.5t-116 -33.5z" />
    <glyph glyph-name="questiondown" unicode="&#xbf;" horiz-adv-x="432" 
d="M158 391q0 35 25.5 60t60.5 25q34 0 59.5 -25t25.5 -60t-25 -60.5t-60 -25.5t-60.5 25.5t-25.5 60.5zM223 -145q-88 0 -138 45.5t-50 113.5q0 64 62 118l63 55q30 23 30 55v46h54q26 0 46 -19t20 -45q0 -33 -13 -58t-44 -53l-58 -51q-19 -18 -19 -37q0 -43 64 -43
q65 0 152 54v-54q0 -51 -44 -89t-125 -38z" />
    <glyph glyph-name="AE" unicode="&#xc6;" horiz-adv-x="807" 
d="M777 84q0 -47 -30.5 -69t-109.5 -22h-39q-105 0 -162.5 35t-71.5 123h-186q-21 -59 -45 -151h-57q-61 0 -61 54q0 9 2 21q11 77 99.5 267.5t162.5 260.5h497v-52q0 -34 -25.5 -54.5t-67.5 -20.5h-227q9 -50 17 -105h239v-55q0 -67 -84 -67h-143q1 -4 2.5 -12t2.5 -14.5
t1 -12.5q7 -50 26.5 -70t70.5 -20h49q73 0 140 26v-62zM319 458q-51 -78 -92 -186h120q-6 88 -28 186z" />
    <glyph glyph-name="Eth" unicode="&#xd0;" horiz-adv-x="614" 
d="M57 355v225q26 9 75 17.5t82 8.5h59q54 0 103.5 -18t91 -53t66.5 -93t25 -131q0 -137 -80 -226.5t-199 -89.5h-49q-82 0 -128 35t-46 107v111h-62v52q0 25 15 40t42 15h5zM320 355v-51q0 -56 -59 -56h-60v-90q0 -34 43 -34h20q65 0 106.5 49t41.5 122q0 87 -43 136
t-113 49h-25l-30 -4v-121h119z" />
    <glyph glyph-name="multiply" unicode="&#xd7;" horiz-adv-x="538" 
d="M138 41l-41 42q-18 17 -18 40q0 26 24 50l91 92l-43.5 43.5t-52 51.5t-42.5 43l40 40q18 18 43 18q25 -2 46 -21l93 -91l132 132l39 -42q19 -22 19 -42q0 -26 -21 -47l-86 -86l147 -147l-41 -41q-18 -18 -41 -18q-26 0 -50 24l-98 98q-94 -92 -140 -139z" />
    <glyph glyph-name="Thorn" unicode="&#xde;" horiz-adv-x="553" 
d="M367 305q0 39 -16.5 54t-55.5 15h-37q-16 0 -34 -3v-128q38 -4 67 -4q76 0 76 66zM80 604h67q29 0 53 -21.5t24 -53.5v-30q7 1 20 1h65q93 0 149 -47t56 -138q0 -96 -58 -149t-150 -53q-47 0 -82 8v-121h-60q-33 0 -58.5 23.5t-25.5 72.5v508z" />
    <glyph glyph-name="germandbls" unicode="&#xdf;" horiz-adv-x="577" 
d="M532 154q0 -75 -43.5 -118.5t-130.5 -43.5q-54 0 -86.5 25.5t-32.5 58.5v62q74 -22 105 -22q46 0 46 33q0 18 -10.5 29t-38.5 27q-46 23 -64.5 47t-18.5 64q0 64 75 110q35 20 35 42q0 40 -67 40q-39 0 -64.5 -30t-25.5 -86v-392h-50q-49 0 -70 22.5t-21 72.5v304
q0 111 64.5 172.5t171.5 61.5q92 0 147.5 -41.5t55.5 -118.5q0 -71 -75 -112q-31 -17 -40 -24.5t-9 -15.5q0 -10 66 -49q81 -48 81 -118z" />
    <glyph glyph-name="ae" unicode="&#xe6;" horiz-adv-x="758" 
d="M703 294q0 -69 -43.5 -94t-158.5 -25l-59 2q17 -66 99 -66t147 56v-64q0 -111 -160 -111q-98 0 -151 62q-44 -63 -132 -63h-22q-77 0 -122.5 40t-45.5 104q0 68 52.5 110t164.5 42h32q-1 32 -19.5 45.5t-58.5 13.5q-88 0 -152 -70v71q0 48 41.5 83.5t126.5 35.5
q99 0 141 -62q24 30 62 46.5t80 16.5q70 0 124 -47t54 -126zM515 351q-31 0 -52 -19.5t-24 -47.5v-1h29q4 0 9.5 -0.5t8.5 -0.5h14q45 0 60 4.5t15 18.5q0 22 -16 34t-44 12zM305 158v25h-25q-50 0 -68.5 -10t-18.5 -31q0 -36 57 -36q22 0 38.5 15t16.5 37z" />
    <glyph glyph-name="eth" unicode="&#xf0;" horiz-adv-x="555" 
d="M498 235q0 -107 -59.5 -175.5t-165.5 -68.5q-99 0 -157.5 67t-58.5 162q0 83 36 144t103 84q-2 1 -4 3q-4 2 -4 3q-24 20 -24 39q0 25 24 43q-34 21 -34 55v47q82 -2 142 -22q2 2 31 23t42 31l25 -22q12 -12 12 -27q0 -27 -29 -51q121 -93 121 -335zM279 501
q-30 -24 -64 -48q25 7 58 7q27 0 53 -8q-25 32 -47 49zM360 220q0 119 -87 119q-38 0 -58 -28t-20 -76q0 -121 87 -121q38 0 58 29t20 77z" />
    <glyph glyph-name="divide" unicode="&#xf7;" horiz-adv-x="506" 
d="M394 237h-355v54q0 25 20 42t53 17h354v-55q0 -21 -21.5 -39.5t-50.5 -18.5zM338 471q0 -36 -25 -61t-60 -25t-60 25t-25 61q0 35 25 59.5t60 24.5t60 -24.5t25 -59.5zM338 115q0 -35 -25 -60.5t-60 -25.5t-60 25.5t-25 60.5t25 60t60 25t60 -25t25 -60z" />
    <glyph glyph-name="logo.001" unicode="&#xfb;" horiz-adv-x="1492" 
d="M1408 188q-43 0 -43 -23q0 -7 9.5 -11.5t37.5 -10.5q33 -7 51.5 -24t18.5 -42q0 -36 -25.5 -56t-67.5 -20q-32 0 -52 14t-20 37l2 33q32 -36 71 -36t39 25q0 10 -10 15t-41 12q-33 7 -49 21.5t-16 40.5q0 31 25 53t67 22q29 0 50.5 -12.5t21.5 -35.5v-23q-46 21 -69 21z
M1223 194q20 22 20 38q0 7 -11 19t-11 24q0 15 9.5 24.5t26.5 9.5q16 0 26.5 -13.5t10.5 -38.5q0 -29 -15 -47t-40 -18q-4 0 -16 2zM1130 39v254h24q10 0 19 -7.5t9 -18.5v-263h-21q-31 0 -31 35zM968 4h-24q-77 0 -77 65v217q29 8 68 8h34q54 0 91.5 -39.5t37.5 -103.5
q0 -66 -36 -106.5t-94 -40.5zM961 247h-16q-13 0 -26 -3v-165q0 -28 31 -28h16q38 0 59 25.5t21 68.5q0 102 -85 102zM779 42q0 80 -12 174q-1 -4 -4.5 -15t-3.5 -13l-3 -9q-15 -47 -43 -121q-10 -26 -25 -54h-11q-25 0 -53 78l-45 135q-10 -66 -13 -213h-19
q-14 0 -23.5 10.5t-9.5 27.5q0 107 26 251h21q22 0 38.5 -16.5t23 -32t13.5 -39.5l13 -43q9 -21 15 -42v1q4 -18 10 -29q0 1 3 12.5t7 16.5h-1q40 121 75 172h14q38 0 46 -57q13 -145 14 -232h-22q-31 0 -31 38zM483 4q-14 0 -22 7.5t-10.5 15.5t-5.5 25t-5 25h-115
q-6 -20 -17 -73h-20q-24 0 -24 26q0 32 35 129t65 134h16q30 0 69.5 -88.5t57.5 -200.5h-24zM427 121q-18 60 -45 116q-27 -49 -45 -116h90zM198 39v92h-122v-127h-22q-12 0 -21 9.5t-9 25.5v254h26q10 0 18 -7.5t8 -18.5v-88h122v114h25q11 0 19 -7.5t8 -18.5v-263h-20
q-12 0 -22 9.5t-10 25.5zM212 346h-29q-85 0 -85 72v207q56 14 80 14h33q44 0 70.5 -22t26.5 -59q0 -43 -30 -59q35 -24 35 -59q0 -45 -29 -69.5t-72 -24.5zM202 527q36 0 36 26q0 24 -34 24h-21q-11 -1 -16 -1v-49h35zM204 469h-37v-47q0 -10 16 -10h24q36 0 36 25
q0 18 -9 25t-30 7zM0 391v246h33q14 0 25.5 -10.5t11.5 -27.5v-251h-29q-15 0 -28 11.5t-13 31.5zM1420 391q0 74 -7 133q0 -1 -1 -4v-2q-4 -9 -11.5 -34.5t-13.5 -38.5l-13 -45q-6 -21 -28 -52h-18q-34 0 -52 47l-40 122q-2 1 -3 5q-8 -82 -8 -174h-26q-43 0 -43 43
q0 98 23 246h19q62 0 83 -50l37 -109q1 -3 4 -11.5t5 -11.5q0 2 2 6.5t2 6.5q49 150 73 169h12q25 0 41.5 -17t20.5 -46q14 -126 14 -226h-29q-43 0 -43 43zM1065 391v246h31q14 0 25.5 -10.5t11.5 -27.5v-251h-27q-16 0 -28.5 11.5t-12.5 31.5zM966 392v74h-95v-118h-28
q-19 0 -30 11.5t-11 32.5v245h35q15 0 24 -10.5t9 -26.5v-74h96v111h34q14 0 25.5 -10.5t11.5 -26.5v-252h-30q-17 0 -29 11.5t-12 32.5zM722 380q-1 19 -6 37h-97q-14 -45 -14 -69h-27q-33 0 -33 33q0 35 33.5 128.5t64.5 127.5h25q34 0 51 -30q21 -39 46 -117.5t32 -141.5
h-30q-41 0 -45 32zM700 475q-10 34 -32 88q-19 -38 -34 -88h66zM514 444l24 -52l-1 1q4 -8 8 -15.5t6.5 -11.5t2.5 -7q-11 -14 -35 -14q-21 0 -36.5 17t-22 37.5t-17 37.5t-23.5 17l-20 3v-109h-24q-45 0 -45 44v235q8 5 34 9t44 4h31q44 0 71 -24.5t27 -63.5q0 -24 -13 -45
t-32 -31q11 -9 21 -32zM466 543q0 34 -33 34h-16q-12 -1 -17 -1v-61q10 -1 32 -1q14 0 24 8t10 21z" />
    <glyph glyph-name="thorn" unicode="&#xfe;" horiz-adv-x="581" 
d="M211 263v-41q0 -48 27 -76.5t68 -28.5q34 0 55.5 29t21.5 76q0 71 -22.5 104t-69.5 33q-35 0 -57.5 -26.5t-22.5 -69.5zM71 626h47q46 0 69.5 -25t23.5 -65v-70q43 20 98 20q92 0 154.5 -71t62.5 -163q0 -118 -56.5 -190t-158.5 -72q-57 0 -99 35v-166h-49q-37 0 -65 25
t-28 66v271q0 3 0.5 8t0.5 7v390z" />
    <glyph glyph-name="OE" unicode="&#x152;" horiz-adv-x="820" 
d="M798 139l-1 -59q-1 -48 -29.5 -67t-109.5 -19h-29q-123 0 -175 69q-57 -77 -158 -77t-177.5 84.5t-76.5 222.5q0 142 70.5 234t199.5 92q76 0 128 -55q28 39 73 39h284q0 -67 -16.5 -97.5t-75.5 -30.5h-154q-7 -39 -9 -106h202v-56q0 -67 -84 -67h-118q0 -4 0.5 -9.5
t0.5 -9.5q1 -61 24.5 -83.5t76.5 -22.5h14q76 0 140 18zM402 295q0 110 -21.5 151t-74.5 41q-54 0 -84.5 -50.5t-30.5 -128.5q0 -92 34 -141.5t84 -49.5t71.5 37t21.5 141z" />
    <glyph glyph-name="oe" unicode="&#x153;" horiz-adv-x="777" 
d="M739 294q0 -68 -45 -96.5t-156 -28.5h-60q10 -28 36.5 -43.5t62.5 -15.5q83 0 146 57v-66q0 -50 -40 -80t-126 -30q-38 0 -80.5 18t-71.5 47q-55 -65 -151 -65q-94 0 -154 66t-60 164q0 110 61 177.5t162 67.5q33 0 75 -17.5t70 -45.5q55 63 151 63q70 0 125 -47.5
t55 -124.5zM547 351q-37 0 -55 -26t-18 -49v-4h31q65 0 85.5 6.5t20.5 24.5q0 21 -18 34.5t-46 13.5zM257 341q-38 0 -59 -28.5t-21 -76.5q0 -61 24.5 -91t65.5 -30q70 0 70 113t-80 113z" />
    <glyph glyph-name="florin" unicode="&#x192;" horiz-adv-x="534" 
d="M496 475q-70 13 -81 13q-43 0 -56 -69q-1 -8 -3 -18.5t-3 -19.5h111v-45q0 -27 -22 -46t-63 -19h-38q-2 -21 -10.5 -83.5t-11.5 -96.5q-5 -36 -10.5 -62t-17.5 -53t-29 -43.5t-44.5 -27t-63.5 -10.5q-45 0 -72 21t-27 51v59q59 -14 83 -14q37 0 47 73q3 33 9.5 93
t10.5 93h-95v44q0 27 22 45.5t50 19.5l38 1l3 33q28 191 184 191q42 0 65.5 -21t23.5 -51v-58z" />
    <glyph glyph-name="circumflex" unicode="&#x2c6;" horiz-adv-x="581" 
d="M434 486l-143 67q-72 -32 -144 -66v49q0 35 12.5 55.5t42.5 38.5l90 50l85 -49q57 -37 57 -97v-48z" />
    <glyph glyph-name="tilde" unicode="&#x2dc;" horiz-adv-x="384" 
d="M346 604q0 -40 -26 -67t-71 -27q-27 0 -73 24q-28 16 -38 16q-8 0 -13.5 -13t-5.5 -34h-35q-19 0 -32.5 14.5t-13.5 41.5q0 48 30.5 72.5t65.5 24.5q30 0 72 -24h-1q28 -17 42 -17q19 0 19 45h40q15 0 27.5 -17t12.5 -39z" />
    <glyph glyph-name="comma.arabic" unicode="&#x60c;" horiz-adv-x="280" 
d="M40 104q0 59 37 105t88 46h35q-36 -77 -36 -101q0 -15 14 -31q20 -26 20 -50q0 -31 -21.5 -52t-54.5 -21q-38 0 -60 27t-22 77z" />
    <glyph glyph-name="uni0615" unicode="&#x615;" 
d="M-109 35v22h24v127v26h21q20 0 28.5 -7.5t8.5 -27.5v-48q30 28 64 28q41 0 61 -32t20 -71q0 -52 -30 -52h-158q-39 0 -39 35zM29 93q-27 0 -44 -36h75q-2 36 -31 36z" />
    <glyph glyph-name="semicolon.arabic" unicode="&#x61b;" horiz-adv-x="247" 
d="M60 299q0 52 33 92t77 40h47q-21 -21 -35 -47.5t-14 -40.5q0 -17 12 -29q18 -25 18 -44q0 -26 -19.5 -45t-46.5 -19q-34 0 -53 24t-19 69zM132 4q-26 0 -44.5 19t-18.5 44q0 26 18.5 45t44.5 19q25 0 44 -19t19 -45q0 -25 -19 -44t-44 -19z" />
    <glyph glyph-name="questionmark.arabic" unicode="&#x61f;" horiz-adv-x="462" 
d="M43 463q0 70 52 118t144 48q84 0 129.5 -39.5t45.5 -92.5v-54q-84 57 -158 57q-71 0 -71 -49q0 -20 20 -40q10 -8 30.5 -25t30.5 -25q35 -29 48 -51.5t13 -56.5q0 -26 -20.5 -45t-45.5 -19h-54v44q0 16 -4 22.5t-21 21.5q-5 4 -7 6v-1q-12 9 -34 28t-34 29
q-36 31 -50 58.5t-14 65.5zM346 87q0 -35 -25.5 -61t-60.5 -26q-36 0 -62 26t-26 61q0 36 26 61.5t62 25.5q35 0 60.5 -25.5t25.5 -61.5z" />
    <glyph glyph-name="kashida" unicode="&#x640;" horiz-adv-x="115" 
d="M-12 0v123h151v-123h-151z" />
    <glyph glyph-name="madda" unicode="&#x653;" 
d="M98 91v-34q0 -20 -13 -38.5t-36 -18.5h-139v47q0 16 11.5 30t28.5 14h148z" />
    <glyph glyph-name="hamza_above" unicode="&#x654;" 
d="M-1 52h90v-25q0 -11 -8.5 -19t-21.5 -8h-119q-12 0 -20 8.5t-8 18.5v25h29q-1 4 -1 17v7q0 35 19.5 57t53.5 22q55 0 65 -46q0 -33 -22 -48q-7 23 -17.5 34.5t-15.5 12.5t-13 1q-17 0 -17 -30q0 -21 6 -27z" />
    <glyph glyph-name="hamza_below" unicode="&#x655;" 
d="M5 -103h90v-25q0 -10 -8.5 -18.5t-21.5 -8.5h-119q-12 0 -20 8.5t-8 18.5v25h29q-1 4 -1 17v7q0 35 19.5 57t53.5 22q55 0 65 -46q0 -33 -22 -48q-7 23 -17.5 34.5t-15.5 12.5t-13 1q-17 0 -17 -30q0 -21 6 -27z" />
    <glyph glyph-name="alef_subscript" unicode="&#x656;" 
d="M-46 -180v208h93v-192z" />
    <glyph glyph-name="uni0658" unicode="&#x658;" horiz-adv-x="400" 
d="M240 891h86q0 -67 -34 -111.5t-100 -44.5q-65 0 -97.5 44.5t-32.5 111.5h86q0 -28 11.5 -46t33.5 -18t34.5 17t12.5 47z" />
    <glyph glyph-name="zero.indic" unicode="&#x660;" horiz-adv-x="269" 
d="M141 220q-31 0 -53.5 22.5t-22.5 53.5t22.5 53.5t53.5 22.5q32 0 55 -22.5t23 -53.5t-23 -53.5t-55 -22.5z" />
    <glyph glyph-name="one.indic" unicode="&#x661;" horiz-adv-x="251" 
d="M186 0h-56q-34 0 -57 22t-23 64v522q43 0 76.5 -12.5t46.5 -24t13 -15.5v-556z" />
    <glyph glyph-name="two.indic" unicode="&#x662;" horiz-adv-x="581" 
d="M448 461h-231q-14 0 -21 -7t-8.5 -15t-1.5 -21v-349q0 -30 -23.5 -49.5t-51.5 -19.5h-61v423q0 76 44.5 124t129.5 51h292v-63q0 -27 -19.5 -50.5t-48.5 -23.5z" />
    <glyph glyph-name="three.indic" unicode="&#x663;" horiz-adv-x="717" 
d="M563 608q89 0 89 -88v-146q0 -76 -46.5 -124t-137.5 -51q-65 0 -117 32q-45 -32 -138 -32h-27v-199h-46q-89 0 -89 88l-1 520h19q117 4 117 -69v-218h48q49 5 49 58v229h48q88 0 88 -88v-134q0 -27 -5 -50q15 -15 41 -15q33 3 46 17t13 41v229h49z" />
    <glyph glyph-name="four.indic" unicode="&#x664;" horiz-adv-x="523" 
d="M373 0h-115q-98 0 -149 48t-51 130q0 66 26 122q-34 61 -34 133q0 75 49 126.5t159 51.5h200v-46q0 -42 -19.5 -60t-65.5 -18h-146q-16 -1 -24 -2t-18.5 -9.5t-10.5 -24.5q0 -47 16 -89h244v-45q0 -42 -19.5 -60t-64.5 -18h-163q-13 -25 -13 -50q0 -66 53 -66h231v-47
q0 -40 -19.5 -58t-65.5 -18z" />
    <glyph glyph-name="five.indic" unicode="&#x665;" horiz-adv-x="631" 
d="M50 281q0 45 26.5 94.5t59.5 85.5t77 72.5t64.5 50t36.5 23.5q16 -10 35 -23.5t61.5 -49t73.5 -69.5t56.5 -80t25.5 -86q0 -132 -67.5 -215.5t-197.5 -83.5q-120 0 -185.5 81t-65.5 200zM415 280q0 33 -14 65.5t-35.5 56.5t-37 37.5t-28.5 22.5q-13 -8 -33.5 -27
t-43.5 -57.5t-23 -76.5q0 -87 26 -130.5t88 -43.5q101 0 101 153z" />
    <glyph glyph-name="six.indic" unicode="&#x666;" horiz-adv-x="581" 
d="M350 470h-231q-30 0 -49.5 23.5t-19.5 51.5v62h291q86 -3 130.5 -50.5t44.5 -123.5v-433h-61q-28 0 -51 19.5t-23 49.5v358q0 43 -31 43z" />
    <glyph glyph-name="seven.indic" unicode="&#x667;" horiz-adv-x="573" 
d="M362 74q-10 -35 -32.5 -54.5t-49.5 -19.5t-50.5 19.5t-33.5 54.5q-5 16 -36.5 127t-48.5 170q-18 65 -61 217q65 20 77 20q23 0 45 -17.5t31 -46.5l77 -264q12 43 37 131.5t37 132.5q17 64 77 64q6 0 50 -11q3 -2 27 -7z" />
    <glyph glyph-name="eight.indic" unicode="&#x668;" horiz-adv-x="573" 
d="M362 534l146 -515l-54 -16q-11 -4 -23 -4q-60 0 -77 64q-15 52 -37.5 132.5t-37.5 132.5q-4 -14 -12.5 -43t-11.5 -40q-6 -22 -24.5 -87t-27.5 -96q-11 -29 -32 -46t-44 -17q-5 0 -49 11q-1 0 -13 4l-15 5q10 36 81 285q62 222 65 230q10 35 33 54.5t50 19.5t50 -19.5
t33 -54.5z" />
    <glyph glyph-name="nine.indic" unicode="&#x669;" horiz-adv-x="518" 
d="M417 0q-46 0 -66 20.5t-20 63.5v105q-42 1 -76 5.5t-74.5 17.5t-67.5 35t-45 60.5t-18 90.5q0 95 54 158t149 63q69 0 115.5 -36.5t65.5 -88.5t19 -114l-1 -380h-35zM171 410q0 -28 11 -47.5t24 -29t37.5 -14.5t39 -5.5t39.5 -0.5h10v54q0 31 -3 53.5t-11 45t-26.5 34.5
t-46.5 12q-36 0 -55 -28t-19 -74z" />
    <glyph glyph-name="percentsign.arabic" unicode="&#x66a;" horiz-adv-x="509" 
d="M422 519l-246 -519h-30q-28 0 -44.5 15t-16.5 43q0 22 15 52q53 112 237 498h38q23 0 38.5 -13.5t15.5 -37.5q0 -23 -7 -38zM137 461q-29 0 -48 20t-19 49t19 48t48 19q28 0 48.5 -19t20.5 -48q0 -28 -20.5 -48.5t-48.5 -20.5zM360 0q-29 0 -48 20t-19 49t19 48t48 19
q28 0 48.5 -19t20.5 -48q0 -28 -20.5 -48.5t-48.5 -20.5z" />
    <glyph glyph-name="decimal.arabic" unicode="&#x66b;" horiz-adv-x="230" 
d="M177 45q0 -59 -37 -105t-88 -46h-35v25q15 14 25.5 37t10.5 39q0 12 -14 31q-20 24 -20 50q0 31 21.5 52t54.5 21q38 0 60 -27t22 -77z" />
    <glyph glyph-name="thousands.arabic" unicode="&#x66c;" horiz-adv-x="230" 
d="M177 445q0 -59 -37 -105t-88 -46h-35v25q15 14 25.5 36.5t10.5 39.5q0 12 -14 31q-20 22 -20 50q0 31 21.5 52t54.5 21q38 0 60 -27t22 -77z" />
    <glyph glyph-name="fivept_star.arabic" unicode="&#x66d;" horiz-adv-x="604" 
d="M209 26l-83 64l93 115q-9 2 -64 17t-80 21l34 100l131 -55v150h105l-10 -150q82 33 137 55l37 -100l-147 -37q53 -65 93 -116l-83 -63l-81 129q-10 -15 -39 -61.5t-43 -68.5z" />
    <glyph glyph-name="alef_superscript" unicode="&#x670;" 
d="M38 0h-31q-19 0 -34 14.5t-15 37.5v193h31q19 0 34 -13t15 -35v-197z" />
    <glyph glyph-name="uni06C3" unicode="&#x6c3;" horiz-adv-x="494" 
d="M263 429q89 0 142.5 -61t53.5 -147q0 -96 -54 -158.5t-150 -62.5q-90 0 -142.5 60.5t-52.5 147.5q0 96 53.5 158.5t149.5 62.5zM255 321q-36 0 -55 -27.5t-19 -72.5q0 -114 82 -114q36 0 55 27.5t19 73.5q0 113 -82 113zM333 471q-27 0 -44.5 18t-17.5 44t17.5 43.5
t44.5 17.5q25 0 43 -17.5t18 -43.5q0 -25 -18 -43.5t-43 -18.5zM195 471q-27 0 -45 18t-18 44t18 43.5t45 17.5q25 0 44 -17.5t19 -43.5q0 -25 -19 -43.5t-44 -18.5z" />
    <glyph glyph-name="arabicae" unicode="&#x6d5;" horiz-adv-x="494" 
d="M263 429q89 0 142.5 -61t53.5 -147q0 -96 -54 -158.5t-150 -62.5q-90 0 -142.5 60.5t-52.5 147.5q0 96 53.5 158.5t149.5 62.5zM255 321q-36 0 -55 -27.5t-19 -72.5q0 -114 82 -114q36 0 55 27.5t19 73.5q0 113 -82 113z" />
    <glyph glyph-name="zero_ext.indic" unicode="&#x6f0;" horiz-adv-x="268" 
d="M141 219q-31 0 -53.5 22.5t-22.5 53.5t22.5 53.5t53.5 22.5q32 0 54.5 -22t22.5 -54q0 -31 -22.5 -53.5t-54.5 -22.5z" />
    <glyph glyph-name="one_ext.indic" unicode="&#x6f1;" horiz-adv-x="251" 
d="M186 0h-56q-34 0 -57 22t-23 64v522q43 0 76.5 -12.5t46.5 -24t13 -15.5v-556z" />
    <glyph glyph-name="two_ext.indic" unicode="&#x6f2;" horiz-adv-x="581" 
d="M448 471h-231q-20 0 -25.5 -11t-5.5 -32v-359q0 -30 -23.5 -49.5t-51.5 -19.5h-61v434q0 76 44.5 123.5t129.5 50.5h292v-62q0 -28 -19.5 -51.5t-48.5 -23.5z" />
    <glyph glyph-name="three_ext.indic" unicode="&#x6f3;" horiz-adv-x="717" 
d="M563 608q89 0 89 -88v-135q0 -78 -47 -130t-137 -55q-65 0 -117 32q-45 -32 -138 -32h-27v-200h-46q-89 0 -89 88l-1 520h19q117 4 117 -69v-217h48q49 5 49 58v228h48q88 0 88 -88v-133q0 -27 -5 -50q15 -15 41 -15q33 3 46 17t13 41v228h49z" />
    <glyph glyph-name="four_ext.indic" unicode="&#x6f4;" horiz-adv-x="523" 
d="M373 0h-115q-98 0 -149 48t-51 130q0 66 26 122q-34 61 -34 133q0 75 49 126.5t159 51.5h200v-46q0 -42 -19.5 -60t-65.5 -18h-146q-16 -1 -24 -2t-18.5 -9.5t-10.5 -24.5q0 -47 16 -89h244v-45q0 -42 -19.5 -60t-64.5 -18h-163q-13 -25 -13 -50q0 -66 53 -66h231v-47
q0 -40 -19.5 -58t-65.5 -18z" />
    <glyph glyph-name="five_ext.indic" unicode="&#x6f5;" horiz-adv-x="631" 
d="M50 281q0 45 26.5 94.5t59.5 85.5t77 72.5t64.5 50t36.5 23.5q16 -10 35 -23.5t61.5 -49t73.5 -69.5t56.5 -80t25.5 -86q0 -132 -67.5 -215.5t-197.5 -83.5q-120 0 -185.5 81t-65.5 200zM415 280q0 33 -14 65.5t-35.5 56.5t-37 37.5t-28.5 22.5q-13 -8 -33.5 -27
t-43.5 -57.5t-23 -76.5q0 -87 26 -130.5t88 -43.5q101 0 101 153z" />
    <glyph glyph-name="six_ext.indic" unicode="&#x6f6;" horiz-adv-x="581" 
d="M350 470h-231q-30 0 -49.5 23.5t-19.5 51.5v62h291q86 -3 130.5 -50.5t44.5 -123.5v-433h-61q-28 0 -51 19.5t-23 49.5v358q0 43 -31 43z" />
    <glyph glyph-name="seven_ext.indic" unicode="&#x6f7;" horiz-adv-x="573" 
d="M362 74q-10 -35 -32.5 -54.5t-49.5 -19.5t-50.5 19.5t-33.5 54.5q-5 16 -36.5 127t-48.5 170q-18 65 -61 217q65 20 77 20q23 0 45 -17.5t31 -46.5l77 -264q12 43 37 131.5t37 132.5q17 64 77 64q12 0 24.5 -3t28 -8t24.5 -7z" />
    <glyph glyph-name="eight_ext.indic" unicode="&#x6f8;" horiz-adv-x="573" 
d="M362 534l146 -515q-65 -20 -77 -20q-60 0 -77 64q-15 52 -37.5 132.5t-37.5 132.5q-4 -14 -12.5 -43t-11.5 -40q-6 -22 -24.5 -87t-27.5 -96q-11 -29 -32 -46t-44 -17q-5 0 -49 11q-1 0 -13 4l-15 5q10 36 81 285q62 222 65 230q10 35 33 54.5t50 19.5t50 -19.5t33 -54.5
z" />
    <glyph glyph-name="nine_ext.indic" unicode="&#x6f9;" horiz-adv-x="518" 
d="M417 0q-46 0 -66 20.5t-20 63.5v105q-42 1 -76.5 5t-74.5 17t-67 35t-45 60.5t-18 90.5q0 95 54 158t149 63q69 0 115.5 -36.5t65.5 -88.5t19 -114v-379h-36zM171 409q0 -28 11 -47.5t24 -29t37.5 -14.5t39 -5.5t39.5 -0.5h10v54q0 31 -3 53.5t-11 45t-26.5 34.5
t-46.5 12q-36 0 -55 -28t-19 -74z" />
    <glyph glyph-name="endash" unicode="&#x2013;" horiz-adv-x="533" 
d="M488 322v-58q0 -28 -18.5 -44t-50.5 -16h-376v56q0 28 17.5 45t47.5 17h380z" />
    <glyph glyph-name="emdash" unicode="&#x2014;" horiz-adv-x="880" 
d="M839 322v-58q0 -28 -18 -44t-50 -16h-726v56q0 27 17.5 44.5t47.5 17.5h729z" />
    <glyph glyph-name="quoteleft" unicode="&#x2018;" horiz-adv-x="259" 
d="M46 487q0 61 39 109t92 48h35q-37 -79 -37 -105q0 -14 15 -33q21 -23 21 -53q0 -31 -22.5 -53t-57.5 -22q-39 0 -62 28.5t-23 80.5z" />
    <glyph glyph-name="quoteright" unicode="&#x2019;" horiz-adv-x="259" 
d="M213 518q0 -62 -38.5 -109.5t-91.5 -47.5h-36q38 78 38 105q0 14 -15 33v-1q-21 25 -21 53q0 31 22.5 53t57.5 22q39 0 61.5 -28t22.5 -80z" />
    <glyph glyph-name="quotesinglbase" unicode="&#x201a;" horiz-adv-x="260" 
d="M211 42q0 -62 -39 -109t-92 -47h-36q38 78 38 104q0 14 -15 33v-1q-20 24 -20 53q0 32 22.5 54t55.5 22q40 0 63 -28.5t23 -80.5z" />
    <glyph glyph-name="quotedblleft" unicode="&#x201c;" horiz-adv-x="411" 
d="M205 486q0 61 39 109t91 48h37q-38 -78 -38 -105q0 -15 14 -33q21 -25 21 -52q0 -32 -22.5 -54t-55.5 -22q-39 0 -62.5 28.5t-23.5 80.5zM33 486q0 62 38.5 109.5t91.5 47.5h36q-37 -76 -37 -105q0 -17 14 -33q21 -28 21 -52q0 -32 -22.5 -54t-56.5 -22q-39 0 -62 28.5
t-23 80.5z" />
    <glyph glyph-name="quotedblright" unicode="&#x201d;" horiz-adv-x="403" 
d="M363 516q0 -62 -38.5 -109.5t-91.5 -47.5h-37v25q17 14 28 38.5t11 41.5q0 12 -15 33q-21 21 -21 53q0 30 23 52.5t56 22.5q39 0 62 -28.5t23 -80.5zM189 516q0 -62 -39 -109.5t-92 -47.5h-35v25q15 15 26 39t11 41q0 14 -15 33q-20 22 -20 53t22.5 53t56.5 22
q40 0 62.5 -28.5t22.5 -80.5z" />
    <glyph glyph-name="quotedblbase" unicode="&#x201e;" horiz-adv-x="405" 
d="M414 42q0 -62 -38.5 -109t-91.5 -47h-37v24q17 15 28 39t11 41q0 14 -15 33v-1q-21 25 -21 53q0 32 22.5 54t56.5 22q39 0 62 -28.5t23 -80.5zM215 42q0 -62 -38.5 -109t-91.5 -47h-36v24q16 15 27 39t11 41q0 14 -15 33v-1q-21 25 -21 53q0 32 22.5 54t56.5 22
q40 0 62.5 -28.5t22.5 -80.5z" />
    <glyph glyph-name="dagger" unicode="&#x2020;" horiz-adv-x="542" 
d="M462 430q0 -32 -23 -56t-65 -24h-41v-481h-44q-31 0 -55.5 23.5t-24.5 64.5v393h-129v52q0 27 20.5 49t52.5 22h56v163h52q27 0 49.5 -20.5t22.5 -51.5v-91h129v-43z" />
    <glyph glyph-name="daggerdbl" unicode="&#x2021;" horiz-adv-x="548" 
d="M388 80h-53v-221h-52q-33 0 -51.5 20.5t-18.5 51.5v149h-133v53q0 27 19.5 49.5t51.5 22.5h62v149h-133v51q0 28 19.5 50t51.5 22h62v149h59q28 0 45.5 -19t17.5 -46v-84h133v-51q0 -32 -22 -52t-58 -20h-53v-149h133v-52q0 -34 -22 -53.5t-58 -19.5z" />
    <glyph glyph-name="bullet" unicode="&#x2022;" horiz-adv-x="395" 
d="M198 425q49 0 83 -34.5t34 -83.5q0 -51 -33.5 -84.5t-83.5 -33.5q-49 0 -83.5 34t-34.5 84q0 49 34.5 83.5t83.5 34.5z" />
    <glyph glyph-name="ellipsis" unicode="&#x2026;" horiz-adv-x="779" 
d="M699 86q0 -35 -25.5 -60.5t-60.5 -25.5t-60.5 25.5t-25.5 60.5q0 34 25.5 59.5t60.5 25.5t60.5 -25.5t25.5 -59.5zM475 86q0 -35 -25.5 -60.5t-60.5 -25.5t-60 25.5t-25 60.5q0 34 25 59.5t60 25.5t60.5 -25t25.5 -60zM250 86q0 -35 -25 -60.5t-60 -25.5t-60 25.5
t-25 60.5t25 60t60 25t60 -25t25 -60z" />
    <glyph glyph-name="perthousand" unicode="&#x2030;" horiz-adv-x="1233" 
d="M374 412q0 -89 -44 -147.5t-122 -58.5q-73 0 -116 56.5t-43 136.5q0 90 44 148t122 58q73 0 116 -56t43 -137zM598 508l-240 -508h-30q-60 0 -60 58q0 16 14 50q23 48 106 222t126 265h38q23 0 38 -13t15 -37q0 -23 -8 -38zM1182 203q0 -90 -43.5 -148.5t-122.5 -58.5
q-72 0 -115 57t-43 137q0 89 43.5 147t121.5 58q72 0 115.5 -56.5t43.5 -135.5zM833 203q0 -90 -44 -148.5t-122 -58.5q-72 0 -116 57t-44 137q0 89 44 147t122 58q72 0 116 -56.5t44 -135.5zM253 399q0 98 -44 98q-39 0 -39 -85q0 -97 44 -97q39 0 39 84zM1065 192
q0 97 -45 97q-18 0 -28.5 -23t-10.5 -61q0 -98 45 -98q18 0 28.5 23.5t10.5 61.5zM715 192q0 97 -45 97q-39 0 -39 -84q0 -98 45 -98q39 0 39 85z" />
    <glyph glyph-name="guilsinglleft" unicode="&#x2039;" horiz-adv-x="340" 
d="M289 77h-61q-68 0 -99 44l-88 128l88 129q30 41 99 41h60l-108 -170q8 -13 109 -172z" />
    <glyph glyph-name="guilsinglright" unicode="&#x203a;" horiz-adv-x="340" 
d="M112 77h-61l109 172q-65 101 -109 170h61q69 0 99 -41l88 -129l-88 -128q-29 -44 -99 -44z" />
    <glyph glyph-name="Euro" unicode="&#x20ac;" horiz-adv-x="529" 
d="M485 163v-56q0 -42 -40.5 -79.5t-109.5 -37.5q-97 0 -159 54t-79 152h-73v40q0 24 13.5 38t34.5 14h17v20h-65v43q0 24 14.5 38t33.5 14h25q20 98 86.5 150.5t156.5 52.5q63 0 104 -35.5t41 -86.5v-52q-82 49 -130 49q-90 0 -114 -78h175v-39q0 -25 -15 -40.5t-40 -15.5
h-130v-20h185v-40q0 -23 -14.5 -37.5t-40.5 -14.5h-120q18 -79 113 -79q53 0 131 46z" />
    <glyph glyph-name="trademark" unicode="&#x2122;" horiz-adv-x="741" 
d="M691 252h-49q-21 0 -34 6t-19 21.5t-8 31t-3 45.5q-24 -75 -43 -105h-29q-28 0 -45.5 26.5t-37.5 86.5q-1 -39 -1 -113l-48 1q-26 1 -42.5 16.5t-16.5 43.5q0 133 26 259h33q72 0 98 -56q10 -26 32 -88q39 125 80 145h9q36 0 57.5 -21t26.5 -57q14 -106 14 -242zM322 526
q0 -19 -17.5 -37t-42.5 -18h-22v-223h-50q-60 0 -60 56v167h-80v46q0 19 16.5 36t44.5 17h211v-44z" />
    <glyph glyph-name="minus" unicode="&#x2212;" horiz-adv-x="571" 
d="M536 362v-64q0 -32 -19.5 -49t-55.5 -17h-426v62q0 30 19.5 49t52.5 19h429z" />
    <glyph glyph-name="notequal" unicode="&#x2260;" horiz-adv-x="507" 
d="M411 453l-19 -38h75v-55q0 -21 -21.5 -39.5t-50.5 -18.5h-57q-3 -8 -24 -51h153v-55q0 -25 -20.5 -41t-51.5 -16h-136q-6 -13 -26.5 -58t-31.5 -68h-30q-28 0 -45 15t-17 44q0 18 16 52l3 6t4 9h-92v53q0 25 20 42t53 17h73q5 10 12 24.5t12 26.5h-170v54q0 25 20 42
t53 17h152q10 20 31 64t31 64q1 0 9.5 -1.5t12 -2t12.5 -2.5t14 -4t12.5 -4.5t12 -6t9.5 -8t7 -10.5t2 -12q0 -21 -7 -39z" />
    <glyph glyph-name="parenthesis_left_ornate" unicode="&#xfd3e;" horiz-adv-x="405" 
d="M209 281q0 -138 50 -252.5t128 -187.5q-148 2 -188 34q-54 43 -100 154t-46 233q0 173 72.5 305t160.5 132h99q-176 -185 -176 -418z" />
    <glyph glyph-name="parenthesis_right_ornate" unicode="&#xfd3f;" horiz-adv-x="406" 
d="M197 259q0 139 -50.5 253t-128.5 187q145 -1 189 -33q53 -43 99.5 -154.5t46.5 -233.5q0 -114 -34 -216t-88.5 -161.5t-111.5 -59.5h-99q177 186 177 418z" />
    <glyph glyph-name="CR" horiz-adv-x="500" 
 />
    <glyph glyph-name="uni00AD" horiz-adv-x="330" 
d="M256 209h-226v91h226v-91z" />
    <glyph glyph-name="zero.basic" horiz-adv-x="555" 
d="M511 317q0 -164 -63.5 -245.5t-170.5 -81.5q-106 0 -170 79t-64 225q0 162 64 243.5t178 81.5q107 0 166.5 -81t59.5 -221zM186 318q0 -108 24.5 -153t74.5 -45q38 0 60 42.5t22 127.5q0 109 -21.5 154t-68.5 45q-41 0 -66 -41.5t-25 -129.5z" />
    <glyph glyph-name="one.basic" horiz-adv-x="402" 
d="M302 0h-60q-38 0 -61 23t-23 67v365q-3 -1 -37 -14q-26 -9 -49 -9q-17 0 -30 6t-20 13t-13 23.5t-7.5 24t-6.5 28.5l116 51q74 31 115 31q33 0 54.5 -23t21.5 -52v-534z" />
    <glyph glyph-name="two.basic" horiz-adv-x="554" 
d="M486 71q0 -34 -25 -52.5t-67 -18.5h-269q-30 0 -51 21t-21 51q0 36 23.5 73.5t90.5 92.5l135 114q35 28 35 66q0 33 -23 52t-63 19q-58 0 -99 -17t-91 -58v55q0 63 51 106.5t159 43.5q89 0 149 -54.5t60 -130.5q0 -66 -27.5 -108t-99.5 -99q-96 -74 -123 -104h256v-52z
" />
    <glyph glyph-name="three.basic" horiz-adv-x="548" 
d="M477 187q0 -91 -62 -144t-181 -53q-79 0 -130.5 34t-51.5 97v60q99 -63 188 -63q47 0 70 17.5t23 47.5q0 33 -23 47.5t-72 16.5q-85 1 -85 58v50q34 4 77 6q101 4 101 62q0 69 -100 69q-87 0 -174 -62v63q0 46 52.5 86t141.5 40q101 0 161.5 -48t60.5 -128
q0 -99 -76 -136q33 -19 56.5 -52.5t23.5 -67.5z" />
    <glyph glyph-name="four.basic" horiz-adv-x="549" 
d="M527 202q0 -64 -62 -64h-29v-138h-58q-38 0 -60 23t-22 66v49h-183q-34 0 -56.5 20t-22.5 47q0 35 17 69q42 73 120 181t134 154h47q39 0 61.5 -24t22.5 -71v-253h91v-59zM296 261v174q-54 -71 -115 -174h115z" />
    <glyph glyph-name="five.basic" horiz-adv-x="558" 
d="M508 203q0 -100 -64.5 -156.5t-173.5 -56.5q-97 0 -143 32.5t-46 90.5v58q52 -28 88.5 -39.5t88.5 -11.5q103 0 103 76q0 36 -29.5 52.5t-93.5 16.5q-58 0 -150 -23v250q0 59 24.5 88t82.5 29h294v-44q0 -39 -24.5 -62t-69.5 -23h-166v-99q28 3 63 3q92 0 154 -49.5
t62 -131.5z" />
    <glyph glyph-name="six.basic" horiz-adv-x="546" 
d="M504 211q0 -88 -56.5 -154.5t-172.5 -66.5q-98 0 -160 72.5t-62 216.5q0 167 74 253.5t202 86.5q64 0 105 -34t41 -85v-49q-32 24 -78.5 34.5t-90.5 4t-75 -38t-31 -83.5q40 37 105 37q84 0 141.5 -51.5t57.5 -142.5zM200 212q0 -41 21.5 -68.5t60.5 -27.5q80 0 80 86
q0 39 -22 59t-56 20q-40 0 -62 -20t-22 -49z" />
    <glyph glyph-name="seven.basic" horiz-adv-x="531" 
d="M470 536q0 -33 -52 -144q-15 -31 -57.5 -96.5t-66.5 -120.5t-26 -112v-63h-61q-73 0 -73 79q0 72 39 143q107 196 142 253q1 1 1 3h-264v55q0 75 78 75h263q77 0 77 -72z" />
    <glyph glyph-name="eight.basic" horiz-adv-x="536" 
d="M496 179q0 -189 -227 -189q-98 0 -155.5 49.5t-57.5 131.5q0 39 23 77t57 59q-77 42 -77 127q0 84 62.5 134.5t158.5 50.5q94 0 153.5 -50.5t59.5 -126.5q0 -90 -76 -129q34 -21 56.5 -56.5t22.5 -77.5zM272 490q-32 0 -50 -16.5t-18 -41.5q0 -61 75 -61q33 0 51.5 16
t18.5 41q0 62 -77 62zM354 183q0 30 -21.5 49t-60.5 19q-29 0 -50.5 -18.5t-21.5 -43.5q0 -70 79 -70q37 0 56 17.5t19 46.5z" />
    <glyph glyph-name="nine.basic" horiz-adv-x="543" 
d="M491 319q0 -164 -65 -246.5t-180 -82.5q-78 0 -126.5 32.5t-48.5 88.5v56q94 -49 170 -49q84 0 101 110q-35 -33 -88 -33q-97 0 -155.5 53.5t-58.5 142.5q0 103 60.5 165.5t172.5 62.5q218 0 218 -300zM346 391q0 103 -83 103q-37 0 -57.5 -25t-20.5 -65q0 -42 20.5 -63
t56.5 -21q39 0 61.5 19.5t22.5 51.5z" />
    <glyph glyph-name="Euro.basic" horiz-adv-x="527" 
d="M489 163v-56q0 -42 -40.5 -79.5t-109.5 -37.5q-97 0 -159 54t-79 152h-73v40q0 24 13.5 38t34.5 14h17v20h-65v43q0 24 14.5 38t33.5 14h25q20 98 86.5 150.5t156.5 52.5q63 0 104 -35.5t41 -86.5v-52q-82 49 -130 49q-90 0 -114 -78h175v-39q0 -25 -15 -40.5t-40 -15.5
h-130v-20h185v-40q0 -23 -14.5 -37.5t-40.5 -14.5h-120q18 -79 113 -79q53 0 131 46z" />
    <glyph glyph-name="dollar.basic" horiz-adv-x="549" 
d="M488 188q0 -79 -49 -128.5t-110 -57.5v-117h-40q-66 0 -66 62v53q-154 10 -154 131l2 74q81 -81 175 -81q55 0 76.5 13t21.5 42q0 25 -23.5 37.5t-100.5 25.5h1q-165 26 -165 159q0 74 48.5 123t118.5 62v116h48q58 0 58 -62v-50q70 -7 106.5 -37.5t36.5 -80.5v-59
q-83 53 -167 53q-107 0 -107 -53q0 -23 22 -34t101 -25q80 -13 123.5 -56.5t43.5 -109.5z" />
    <glyph glyph-name="cent.basic" horiz-adv-x="530" 
d="M284 561q63 0 63 -69v-37q40 -8 66 -35t26 -65v-67q-39 24 -67 34.5t-67 10.5q-41 0 -70 -28.5t-29 -69.5q0 -52 27.5 -83.5t74.5 -31.5q58 0 129 38v-65q0 -32 -24 -58t-66 -36v-111h-30q-33 0 -51 18.5t-18 51.5v40q-77 17 -128.5 78t-51.5 143q0 85 47.5 149.5
t132.5 83.5v109h36z" />
    <glyph glyph-name="sterling.basic" horiz-adv-x="547" 
d="M274 123h219v-49q0 -74 -97 -74h-311v45q0 23 33 69q42 57 42 91q0 17 -3 33h-103v35q0 76 76 76h3q-6 32 -6 61q0 82 60 134.5t154 52.5q51 0 87.5 -29t36.5 -67v-56q-75 24 -124 24q-30 0 -49 -18.5t-19 -50.5q0 -24 5 -51h154v-42q0 -33 -21 -51t-56 -18h-62
q1 -6 1 -23q0 -50 -20 -92z" />
    <glyph glyph-name="florin.basic" horiz-adv-x="562" 
d="M501 475q-70 13 -81 13q-43 0 -56 -69q-1 -8 -3 -18.5t-3 -19.5h111v-45q0 -27 -22 -46t-63 -19h-38q-2 -21 -10.5 -83.5t-11.5 -96.5q-5 -36 -10.5 -62t-17.5 -53t-29 -43.5t-44.5 -27t-63.5 -10.5q-45 0 -72 21t-27 51v59q59 -14 83 -14q37 0 47 73q3 33 9.5 93
t10.5 93h-95v44q0 27 22 45.5t50 19.5l38 1l3 33q28 191 184 191q42 0 65.5 -21t23.5 -51v-58z" />
    <glyph glyph-name="yen.basic" horiz-adv-x="545" 
d="M510 543q0 -43 -130 -200h103v-50q0 -21 -19.5 -36.5t-48.5 -15.5h-76v-39h144v-50q0 -19 -20 -35.5t-48 -16.5h-76v-100h-61q-25 0 -45.5 20.5t-20.5 50.5v29h-140v44q0 25 17.5 41.5t49.5 16.5h73v39h-140v45q0 24 17.5 40.5t49.5 16.5h35q-111 146 -146 254h73
q63 0 87 -41q43 -89 94 -154q69 84 117 195h55q27 0 41.5 -15.5t14.5 -38.5z" />
    <glyph glyph-name="numbersign.basic" horiz-adv-x="573" 
d="M534 412q0 -33 -20 -51t-55 -18h-14q-14 -63 -16 -75h67v-41q0 -33 -19.5 -52t-55.5 -19h-13q-19 -96 -30 -156h-47q-62 0 -62 62q0 14 3 26v-1q4 19 13 69h-59q-13 -66 -30 -156h-47q-61 0 -61 62q0 9 2 25l13 69h-72v42q0 32 20 51t55 19h20q6 28 14 75h-72v40
q0 33 20 51.5t56 18.5h18q16 82 30 156h39q68 0 68 -65q0 -12 -1 -16l-1 -4l-14 -71h60q5 27 15.5 79.5t14.5 76.5h39q32 0 50 -17t18 -47q0 -17 -1 -24q-2 -12 -6.5 -32t-7.5 -36h69v-41zM323 343h-61q-12 -57 -14 -75h59q10 45 16 75z" />
    <glyph glyph-name="percent.basic" horiz-adv-x="920" 
d="M387 419q0 -92 -45 -151.5t-125 -59.5q-74 0 -117.5 57.5t-43.5 139.5q0 92 44.5 151.5t124.5 59.5q74 0 118 -57.5t44 -139.5zM617 519l-246 -519h-30q-28 0 -44.5 15t-16.5 43q0 25 15 52q42 89 124 261.5t112 236.5h39q22 0 38 -13.5t16 -37.5q0 -23 -7 -38zM857 202
q0 -91 -45 -150.5t-125 -59.5q-74 0 -118 57.5t-44 139.5q0 91 44.5 150t124.5 59q73 0 118 -57.5t45 -138.5zM265 405q0 100 -47 100q-39 0 -39 -86q0 -100 45 -100q41 0 41 86zM737 191q0 100 -46 100q-20 0 -30.5 -23.5t-10.5 -62.5q0 -100 47 -100q40 0 40 86z" />
    <glyph glyph-name="perthousand.basic" horiz-adv-x="1256" 
d="M383 412q0 -89 -44 -147.5t-122 -58.5q-73 0 -116 56.5t-43 136.5q0 90 44 148t122 58q73 0 116 -56t43 -137zM607 508l-240 -508h-30q-60 0 -60 58q0 16 14 50q23 48 106 222t126 265h38q23 0 38 -13t15 -37q0 -23 -8 -38zM1191 203q0 -90 -43.5 -148.5t-122.5 -58.5
q-72 0 -115 57t-43 137q0 89 43.5 147t121.5 58q72 0 115.5 -56.5t43.5 -135.5zM842 203q0 -90 -44 -148.5t-122 -58.5q-72 0 -116 57t-44 137q0 89 44 147t122 58q72 0 116 -56.5t44 -135.5zM262 399q0 98 -44 98q-39 0 -39 -85q0 -97 44 -97q39 0 39 84zM1074 192
q0 97 -45 97q-18 0 -28.5 -23t-10.5 -61q0 -98 45 -98q18 0 28.5 23.5t10.5 61.5zM724 192q0 97 -45 97q-39 0 -39 -84q0 -98 45 -98q39 0 39 85z" />
    <glyph glyph-name="zero.onum" horiz-adv-x="555" 
d="M511 317q0 -164 -63.5 -245.5t-170.5 -81.5q-106 0 -170 79t-64 225q0 162 64 243.5t178 81.5q107 0 166.5 -81t59.5 -221zM186 318q0 -108 24.5 -153t74.5 -45q38 0 60 42.5t22 127.5q0 109 -21.5 154t-68.5 45q-41 0 -66 -41.5t-25 -129.5z" />
    <glyph glyph-name="one.onum" horiz-adv-x="344" 
d="M295 0h-60q-37 0 -60.5 23t-23.5 67v365q-3 -1 -37 -14q-26 -9 -49 -9q-17 0 -30 6t-20 13t-13 23.5t-7.5 24t-6.5 28.5l116 51q74 31 115 31q33 0 54.5 -23t21.5 -52v-534z" />
    <glyph glyph-name="two.onum" horiz-adv-x="554" 
d="M486 71q0 -34 -25 -52.5t-67 -18.5h-269q-30 0 -51 21t-21 51q0 36 23.5 73.5t90.5 92.5l135 114q35 28 35 66q0 33 -23 52t-63 19q-58 0 -99 -17t-91 -58v55q0 63 51 106.5t159 43.5q89 0 149 -54.5t60 -130.5q0 -66 -27.5 -108t-99.5 -99q-96 -74 -123 -104h256v-52z
" />
    <glyph glyph-name="three.onum" horiz-adv-x="548" 
d="M477 187q0 -91 -62 -144t-181 -53q-79 0 -130.5 34t-51.5 97v60q99 -63 188 -63q47 0 70 17.5t23 47.5q0 33 -23 47.5t-72 16.5q-85 1 -85 58v50q34 4 77 6q101 4 101 62q0 69 -100 69q-87 0 -174 -62v63q0 46 52.5 86t141.5 40q101 0 161.5 -48t60.5 -128
q0 -99 -76 -136q33 -19 56.5 -52.5t23.5 -67.5z" />
    <glyph glyph-name="four.onum" horiz-adv-x="549" 
d="M527 202q0 -64 -62 -64h-29v-138h-58q-38 0 -60 23t-22 66v49h-183q-34 0 -56.5 20t-22.5 47q0 35 17 69q42 73 120 181t134 154h47q39 0 61.5 -24t22.5 -71v-253h91v-59zM296 261v174q-54 -71 -115 -174h115z" />
    <glyph glyph-name="five.onum" horiz-adv-x="558" 
d="M508 203q0 -100 -64.5 -156.5t-173.5 -56.5q-97 0 -143 32.5t-46 90.5v58q52 -28 88.5 -39.5t88.5 -11.5q103 0 103 76q0 36 -29.5 52.5t-93.5 16.5q-58 0 -150 -23v250q0 59 24.5 88t82.5 29h294v-44q0 -39 -24.5 -62t-69.5 -23h-166v-99q28 3 63 3q92 0 154 -49.5
t62 -131.5z" />
    <glyph glyph-name="six.onum" horiz-adv-x="546" 
d="M504 211q0 -88 -56.5 -154.5t-172.5 -66.5q-98 0 -160 72.5t-62 216.5q0 167 74 253.5t202 86.5q64 0 105 -34t41 -85v-49q-32 24 -78.5 34.5t-90.5 4t-75 -38t-31 -83.5q40 37 105 37q84 0 141.5 -51.5t57.5 -142.5zM200 212q0 -41 21.5 -68.5t60.5 -27.5q80 0 80 86
q0 39 -22 59t-56 20q-40 0 -62 -20t-22 -49z" />
    <glyph glyph-name="seven.onum" horiz-adv-x="531" 
d="M470 537q0 -33 -51 -143q-16 -34 -57.5 -98t-66.5 -119.5t-27 -113.5v-63h-61q-73 0 -73 79q0 72 39 143q86 157 142 252v-1l3 6h-266v55q0 75 78 75h263q77 0 77 -72z" />
    <glyph glyph-name="eight.onum" horiz-adv-x="536" 
d="M496 179q0 -189 -227 -189q-98 0 -155.5 49.5t-57.5 131.5q0 39 23 77t57 59q-77 42 -77 127q0 84 62.5 134.5t158.5 50.5q94 0 153.5 -50.5t59.5 -126.5q0 -90 -76 -129q34 -21 56.5 -56.5t22.5 -77.5zM272 490q-32 0 -50 -16.5t-18 -41.5q0 -61 75 -61q33 0 51.5 16
t18.5 41q0 62 -77 62zM354 183q0 30 -21.5 49t-60.5 19q-29 0 -50.5 -18.5t-21.5 -43.5q0 -70 79 -70q37 0 56 17.5t19 46.5z" />
    <glyph glyph-name="nine.onum" horiz-adv-x="543" 
d="M491 319q0 -164 -65 -246.5t-180 -82.5q-78 0 -126.5 32.5t-48.5 88.5v56q94 -49 170 -49q84 0 101 110q-35 -33 -88 -33q-97 0 -155.5 53.5t-58.5 142.5q0 103 60.5 165.5t172.5 62.5q218 0 218 -300zM346 391q0 103 -83 103q-37 0 -57.5 -25t-20.5 -65q0 -42 20.5 -63
t56.5 -21q39 0 61.5 19.5t22.5 51.5z" />
    <glyph glyph-name="wasla" 
d="M-109 35v23h25v77h21q23 0 32 -12q30 33 68 33q41 0 61 -32t20 -71q0 -53 -30 -53h-157q-40 0 -40 35zM30 94q-27 0 -44 -36h75q-2 36 -31 36z" />
    <glyph glyph-name="hamza_medial" 
d="M-233 123h59q-16 36 -16 85q0 96 54 159t150 63q60 0 110.5 -31.5t60.5 -92.5q0 -29 -11 -51l-29 -67q-24 76 -64.5 105t-74.5 29q-35 0 -54 -28t-19 -73q0 -73 33 -98h252v-57q0 -24 -20 -45t-49 -21h-313q-30 0 -49.5 21t-19.5 45v57z" />
    <glyph glyph-name="xx.TahAbove" 
d="M-109 35v22h24v127v26h21q20 0 28.5 -7.5t8.5 -27.5v-48q30 28 64 28q41 0 61 -32t20 -71q0 -52 -30 -52h-158q-39 0 -39 35zM29 93q-27 0 -44 -36h75q-2 36 -31 36z" />
    <glyph glyph-name="shadda_fathatan" 
d="M-110 146l6 -80q1 -17 12 -17q8 0 8 14q0 6 -1.5 23t-1.5 25q0 21 7 27.5t25 7.5h18l7 -82q2 -15 12 -15q8 0 8 17q0 5 -2 21t-2 25q0 44 49 28l8 -79q2 -21 -13 -41t-44 -20q-23 0 -40 12q-11 -10 -33 -10q-27 0 -44.5 17.5t-21.5 47.5q-5 40 -5 50q0 32 48 29zM33 207
l1 -27q-28 -1 -78.5 -4t-75.5 -4q-13 -1 -19.5 10t-7.5 20.5t-1 23.5q22 0 75 3t75 4q29 1 31 -26zM33 278l1 -27q-28 -1 -78.5 -4t-75.5 -4q-13 -1 -19.5 10t-7.5 20.5t-1 23.5q22 1 75 4t75 3q29 1 31 -26z" />
    <glyph glyph-name="hamza_above_damma" 
d="M-1 52h90v-25q0 -11 -8.5 -19t-21.5 -8h-119q-12 0 -20 8.5t-8 18.5v25h29q-1 4 -1 17v7q0 35 19.5 57t53.5 22q55 0 65 -46q0 -33 -22 -48q-7 23 -17.5 34.5t-15.5 12.5t-13 1q-17 0 -17 -30q0 -21 6 -27zM11 244q13 3 13 25q0 27 -18 27q-15 0 -15 -25q0 -27 20 -27z
M8 342q29 0 48.5 -18.5t19.5 -48.5q0 -99 -189 -103q-12 0 -18.5 6t-8 14t-3.5 26l33 1q46 3 63 6q-12 16 -12 42q0 32 19 53.5t48 21.5z" />
    <glyph glyph-name="hamza_above_sukun" 
d="M-1 52h90v-25q0 -11 -8.5 -19t-21.5 -8h-119q-12 0 -20 8.5t-8 18.5v25h29q-1 4 -1 17v7q0 35 19.5 57t53.5 22q55 0 65 -46q0 -33 -22 -48q-7 23 -17.5 34.5t-15.5 12.5t-13 1q-17 0 -17 -30q0 -21 6 -27zM4 341q37 0 57 -25t20 -58q0 -36 -25.5 -61t-59.5 -25
q-36 0 -56 26t-20 58q0 38 24.5 61.5t59.5 23.5zM1 289q-23 -3 -23 -36q0 -30 22 -30q21 0 21 40q0 23 -20 26z" />
    <glyph glyph-name="hamza_above_fathatan" 
d="M-1 52h90v-25q0 -11 -8.5 -19t-21.5 -8h-119q-12 0 -20 8.5t-8 18.5v25h29q-1 4 -1 17v7q0 35 19.5 57t53.5 22q55 0 65 -46q0 -33 -22 -48q-7 23 -17.5 34.5t-15.5 12.5t-13 1q-17 0 -17 -30q0 -21 6 -27zM90 207l1 -27q-28 -1 -78.5 -4t-75.5 -4q-13 -1 -19.5 10
t-7.5 20.5t-1 23.5q22 0 75 3t75 4q29 1 31 -26zM90 278l1 -27q-28 -1 -78.5 -4t-75.5 -4q-13 -1 -19.5 10t-7.5 20.5t-1 23.5q22 1 75 4t75 3q29 1 31 -26z" />
    <glyph glyph-name="hamza_above_dammatan" 
d="M-1 52h90v-25q0 -11 -8.5 -19t-21.5 -8h-119q-12 0 -20 8.5t-8 18.5v25h29q-1 4 -1 17v7q0 35 19.5 57t53.5 22q55 0 65 -46q0 -33 -22 -48q-7 23 -17.5 34.5t-15.5 12.5t-13 1q-17 0 -17 -30q0 -21 6 -27zM64 342q28 0 48 -19t20 -49q0 -34 -24.5 -57t-63.5 -31.5
t-63 -11t-47 -2.5q-17 0 -23.5 10t-8.5 36h17q13 6 13 29q0 19 -22 19q-7 0 -21 -25q-20 20 -20 39q0 14 13 24t33 10q32 0 50.5 -20.5t18.5 -47.5q0 -12 -4 -24q2 0 13 1.5t16 2.5q-14 22 -14 41q0 32 20.5 53.5t48.5 21.5zM66 245q15 1 15 23q0 27 -20 27q-15 0 -15 -23
q0 -12 6 -19.5t14 -7.5z" />
    <glyph glyph-name="hamza_above_fatha" 
d="M-1 52h90v-25q0 -11 -8.5 -19t-21.5 -8h-119q-12 0 -20 8.5t-8 18.5v25h29q-1 4 -1 17v7q0 35 19.5 57t53.5 22q55 0 65 -46q0 -33 -22 -48q-7 23 -17.5 34.5t-15.5 12.5t-13 1q-17 0 -17 -30q0 -21 6 -27zM90 207l1 -27q-28 -1 -78.5 -4t-75.5 -4q-13 -1 -19.5 10
t-7.5 20.5t-1 23.5q22 0 75 3t75 4q29 1 31 -26z" />
    <glyph glyph-name="hamza_below_kasratan" 
d="M90 -267l1 -27q-28 -1 -78.5 -4t-75.5 -4q-13 -1 -19.5 10t-7.5 20.5t-1 23.5q22 0 75 3t75 4q29 1 31 -26zM90 -196l1 -27q-28 -1 -78.5 -4t-75.5 -4q-13 -1 -19.5 10t-7.5 20.5t-1 23.5q22 1 75 4t75 3q29 1 31 -26zM-1 -103h90v-25q0 -10 -8.5 -18.5t-21.5 -8.5h-119
q-12 0 -20 8.5t-8 18.5v25h29q-1 4 -1 17v7q0 35 19.5 57t53.5 22q55 0 65 -46q0 -33 -22 -48q-7 23 -17.5 34.5t-15.5 12.5t-13 1q-17 0 -17 -30q0 -21 6 -27z" />
    <glyph glyph-name="hamza_below_kasra" 
d="M-1 -103h90v-25q0 -10 -8.5 -18.5t-21.5 -8.5h-119q-12 0 -20 8.5t-8 18.5v25h29q-1 4 -1 17v7q0 35 19.5 57t53.5 22q55 0 65 -46q0 -33 -22 -48q-7 23 -17.5 34.5t-15.5 12.5t-13 1q-17 0 -17 -30q0 -21 6 -27zM90 -196l1 -27q-28 -1 -78.5 -4t-75.5 -4
q-13 -1 -19.5 10t-7.5 20.5t-1 23.5q22 1 75 4t75 3q29 1 31 -26z" />
    <glyph glyph-name="wasle" horiz-adv-x="103" 
d="M-12 0v123h138v-123h-138z" />
    <glyph glyph-name="Kashida.Narrow" horiz-adv-x="189" 
d="M-12 0v124h228v-124h-228z" />
    <glyph glyph-name="kashida.long" horiz-adv-x="209" 
d="M-12 0v123h227v-123h-227z" />
    <glyph glyph-name="tooth.init" horiz-adv-x="304" 
d="M178 349q86 0 86 -89v-86q0 -75 -44 -123t-129 -51h-101v123h91q48 4 48 57v169h49z" />
    <glyph glyph-name="tooth.init.long" horiz-adv-x="304" 
d="M178 349q86 0 86 -89v-86q0 -75 -44 -123t-129 -51h-101v123h91q48 4 48 57v169h49z" />
    <glyph glyph-name="logo" horiz-adv-x="1245" 
 />
    </font>
</defs>
</svg>
